<svg width="20" height="20" viewBox="0 0 20 20" fill="none" xmlns="http://www.w3.org/2000/svg">
<path fill-rule="evenodd" clip-rule="evenodd" d="M10 0C15.5228 0 20 4.47715 20 10C20 15.5228 15.5228 20 10 20C4.47715 20 0 15.5228 0 10C0 4.47715 4.47715 0 10 0ZM14.8669 7.04712C14.5425 6.7232 14.0159 6.72321 13.6914 7.04712L9.05273 11.6858L6.30981 8.94287C5.98534 8.6184 5.45772 8.61871 5.13306 8.94287C4.80866 9.26731 4.80902 9.79375 5.13306 10.1184L8.46436 13.4497C8.62025 13.6056 8.83227 13.6938 9.05273 13.6938C9.27303 13.6937 9.48533 13.6055 9.64111 13.4497L14.8669 8.22388C15.1911 7.89921 15.1914 7.37159 14.8669 7.04712Z" fill="#5968fb"/>
</svg>
