<svg preserveAspectRatio="none" width="100%" height="100%" overflow="visible" style="display: block;" viewBox="0 0 40 40" fill="none" xmlns="http://www.w3.org/2000/svg">
<path id="vector" fill-rule="evenodd" clip-rule="evenodd" d="M20 0C31.0457 0 40 8.9543 40 20C40 31.0457 31.0457 40 20 40C8.9543 40 0 31.0457 0 20C0 8.9543 8.9543 0 20 0ZM28.1421 14.436C27.6283 13.9223 26.7956 13.9224 26.2817 14.436L17.8735 22.8418L14.1357 19.104C13.622 18.5906 12.7892 18.5906 12.2754 19.104C11.7621 19.6178 11.762 20.4506 12.2754 20.9644L16.9434 25.6348C17.1899 25.8808 17.5252 26.0179 17.8735 26.0181C18.2218 26.018 18.5571 25.8806 18.8037 25.6348L28.1421 16.2964C28.6554 15.7828 28.655 14.9499 28.1421 14.436Z" fill="var(--fill-0, #5968fb)"/>
</svg>
