<svg preserveAspectRatio="none" width="100%" height="100%" overflow="visible" style="display: block;" viewBox="0 0 13 13" fill="none" xmlns="http://www.w3.org/2000/svg">
<g id="vector">
<path fill-rule="evenodd" clip-rule="evenodd" d="M8.60059 3.13477C8.82855 3.18129 9 3.38329 9 3.625V11.625L8.99023 11.7256C8.95034 11.9211 8.79608 12.0753 8.60059 12.1152L8.5 12.125H0.5C0.258287 12.125 0.056292 11.9536 0.00976562 11.7256L0 11.625V3.625C1.28852e-07 3.34886 0.223858 3.125 0.5 3.125H8.5L8.60059 3.13477ZM1.25 10.875H7.75V4.375H1.25V10.875Z" fill="#707070"/>
<path d="M10.5 0C11.3975 0 12.125 0.727538 12.125 1.625V9.625C12.125 9.97018 11.8452 10.25 11.5 10.25C11.1548 10.25 10.875 9.97018 10.875 9.625V1.625C10.875 1.41789 10.7071 1.25 10.5 1.25H2.5C2.15482 1.25 1.875 0.970178 1.875 0.625C1.875 0.279822 2.15482 0 2.5 0H10.5Z" fill="#707070"/>
</g>
</svg>
