<svg preserveAspectRatio="none" width="100%" height="100%" overflow="visible" style="display: block;" viewBox="0 0 18 18" fill="none" xmlns="http://www.w3.org/2000/svg">
<path id="Vector" fill-rule="evenodd" clip-rule="evenodd" d="M0 2.91667C0 2.14312 0.307291 1.40125 0.854272 0.854272C1.40125 0.307291 2.14312 0 2.91667 0H14.5833C15.3569 0 16.0987 0.307291 16.6457 0.854272C17.1927 1.40125 17.5 2.14312 17.5 2.91667V14.5833C17.5 15.3569 17.1927 16.0987 16.6457 16.6457C16.0987 17.1927 15.3569 17.5 14.5833 17.5H2.91667C2.14312 17.5 1.40125 17.1927 0.854272 16.6457C0.307291 16.0987 0 15.3569 0 14.5833V2.91667ZM8.47222 3.19444C8.21437 3.19444 7.96708 3.29687 7.78476 3.4792C7.60243 3.66153 7.5 3.90882 7.5 4.16667C7.5 4.42452 7.60243 4.6718 7.78476 4.85413C7.96708 5.03646 8.21437 5.13889 8.47222 5.13889H10.9864L6.81264 9.31264C6.63554 9.496 6.53755 9.74159 6.53976 9.9965C6.54198 10.2514 6.64422 10.4953 6.82448 10.6755C7.00474 10.8558 7.24859 10.958 7.5035 10.9602C7.75841 10.9625 8.004 10.8645 8.18736 10.6874L12.3611 6.51361V9.02778C12.3611 9.28563 12.4635 9.53292 12.6459 9.71524C12.8282 9.89757 13.0755 10 13.3333 10C13.5912 10 13.8385 9.89757 14.0208 9.71524C14.2031 9.53292 14.3056 9.28563 14.3056 9.02778V4.16667C14.3056 3.90882 14.2031 3.66153 14.0208 3.4792C13.8385 3.29687 13.5912 3.19444 13.3333 3.19444H8.47222Z" fill="var(--fill-0, #909090)"/>
</svg>
