<svg width="15" height="12" viewBox="0 0 15 12" fill="none" xmlns="http://www.w3.org/2000/svg">
<path d="M0.942786 1.02604C0.707414 0.790669 0.708162 0.408825 0.944455 0.174377C1.17944 -0.0587734 1.55871 -0.0580296 1.79279 0.176041L12.0928 10.476C12.3268 10.7101 12.3276 11.0894 12.0944 11.3244C11.86 11.5607 11.4782 11.5614 11.2428 11.326L9.61612 9.69937C8.84945 9.95271 8.03612 10.086 7.18278 10.086C4.12831 10.086 1.48248 8.3451 0.173753 5.80193C-0.057443 5.35266 -0.0580675 4.81928 0.172782 4.36983C0.624505 3.49036 1.23772 2.7081 1.97612 2.05937L0.942786 1.02604ZM7.18278 3.08604C7.71322 3.08604 8.22192 3.29675 8.597 3.67182C8.97207 4.0469 9.18278 4.5556 9.18278 5.08604C9.18312 5.31308 9.14479 5.53853 9.06945 5.7527L6.51612 3.19937C6.73029 3.12403 6.95574 3.0857 7.18278 3.08604ZM7.18278 0.0860375C10.2366 0.0860375 12.8819 1.82621 14.1909 4.36846C14.4228 4.81868 14.4229 5.35333 14.1911 5.80356C13.6351 6.88352 12.8347 7.82343 11.8494 8.54604L10.9028 7.5927C11.6899 7.04825 12.347 6.33964 12.8301 5.51793C12.987 5.25113 12.9872 4.92083 12.8306 4.65387C12.2963 3.74283 11.548 2.97237 10.6477 2.41094C9.60824 1.76275 8.40778 1.41921 7.18278 1.41937C6.45612 1.41937 5.74278 1.53937 5.07612 1.7527L4.04945 0.732704C5.00945 0.319371 6.06945 0.0860375 7.18278 0.0860375ZM1.53544 4.65395C1.3787 4.92093 1.3784 5.2513 1.53503 5.51834C2.06937 6.42932 2.81759 7.19973 3.71787 7.76113C4.75733 8.40932 5.95779 8.75286 7.18278 8.7527C7.64278 8.7527 8.09612 8.70604 8.51612 8.61271L6.99612 7.08604C6.53222 7.03631 6.09933 6.82929 5.76943 6.49939C5.43953 6.16949 5.23251 5.7366 5.18278 5.2727L2.91612 2.99937C2.3759 3.4632 1.90714 4.02082 1.53544 4.65395Z" fill="#707070"/>
</svg>
