<svg width="15" height="10" viewBox="0 0 15 10" fill="none" xmlns="http://www.w3.org/2000/svg">
<path d="M7.18187 3C8.28644 3 9.18187 3.89543 9.18187 5C9.18187 6.10457 8.28644 7 7.18187 7C6.07741 6.99987 5.18187 6.10449 5.18187 5C5.18187 3.89551 6.07741 3.00013 7.18187 3Z" fill="#707070"/>
<path fill-rule="evenodd" clip-rule="evenodd" d="M7.47582 0.00488281C7.55818 0.00787518 7.64033 0.0130628 7.72191 0.0185547C7.73193 0.0192348 7.74218 0.0197926 7.75218 0.0205078C7.81618 0.0250629 7.88009 0.0310276 7.94359 0.0371094C7.98592 0.0411802 8.02842 0.0450675 8.07054 0.0498047C8.12307 0.0557027 8.17559 0.0623961 8.22777 0.0693359C8.27048 0.0750136 8.31322 0.0815289 8.3557 0.0878906C8.38069 0.0916417 8.40599 0.0946481 8.4309 0.0986328L8.57933 0.124023C8.60832 0.129224 8.63737 0.135106 8.66625 0.140625C8.7044 0.147967 8.74255 0.156155 8.78051 0.164062C8.85144 0.178717 8.9222 0.194386 8.99242 0.210938C9.01025 0.215187 9.02834 0.21926 9.04613 0.223633C10.9763 0.693054 12.6275 1.87403 13.7092 3.47363C13.718 3.48661 13.7269 3.49967 13.7356 3.5127C13.8099 3.62403 13.8817 3.73732 13.9504 3.85254C13.9675 3.88118 13.9835 3.91059 14.0002 3.93945C14.0656 4.05224 14.1298 4.166 14.1897 4.28223C14.2766 4.451 14.331 4.63182 14.3528 4.81543C14.3673 4.93802 14.3673 5.06198 14.3528 5.18457C14.331 5.36815 14.2766 5.54902 14.1897 5.71777C14.13 5.83375 14.0654 5.94702 14.0002 6.05957C13.984 6.08757 13.968 6.11577 13.9514 6.14355C13.8822 6.25969 13.8105 6.37415 13.7356 6.48633C13.7291 6.49605 13.7226 6.50593 13.7161 6.51562C12.6345 8.12052 10.9804 9.3049 9.04613 9.77539C9.02834 9.77976 9.01026 9.78384 8.99242 9.78809C8.92219 9.80464 8.85145 9.8203 8.78051 9.83496C8.74255 9.84287 8.70441 9.85106 8.66625 9.8584C8.61277 9.86862 8.55897 9.87857 8.50511 9.8877C8.45556 9.89613 8.40558 9.90364 8.3557 9.91113C8.31321 9.9175 8.27048 9.92401 8.22777 9.92969C8.17559 9.93663 8.12307 9.94332 8.07054 9.94922C8.02841 9.95396 7.98592 9.95784 7.94359 9.96191C7.88008 9.968 7.81619 9.97396 7.75218 9.97852C7.74218 9.97923 7.73193 9.97979 7.72191 9.98047C7.64032 9.98596 7.55819 9.99115 7.47582 9.99414C7.37817 9.99773 7.27942 10 7.1809 10C7.05656 9.99999 6.93272 9.99595 6.8098 9.99023C6.77693 9.98869 6.74394 9.98632 6.71117 9.98438C6.46648 9.96994 6.22472 9.94451 5.98656 9.9082C5.95957 9.90408 5.9324 9.8999 5.90551 9.89551C5.80727 9.87948 5.70951 9.86143 5.61254 9.8418C5.58656 9.83654 5.5603 9.83168 5.53441 9.82617C5.41491 9.8007 5.29637 9.77204 5.17894 9.74121C5.16893 9.73859 5.15867 9.73606 5.14867 9.7334C5.04693 9.70625 4.946 9.67659 4.84593 9.64551C4.81183 9.63497 4.7773 9.62524 4.7434 9.61426C4.64959 9.5837 4.55632 9.55153 4.4641 9.51758C4.39415 9.492 4.32509 9.46396 4.25609 9.43652C4.23308 9.4273 4.20965 9.41862 4.18676 9.40918C4.14066 9.39035 4.09373 9.37317 4.04808 9.35352L4.05004 9.35059C2.85173 8.82983 1.8075 8.02042 1.00609 7.00879C0.969582 6.96285 0.934152 6.9159 0.898669 6.86914C0.877368 6.84099 0.856124 6.81262 0.835193 6.78418C0.766296 6.69078 0.699753 6.59551 0.634997 6.49902C0.612157 6.46494 0.588959 6.43094 0.566638 6.39648C0.535072 6.34781 0.504367 6.29844 0.473865 6.24902C0.451731 6.21315 0.430009 6.17688 0.408435 6.14062C0.371552 6.07865 0.335237 6.01619 0.300037 5.95312C0.265771 5.89178 0.232116 5.82992 0.199451 5.76758C0.190417 5.75032 0.180034 5.73315 0.17113 5.71582C0.113559 5.60364 0.0699987 5.48623 0.0412475 5.36621C0.0267256 5.30596 0.0162941 5.24483 0.0090209 5.18359C-0.00248417 5.08531 -0.00206367 4.9863 0.00511465 4.8877C0.0198723 4.68009 0.0734717 4.47448 0.17113 4.28418C0.201688 4.22469 0.234807 4.16601 0.266833 4.10742C0.280313 4.08279 0.293142 4.05768 0.306872 4.0332C0.340989 3.97236 0.376657 3.91236 0.412341 3.85254C0.436356 3.81228 0.460877 3.77222 0.485583 3.73242C0.512505 3.68908 0.538897 3.64531 0.566638 3.60254C0.594808 3.55907 0.624556 3.51651 0.653552 3.47363C0.718925 3.37711 0.78617 3.28188 0.855701 3.18848C0.874269 3.16347 0.892511 3.13806 0.911365 3.11328C0.942745 3.07216 0.973915 3.03071 1.00609 2.99023C1.80752 1.97878 2.85182 1.16908 4.05004 0.648438L4.04808 0.646484C4.09384 0.626785 4.14055 0.608716 4.18676 0.589844C4.20965 0.580409 4.23309 0.57172 4.25609 0.5625C4.32565 0.534842 4.39553 0.507211 4.46605 0.481445C4.5577 0.447731 4.65019 0.415129 4.7434 0.384766C4.77729 0.373784 4.81184 0.364052 4.84593 0.353516C4.94599 0.322439 5.04695 0.29277 5.14867 0.265625C5.15867 0.262965 5.16893 0.260432 5.17894 0.257812C5.28899 0.228923 5.40008 0.20192 5.51195 0.177734L5.55687 0.167969C5.57528 0.164105 5.59408 0.160958 5.61254 0.157227C5.7095 0.137596 5.80728 0.119543 5.90551 0.103516C5.9324 0.0991216 5.95957 0.0949416 5.98656 0.0908203C6.22469 0.0545249 6.46651 0.0290807 6.71117 0.0146484C6.72965 0.0135522 6.74832 0.0117164 6.76683 0.0107422L6.89574 0.00488281C6.9903 0.00150815 7.08551 7.5732e-06 7.1809 0C7.27941 0 7.37818 0.00129315 7.47582 0.00488281ZM7.1809 1.33301C6.93616 1.33303 6.69281 1.3478 6.45238 1.37402C5.48397 1.48243 4.54812 1.80633 3.71605 2.3252C3.39223 2.52717 3.08846 2.75689 2.80687 3.00977C2.59301 3.20186 2.38979 3.40791 2.2014 3.62891C2.05374 3.80187 1.91549 3.98312 1.78636 4.1709C1.69794 4.29959 1.61415 4.43253 1.53441 4.56836C1.43664 4.73502 1.39982 4.92612 1.42406 5.11133C1.43387 5.18555 1.45325 5.25885 1.48265 5.3291C1.49731 5.36418 1.51486 5.39829 1.53441 5.43164C2.06865 6.34243 2.81602 7.11343 3.71605 7.6748C4.682 8.27715 5.7876 8.61629 6.92211 8.66113L7.1809 8.66699C7.38231 8.66699 7.58291 8.65559 7.77953 8.6377C7.82804 8.63325 7.87669 8.62857 7.92504 8.62305C8.12663 8.59992 8.32449 8.56867 8.51488 8.52637L8.51683 8.52832C9.26786 8.3719 9.98984 8.0844 10.6467 7.6748C10.7418 7.61548 10.8344 7.5522 10.926 7.48828C11.7019 6.94621 12.3505 6.24451 12.8284 5.43164C12.9852 5.16486 12.9849 4.8353 12.8284 4.56836C12.2941 3.65752 11.5468 2.88658 10.6467 2.3252C9.98978 1.91557 9.26793 1.62711 8.51683 1.4707L8.51488 1.47363C8.41901 1.45233 8.32093 1.43343 8.22191 1.41699C7.87922 1.36187 7.53077 1.33296 7.1809 1.33301Z" fill="#707070"/>
</svg>
