<svg preserveAspectRatio="none" width="100%" height="100%" overflow="visible" style="display: block;" viewBox="0 0 24 24" fill="none" xmlns="http://www.w3.org/2000/svg">
<g id="Subtract">
<path d="M11.9873 9.36719C13.4344 9.36765 14.6081 10.5412 14.6084 11.9883C14.6084 13.4356 13.4345 14.6089 11.9873 14.6094C10.5397 14.6093 9.36621 13.4359 9.36621 11.9883C9.36649 10.5409 10.5399 9.36722 11.9873 9.36719Z" fill="var(--fill-0, #2C6AEF)"/>
<path fill-rule="evenodd" clip-rule="evenodd" d="M15.5547 0C17.5489 0.000370807 19.1658 1.61705 19.166 3.61133V4.77637H20.3311C22.3255 4.77665 23.9424 6.39416 23.9424 8.38867C23.9422 10.3815 22.3281 11.9972 20.3359 12C22.3281 12.0028 23.9432 13.6185 23.9434 15.6113C23.9433 17.6058 22.3255 19.2234 20.3311 19.2236H19.166V20.3887C19.1658 22.3829 17.5489 23.9996 15.5547 24C13.7161 24 12.198 22.6257 11.9717 20.8486C11.7454 22.6255 10.2279 23.9996 8.38965 24C6.39511 24 4.77758 22.3832 4.77734 20.3887V19.2236H3.6123C1.61782 19.2234 2.31436e-05 17.6059 0 15.6113C0.000174063 13.6184 1.616 12.0025 3.6084 12C1.61601 11.9974 0.00014315 10.3816 0 8.38867C-8.71721e-08 6.39414 1.61784 4.77662 3.6123 4.77637H4.77734V3.61133C4.77753 1.61682 6.3951 0 8.38965 0C10.2277 0.000360921 11.7452 1.3738 11.9717 3.15039C12.1982 1.37358 13.7163 1.41685e-05 15.5547 0ZM11.9717 16.6221C11.6083 16.6221 11.3135 16.9169 11.3135 17.2803V19.0996C11.3137 19.4628 11.6085 19.7568 11.9717 19.7568C12.3349 19.7568 12.6296 19.4628 12.6299 19.0996V17.2803C12.6299 16.9169 12.3351 16.6221 11.9717 16.6221ZM9.13672 15.8457C8.85835 15.6123 8.44349 15.6484 8.20996 15.9268L7.04102 17.3203C6.8075 17.5987 6.84372 18.0135 7.12207 18.2471C7.40041 18.4806 7.81524 18.4443 8.04883 18.166L9.21777 16.7725C9.45135 16.4941 9.41509 16.0793 9.13672 15.8457ZM15.7334 15.9268C15.4999 15.6484 15.085 15.6123 14.8066 15.8457C14.5283 16.0793 14.492 16.4941 14.7256 16.7725L15.8945 18.166C16.1281 18.4443 16.543 18.4806 16.8213 18.2471C17.0996 18.0135 17.1359 17.5987 16.9023 17.3203L15.7334 15.9268ZM14.2354 8.75781C12.8702 7.82773 11.0743 7.82806 9.70898 8.75781L5.6582 11.5186C5.31894 11.7498 5.3189 12.2502 5.6582 12.4814L9.70898 15.2412C11.0744 16.1714 12.87 16.1715 14.2354 15.2412L18.2861 12.4814C18.6245 12.2501 18.6248 11.7497 18.2861 11.5186L14.2354 8.75781ZM8.04883 5.83398C7.81525 5.55564 7.40043 5.51936 7.12207 5.75293C6.84372 5.98651 6.80744 6.40133 7.04102 6.67969L8.20996 8.07324C8.44348 8.35154 8.85835 8.38767 9.13672 8.1543C9.41509 7.92072 9.45135 7.50591 9.21777 7.22754L8.04883 5.83398ZM16.8213 5.75293C16.5429 5.51936 16.1281 5.55565 15.8945 5.83398L14.7256 7.22754C14.492 7.50591 14.5283 7.92072 14.8066 8.1543C15.085 8.38766 15.4999 8.35153 15.7334 8.07324L16.9023 6.67969C17.1359 6.40133 17.0996 5.98651 16.8213 5.75293ZM11.9717 4.24316C11.6084 4.24316 11.3137 4.53718 11.3135 4.90039V6.71973C11.3135 7.08309 11.6083 7.37793 11.9717 7.37793C12.335 7.37793 12.6299 7.08308 12.6299 6.71973V4.90039C12.6297 4.53718 12.3349 4.24317 11.9717 4.24316Z" fill="var(--fill-0, #2C6AEF)"/>
</g>
</svg>
