<svg preserveAspectRatio="none" width="100%" height="100%" overflow="visible" style="display: block;" viewBox="0 0 34 34" fill="none" xmlns="http://www.w3.org/2000/svg">
<g id="Union">
<path d="M16.6667 13.0263C18.6772 13.0263 20.307 14.6561 20.3071 16.6667C20.3071 18.6773 18.6773 20.3071 16.6667 20.3071C14.6561 20.307 13.0263 18.6772 13.0263 16.6667C13.0263 14.6561 14.6561 13.0263 16.6667 13.0263Z" fill="var(--fill-0, #FFC413)"/>
<path fill-rule="evenodd" clip-rule="evenodd" d="M21.6024 0C24.3725 0.000148582 26.6179 2.24568 26.6181 5.01573V6.63384H28.2362C31.0066 6.63386 33.252 8.88055 33.252 11.6509C33.2518 14.4189 31.0102 16.6631 28.243 16.6667C31.0102 16.6702 33.2531 18.9144 33.2533 21.6824C33.2533 24.4527 31.0066 26.6995 28.2362 26.6995H26.6181V28.3176C26.6178 31.0876 24.3724 33.3332 21.6024 33.3333C19.0488 33.3333 16.9403 31.4246 16.626 28.9564C16.3117 31.4245 14.2044 33.3332 11.6509 33.3333C8.88074 33.3333 6.63417 31.0877 6.63384 28.3176V26.6995H5.01573C2.24562 26.6992 3.21439e-05 24.4526 0 21.6824C0.000241754 18.9144 2.24309 16.6702 5.01031 16.6667C2.24311 16.6631 0.000198819 14.4189 0 11.6509C-1.21088e-07 8.88075 2.24564 6.63419 5.01573 6.63384H6.63384V5.01573C6.6341 2.24559 8.88073 0 11.6509 0C14.2041 0.000163546 16.3114 1.90784 16.626 4.37554C16.9405 1.9077 19.0491 1.96786e-05 21.6024 0ZM19.789 12.1799C17.8926 10.8879 15.3987 10.8878 13.5023 12.1799L7.87625 16.0143C7.40505 16.3354 7.405 17.0305 7.87625 17.3516L13.5023 21.1846C15.3988 22.4769 17.8925 22.4769 19.789 21.1846L25.415 17.3516C25.8863 17.0305 25.8863 16.3354 25.415 16.0143L19.789 12.1799Z" fill="var(--fill-0, #FFC413)"/>
</g>
</svg>
