<svg preserveAspectRatio="none" width="100%" height="100%" overflow="visible" style="display: block;" viewBox="0 0 16 16" fill="none" xmlns="http://www.w3.org/2000/svg">
<path id="Vector" d="M13.9912 7.74512C13.991 4.296 11.1943 1.5 7.74512 1.5C4.29611 1.50018 1.50018 4.29611 1.5 7.74512C1.5 11.1943 4.296 13.991 7.74512 13.9912C11.1944 13.9912 13.9912 11.1944 13.9912 7.74512ZM6.99512 10.5439V7.74512C6.99529 7.33116 7.33116 6.99529 7.74512 6.99512C8.15922 6.99512 8.49494 7.33105 8.49512 7.74512V10.5439C8.49494 10.958 8.15922 11.2939 7.74512 11.2939C7.33116 11.2938 6.99529 10.9579 6.99512 10.5439ZM7.75195 4.19727C8.16617 4.19727 8.50195 4.53305 8.50195 4.94727C8.50195 5.36148 8.16617 5.69727 7.75195 5.69727H7.74512C7.33105 5.69709 6.99512 5.36137 6.99512 4.94727C6.99512 4.53316 7.33105 4.19744 7.74512 4.19727H7.75195ZM15.4912 7.74512C15.4912 12.0228 12.0228 15.4912 7.74512 15.4912C3.46758 15.491 0 12.0227 0 7.74512C0.000176417 3.46769 3.46769 0.000176413 7.74512 0C12.0227 0 15.491 3.46758 15.4912 7.74512Z" fill="var(--fill-0, #707070)"/>
</svg>
