<svg version="1.2" xmlns="http://www.w3.org/2000/svg" viewBox="0 0 2120 2120" width="96" height="96">
	<style>
		.s0 { fill: #ec1e24 } 
		.s1 { fill: #e51d25 } 
		.s2 { fill: #0f8945 } 
		.s3 { fill: #0a7e40 } 
	</style>
	<g id="_Artboards_">
	</g>
	<g id="Layer 1">
		<g id="&lt;Group&gt;">
			<path id="&lt;Path&gt;" class="s0" d="m1141.12 574.61l-85.01 53.22c-20.3 10.36-40.1 22.84-60.16 30.45-49.08 18.59-96.03 40.49-147.89 59.18-54.93 18.09-54.19 13.65-66.34 49.66-6.4 17.8-18.35 39.63-17.9 58.38-12.06 66.85-20.4 114.97 3.28 189.1 2.69 8.89 3.96 14.2 8.36 19.43 2.58 6.12 7.4 14.5 10.07 19.59l14.59 23.44c4.02 5.55 3.11 4.08 6.38 10.26 2.99 5.45 4.22 7.29 8.61 12.53 25.19 33.02 7.94 56.12 129.82 68.81 61.46 6.39 80.86 6.35 136.09-7.21 8.64-3.75 15.56-7.65 25.89-10.91 9.99-3.29 16.25-7.59 25.64-11.97 40.4-18.31 72.77-51.87 100.64-85.47 22.49-27.49 69.69-96.14 83.16-127.53 3.94-9.36 3.95-13.51 8.57-22.81 40.75-82.03 73.22-220.2 71.51-315.97-0.38-35.37-1.11-62.81-4.49-95.67-1.3-12.93-4.7-29.51-7.89-44.68l-0.38-3.5q-0.68-4.22-1.53-6.37c-1.46-7.06-9.65-40.34-7.8-45.72-1.49-6.71-0.26-20.81-16.5-9.4-9.48 5.41-71.09 72.45-90.28 89.84-45.75 40.01-84.95 68.47-126.44 103.32z"/>
			<path id="&lt;Path&gt;" class="s0" d="m1098.99 218.94c0.76 3.19 5.08 13.27 7.01 18.98 2.46 7.49 3.07 12.39 11.58 14.17 26.3 4.37 53.01 19.86 70.35 35.57 11.57 10.37 37.67 44.86 24.14 68.97-2.86 4.95-45.47 40.73-75.22 64.13-29.76 23.39-63.1 40.23-92.59 64.69-0.38 0.31-1.13 0.94-1.5 1.25l-48.74 34.56c-23.67 13.19-67.49 58.91-99.45 83.85-14.12 10.89-39.7 46.08-53.13 65.01-6.65 8.77-13.34 17.89-8.73 20.72 14.72 9.94 119.11-42.99 135.73-50.89 92.55-44.26 157.09-89.22 237.84-153.21 22.74-18.46 45.15-41.11 66-57.66 20.46-16.23 31.74-34.3 53.84-57.32 23.96-24.59 47.84-64.09 62-95.42 11.22-25.35 20.03-50.92 14.37-85.36-17.92-108.62-139.96-139.34-234.27-130.57-39.45 3.49-100.28 21.76-139.75 45.34-5.49 3.34-36.59 26.26-30.6 33.02 10.36 12.34 39.77 20.79 53.78 31.01 19.95 13.52 41.49 24.75 47.34 49.16z"/>
			<path id="&lt;Path&gt;" class="s1" d="m439.19 941.01l30.52 23.44c74.07 44.56 58.38 41.81 128.59 90.88 8.81 6.31 28.69 16.7 41.95 19.59 12.23 2.8 5.87 0.17 15.08 5.82 28.94 17.76 78.14 29.67 114.33 31.78l-25.27-47.93c-9.61-12.97-1.61-5.34-11.69-24.93l-17.57-52.8c-9.67-20.24-6.17-76.41-3.66-97.32 3.84-36.05 21.13-123.23 42.07-152.94 4.33-5.86 10.5-17.1 13.07-22.76l13.34-25.87c18.92-30.22 49.31-57.02 63.52-92.86 12.01-30.48-182.26-127.07-214.23-145.8-26.4-15.11-88.44-34.72-121.84-25.15-14.23 12.27 34.44 81.98 32.68 145.92 4.39 29.14-2.94 65.57-2.13 96.13 0.41 19.09 10.22 117.3 15.07 133.31 3.51 11.39 4.85 27.79 9.11 38.56 10.48 26.89 35.39 78.95 52.17 101.2 8.69 11.49 17.96 24.43 27.6 37.05 11.21 14.48 80.59 81.15 79.56 97-41.1-25.41-67.26-51.24-97.02-87.44-40.43-48.9-65.43-64.24-91.12-123.3-22.82-52.22-29.51-102.69-32.92-159.11l3.76-130.63c-26.92 6.66-49.76-1.56-78.75 17.05-30.05 18.86-21.34 42.14-24.75 73.37-2.54 21.25-12.86 20.36-29.98 37.92-6.81 6.68-9.21 10.28-15.02 17.4-25.11 29.69-35.21 50.29-18.33 95.06 29.24 78.08 48.72 81.16 101.86 127.36z"/>
			<path id="&lt;Path&gt;" class="s1" d="m1268.75 1062.43c-4.75 6.86-14.98 12.9-9.37 24.13 8.85 17.75 119.97 26.73 177.21 1.92 37.41-15.8 92.47-63.32 107.31-106.37 9.97-23.04 70.14-117.23 81.68-130.43 22.34-25.77 61.14-61.54 100.8-67.44 16.21-3.1 24.63-8.25 44.06-8.64 19.06-0.07 28.69 0.76 45.93-2.24-2.54-10.61-6.97-15.5-11.71-20.76l-60.83-81.17c-3.53-7.24-11.77-20.08-16.42-26.38-37.6-53.51-42.4-74.02-99.23-121.58-10.98-9.27-42.29-27.59-55.97-33.63-27.67-12.45-105.8-38.31-140.26-36.46-8.68 0.28-8.4 1-10.78 8.41-3.77 11.46-1.41 32.1 0.9 45.47 7.36 46.72 5.92 111.03 1.25 156.7-4.34 41.89-28.75 163.1-47.32 193.36-1.99 18.88-26.23 70.47-36.6 90.01-6.63 12.58-14.59 24.36-21.35 38.32-18.57 38.23-27.57 46.11-49.3 76.78z"/>
			<path id="&lt;Path&gt;" class="s0" d="m377.2 272.16c-3.82 20.11 22.96 78.57 54.08 103.1 23.67 18.69 27.82 18.71 63.48 11.07 28.57-5.83 44.25 1.08 73.34 1.19 34.76 2.68 29.96 14.04 66.27 14.78 10.36-11.57 23.33-21.18 21.35-38.33-2.71-24.49-28.8-63.14 0.67-95.22 28.29-30.45 38.5-40.3 72.07-63.7 42.76-29.54 82.64-42 130.95-51.66 19.4-8.01 51.7-12.82 72.03-15.55 8.06-1.03 13.99-1.55 21.45-3.68 14.55-3.93-9.85-26.15-13.39-29.22-26.25-24.81-54.71-40.11-95.18-40.86-38.41 7.4-7.07-2.35-56.86 12.37-62.58 18.46-71.18 41.62-183.42 33.58-85.05-6.02-165.72 5.31-212.06 79.92-5.29 21.02-29.86 60.46-14.78 82.21z"/>
			<path id="&lt;Path&gt;" class="s0" d="m970.39 307.18l-27.13 29.16c-9 15.85 5.6 27.17 5.63 26.82 0.4-0.65 1.29 1.16 1.91 1.9 9.48 2.56 25.91 16.81 33.55 20.59 22.72 9.6 52.84 49.64 75.4 49.18 14.22-0.15 57.28-33.12 66.56-48.25l22.68-17.77c29.72-23.05 42.03-25.1 22.43-50.71-22.05-29.29-48.13-36.06-94.89-40.14-35.76-3.11-79.52 2.09-106.14 29.22z"/>
			<path id="&lt;Path&gt;" class="s2" d="m1113.77 1171.23l-24.83 10.66c-1.68 19.26 8.4 22.9 21.15 31.64 3.26 2.36 33.95 19.93 36.3 20.83 11.39 4.45 37.71 8.48 51.06 10.33 38.19-0.83 113.88 1.25 147.03 10.38 3.38 0.98 29.68 13.32 32.28 15.28 3.29 2.02 17.7 19.56 30.35 9.57 17.75-48.69-51.06-113.92-76.47-132.42-36.48-26.73-82.55-54.65-107.35-44.34-14.36 5.68-76.04 53.67-109.52 68.07z"/>
			<path id="&lt;Path&gt;" class="s2" d="m697.4 1254.16l-14.22 16.08c-18.18 17.82-27.57 46.11-29.6 73.3-3.03 22.95 40.74-2.34 62.84-9.43 45.22-22.04 85.17-19.26 134.3-26.41 38.49-0.46 58.36-33.72 69.37-48.7 56.61-77.18 18.36-67.69-33.79-77.43-52.51-9.77-24.83-13.25-66.22-15.47-9.74 0.54-7.34 0.75-14.6 4.62-4.34 2.05-10.8 4.6-15.88 7.28-33.37 17.19-34.85 14.29-56.74 34.9-1.15 1.29-33.1 38-35.46 41.26z"/>
			<path id="&lt;Path&gt;" class="s0" d="m954.89 282.27l14.21-11.93c29.48-20.3 99.85-12.78 109.04-18.91-6.1-77.1-114.98-95.93-173.69-86.15-23.23 4.22-46.12 16.43-65.8 19.57-68.6 20.01-117.63 53.85-154.24 96.39-19.63 14.57-8.53 34.25-4.3 45.36 0.26 1.06 0.85 2.15 1.11 3.21 8.58 28.81 15.93 23.91 42.72 10.65 15.99-12.47 57.99-17.47 88.78-16.87 25.9 0.87 74.88 19.34 96.51 5.63 14.31-9.14 11.77-27.73 45.66-46.95z"/>
			<path id="&lt;Path&gt;" class="s0" d="m771.29 489.05c7.52 5.16 17.19 9.47 22.76 13.07l84.66 58.3c14.37-1.87 61.52-34.14 75.23-44.38l52.79-37.32c18.68-11.54 24.45-14.16 11.26-29.86-5.33-6.35-44.24-32.95-54.14-38.66-24.77-13.94-27.24-29.4-67.45-45.02-25.79-10.22-32.14-12.85-63.77-15.6-47.14-3.76-92.6 13.07-129.98 36.49-17.58 10.94-30.62 33.36-9.84 49.38 25.32 19.53 50.28 35.21 78.48 53.6z"/>
			<path id="&lt;Path&gt;" class="s2" d="m955.62 1973c-106.1-273.57-315.02-189.91-404.23-263.5-48.89 223.36 215.85 429.68 374.1 366.89-11.75-16.26-12.68-29.51-28.08-43.67-32.67-30.56-36.47-18.76-80.89-29.91-33.59-8.12-64.44-19.81-93.31-34.45 31.34 6.19 65.45 20.25 98.91 17.96 20.03 0.71 9.52-9.91-8.82-18.09-33.28-15.71-85.27-55.23-129.47-108.62 31.63 26.66 99.11 79.3 127.06 84.51 2.89-29.2 1.82-24.79-23.5-60.25 35.09 26.61 37.83 46.95 47.11 63.69 6.7 18.6 19.48 34.96 32.09 33.28 3.95 2.43 14.97-8.74 4.03-50.23 18.78 15.15 16.39 70.37 19.65 72.73 22.62 14.79 32.17 28.44 50.27 55.31 16.75-17.25 17.86-53.88 15.08-85.65z"/>
			<path id="&lt;Path&gt;" class="s3" d="m985.44 1204.75q31.91-2.42 63.82-4.83c152.67 562.41-158.23 1208.49-279.97 1584.18-47.44-16.26-63.24-21.79-110.67-38.04 147.3-327.05 482.61-955.06 326.82-1541.31z"/>
			<path id="&lt;Path&gt;" class="s2" d="m1093.24 1677.69c64.2-92.81 162.31-69.71 305.86-94.98 61.58-10.92 93.27-44.54 79.19 17.64-10.87 49.29-15.12 82.17-48.76 118.39-42.45 45.85-86.83 93.95-144.62 113.17-84.23 28.35-172.3 25.19-229.12-18.56 15.61-12.15 20.15-24.57 38.65-34.05 39.88-20.43 40.56-8.25 86.12-6.36 34.54 1.27 67.37-1.76 99.06-7.66-31.63-2.75-68.37 1.33-99.97-9.74-19.3-5.15-6.2-12.32 13.47-15.46 36.51-5.48 97.14-29.3 154.26-68.68-37.87 17.15-116.89 49.42-145.4 46.59 5.29-28.99 5.25-24.49 39.14-51.68-40.9 16.19-49.11 34.87-62.41 48.27-11.78 15.95-28.45 28.35-40.47 23.15-4.27 1.36-11.73-12.46 10.19-49.35-22.31 9.49-34.98 63.47-38.88 64.52-25.65 8.16-19.19 5.6-25.55 10.94-11.33-21.08-2.34-56.67 9.24-86.15z"/>
		</g>
	</g>
</svg>
