<svg width="312" height="312" viewBox="0 0 312 312" fill="none" xmlns="http://www.w3.org/2000/svg">
<path fill-rule="evenodd" clip-rule="evenodd" d="M202.573 0C228.5 0.00139073 249.517 21.0196 249.52 46.9473V62.0928H264.665C290.596 62.093 311.613 83.122 311.613 109.053C311.611 134.961 290.63 155.966 264.729 156C290.63 156.033 311.623 177.039 311.625 202.947C311.625 228.878 290.596 249.907 264.665 249.907H249.52V265.053C249.517 290.98 228.5 311.999 202.573 312C178.671 312 158.935 294.135 155.993 271.032C153.052 294.133 133.327 311.998 109.427 312C83.498 312 62.4701 290.981 62.467 265.053V249.907H47.3215C21.3932 249.905 0.374568 228.876 0.374268 202.947C0.37653 177.039 21.3696 156.033 47.2708 156C21.3697 155.966 0.376129 134.961 0.374268 109.053C0.374266 83.1239 21.3934 62.096 47.3215 62.0928H62.467V46.9473C62.4694 21.0187 83.4979 0 109.427 0C133.325 0.00153079 153.049 17.8574 155.993 40.9551C158.938 17.8561 178.673 0.000184192 202.573 0ZM185.599 114.004C167.849 101.91 144.506 101.91 126.756 114.004L74.0959 149.894C69.6856 152.9 69.685 159.405 74.0959 162.411L126.756 198.288C144.507 210.384 167.848 210.383 185.599 198.288L238.259 162.411C242.67 159.405 242.67 152.9 238.259 149.894L185.599 114.004Z" fill="#FFC413"/>
</svg>
