<svg preserveAspectRatio="none" width="100%" height="100%" overflow="visible" style="display: block;" viewBox="0 0 24 24" fill="none" xmlns="http://www.w3.org/2000/svg">
<g id="Subtract">
<path d="M12.001 10.3789C13.4484 10.3792 14.622 11.5526 14.6221 13C14.6221 14.4475 13.4484 15.6208 12.001 15.6211C10.5534 15.6211 9.37988 14.4476 9.37988 13C9.37991 11.5524 10.5534 10.3789 12.001 10.3789Z" fill="var(--fill-0, #EF5A2C)"/>
<path fill-rule="evenodd" clip-rule="evenodd" d="M15.5547 0C17.5489 0.000370807 19.1658 1.61705 19.166 3.61133V4.77637H20.3311C22.3255 4.77665 23.9424 6.39416 23.9424 8.38867C23.9422 10.3815 22.3281 11.9972 20.3359 12C22.3281 12.0028 23.9432 13.6185 23.9434 15.6113C23.9433 17.6058 22.3255 19.2234 20.3311 19.2236H19.166V20.3887C19.1658 22.3829 17.5489 23.9996 15.5547 24C13.7161 24 12.198 22.6257 11.9717 20.8486C11.7454 22.6255 10.2279 23.9996 8.38965 24C6.39511 24 4.77758 22.3832 4.77734 20.3887V19.2236H3.6123C1.61782 19.2234 2.31436e-05 17.6059 0 15.6113C0.000174063 13.6184 1.616 12.0025 3.6084 12C1.61601 11.9974 0.00014315 10.3816 0 8.38867C-8.71721e-08 6.39414 1.61784 4.77662 3.6123 4.77637H4.77734V3.61133C4.77753 1.61682 6.3951 0 8.38965 0C10.2277 0.000360921 11.7452 1.3738 11.9717 3.15039C12.1982 1.37358 13.7163 1.41685e-05 15.5547 0ZM14.249 9.76953C12.8837 8.83934 11.088 8.83947 9.72266 9.76953L5.67188 12.5303C5.33261 12.7615 5.33257 13.2619 5.67188 13.4932L9.72266 16.2529C11.0881 17.1831 12.8837 17.1833 14.249 16.2529L18.2998 13.4932C18.6387 13.2619 18.6387 12.7615 18.2998 12.5303L14.249 9.76953ZM11.9717 6.32715C10.0277 6.32719 8.30903 7.60568 7.26563 9.56445C7.23623 9.61963 7.22073 9.68325 7.2207 9.74805C7.2207 10.089 7.61525 10.2572 7.83398 10.0283C8.88119 8.93273 10.348 8.25198 11.9717 8.25195C13.5954 8.25195 15.0622 8.93272 16.1094 10.0283C16.3281 10.2572 16.7226 10.089 16.7227 9.74805C16.7227 9.68327 16.7071 9.61964 16.6777 9.56445C15.6343 7.6058 13.9156 6.32715 11.9717 6.32715Z" fill="var(--fill-0, #EF5A2C)"/>
</g>
</svg>
