<svg width="20" height="20" viewBox="0 0 17 17" fill="none" xmlns="http://www.w3.org/2000/svg">
<path id="Vector" d="M3.73009 7.79929C3.16493 7.23412 2.88235 6.55592 2.88235 5.76469C2.88235 4.97346 3.16493 4.29526 3.73009 3.73009C4.29526 3.16493 4.97346 2.88235 5.76469 2.88235C6.55592 2.88235 7.23412 3.16493 7.79929 3.73009C8.36446 4.29526 8.64704 4.97346 8.64704 5.76469C8.64704 6.55592 8.36445 7.23412 7.79929 7.79929C7.23412 8.36445 6.55592 8.64704 5.76469 8.64704C4.97346 8.64704 4.29526 8.36446 3.73009 7.79929ZM1.6955 9.83389C2.56585 10.7042 3.60011 11.2411 4.79826 11.4446C5.99641 11.6481 7.1437 11.4842 8.24012 10.9529L8.47749 11.1903V12.9536C8.47749 13.0892 8.50303 13.2106 8.55412 13.3178C8.60521 13.4249 8.67575 13.524 8.76572 13.6148C8.8557 13.7057 8.95449 13.7765 9.0621 13.8271C9.1697 13.8778 9.29133 13.9031 9.42697 13.9031H11.1903L11.4446 16.0225C11.4559 16.1468 11.49 16.2655 11.547 16.3785C11.604 16.4915 11.6829 16.5876 11.7837 16.6667C11.8845 16.7459 11.9919 16.8026 12.1059 16.837C12.2198 16.8713 12.3385 16.8824 12.4619 16.8702L15.7342 16.6498C15.8586 16.6385 15.9745 16.6075 16.0821 16.5569C16.1897 16.5062 16.2885 16.4355 16.3785 16.3446C16.4685 16.2537 16.5334 16.1549 16.5731 16.0482C16.6129 15.9415 16.6328 15.8312 16.6328 15.7173V14.327C16.6328 14.1913 16.6075 14.0643 16.5569 13.9458C16.5062 13.8273 16.4355 13.7227 16.3446 13.6318L10.9529 8.24012C11.4503 7.20021 11.6169 6.07825 11.4527 4.87422C11.2886 3.67019 10.749 2.61061 9.83389 1.6955C8.70355 0.565166 7.34716 -6.28815e-08 5.76469 0C4.18223 6.28815e-08 2.82583 0.565166 1.6955 1.6955C0.565166 2.82583 6.28815e-08 4.18223 0 5.76469C-6.28815e-08 7.34716 0.565166 8.70355 1.6955 9.83389Z" fill="#707070"/>
</svg>
