<svg width="14" height="18" viewBox="0 0 14 18" fill="none" xmlns="http://www.w3.org/2000/svg">
<path fill-rule="evenodd" clip-rule="evenodd" d="M7 0C9.76142 0 12 2.23858 12 5V7H13C13.5523 7 14 7.44772 14 8V17C14 17.5523 13.5523 18 13 18H1C0.447716 18 0 17.5523 0 17V8C0 7.44771 0.447715 7 1 7H2V5C2 2.23858 4.23858 0 7 0ZM7.00098 10C6.04931 10 5.27734 10.772 5.27734 11.7236C5.27751 12.3362 5.59838 12.8723 6.08008 13.1777V14.5791C6.08008 15.0877 6.49238 15.5 7.00098 15.5C7.50957 15.5 7.92188 15.0877 7.92188 14.5791V13.1777C8.40318 12.8722 8.72346 12.3359 8.72363 11.7236C8.72363 10.7721 7.95242 10.0003 7.00098 10ZM7 2.5C5.61929 2.5 4.5 3.61929 4.5 5V7H9.5V5C9.5 3.61929 8.38071 2.5 7 2.5Z" fill="#5968fb"/>
</svg>
