<svg width="20" height="20" viewBox="0 0 16 15" fill="none" xmlns="http://www.w3.org/2000/svg">
<path id="Vector" d="M6.335 14.4517L9.5025 11.2842H14.2537C14.6893 11.2842 15.0623 11.4394 15.3727 11.7498C15.6831 12.0603 15.838 12.433 15.8375 12.868C15.8375 13.3035 15.6823 13.6765 15.3719 13.9869C15.0615 14.2973 14.6888 14.4522 14.2537 14.4517H6.335ZM12.9076 4.88983L9.54209 1.56395L10.6507 0.455328C10.9543 0.151776 11.3272 0 11.7696 0C12.212 0 12.5847 0.151776 12.8878 0.455328L13.9964 1.56395C14.2999 1.8675 14.4583 2.23388 14.4715 2.66307C14.4847 3.09227 14.3395 3.45838 14.036 3.76141L12.9076 4.88983ZM0.791878 14.4517C0.567513 14.4517 0.379311 14.3757 0.227271 14.2237C0.0752308 14.0716 -0.000525176 13.8837 2.74005e-06 13.6598V11.4228C2.74005e-06 11.3172 0.0197996 11.2148 0.0593934 11.1155C0.0989871 11.0163 0.158378 10.9273 0.237565 10.8487L8.39388 2.69237L11.7593 6.05784L3.60303 14.2142C3.52385 14.2933 3.43489 14.3527 3.33617 14.3923C3.23745 14.4319 3.13503 14.4517 3.02892 14.4517H0.791878Z" fill="#707070"/>
</svg>
