<svg width="20" height="20" viewBox="0 0 16 20" fill="none" xmlns="http://www.w3.org/2000/svg">
<path id="Vector" fill-rule="evenodd" clip-rule="evenodd" d="M7.36774 0.0783555C7.48834 0.0266576 7.61818 0 7.74939 0C7.88061 0 8.01045 0.0266576 8.13105 0.0783555L14.3248 2.73349C14.6733 2.88292 14.9704 3.13136 15.1791 3.44802C15.3878 3.76468 15.4989 4.13564 15.4988 4.51488V11.16C15.4987 12.3553 15.1826 13.5293 14.5826 14.563C13.9826 15.5968 13.1201 16.4536 12.0823 17.0466L8.22986 19.2474C8.08352 19.331 7.91792 19.375 7.74939 19.375C7.58087 19.375 7.41526 19.331 7.26893 19.2474L3.41651 17.0466C2.37845 16.4534 1.51568 15.5963 0.91568 14.5622C0.315678 13.528 -0.000224244 12.3536 1.19429e-07 11.1581V4.51488C4.19862e-05 4.1358 0.111297 3.76506 0.319983 3.44859C0.528668 3.13211 0.825614 2.88382 1.17403 2.73446L7.36774 0.0783555ZM11.3403 8.43511C11.5167 8.25241 11.6144 8.00773 11.6122 7.75374C11.6099 7.49976 11.5081 7.2568 11.3285 7.0772C11.1489 6.8976 10.9059 6.79573 10.6519 6.79352C10.3979 6.79131 10.1533 6.88895 9.97056 7.0654L6.78072 10.2552L5.52822 9.00275C5.34553 8.8263 5.10084 8.72866 4.84686 8.73087C4.59287 8.73308 4.34992 8.83495 4.17032 9.01455C3.99072 9.19415 3.88884 9.43711 3.88664 9.69109C3.88443 9.94507 3.98207 10.1898 4.15852 10.3725L6.09587 12.3098C6.27752 12.4914 6.52386 12.5934 6.78072 12.5934C7.03758 12.5934 7.28392 12.4914 7.46557 12.3098L11.3403 8.43511Z" fill="#707070"/>
</svg>
