<svg width="20" height="20" viewBox="0 0 16 16" fill="none" xmlns="http://www.w3.org/2000/svg">
<g id="logo">
<g id="Union">
<path d="M8.01575 6.07654C8.80178 6.07654 9.43921 6.71397 9.43921 7.5C9.43908 8.28592 8.8017 8.92267 8.01575 8.92267C7.22985 8.9226 6.59241 8.28588 6.59229 7.5C6.59229 6.71401 7.22977 6.0766 8.01575 6.07654Z" fill="#707070"/>
<path fill-rule="evenodd" clip-rule="evenodd" d="M9.94067 1C11.0211 1.00006 11.8965 1.87626 11.8965 2.95667V3.58746H12.5281C13.6085 3.58758 14.484 4.46374 14.484 5.54413C14.4838 6.62353 13.6096 7.4986 12.5305 7.5C13.6098 7.50136 14.484 8.37707 14.484 9.45667C14.4838 10.5369 13.6084 11.4125 12.5281 11.4125H11.8965V12.0433C11.8965 13.1238 11.0211 13.9999 9.94067 14C8.94482 14 8.12246 13.2558 7.99988 12.2933C7.87728 13.2557 7.05557 13.9998 6.05988 14C4.97944 14 4.10321 13.1238 4.10321 12.0433V11.4125H3.47241C2.39213 11.4125 1.51595 10.5369 1.51575 9.45667C1.51575 8.37719 2.39012 7.50156 3.46924 7.5C2.39028 7.49841 1.51597 6.62341 1.51575 5.54413C1.51575 4.4637 2.39199 3.5875 3.47241 3.58746H4.10321V2.95667C4.10321 1.87624 4.97946 1.00003 6.05988 1C7.05556 1.0002 7.87729 1.74431 7.99988 2.70673C8.12248 1.7442 8.94484 1.00003 9.94067 1ZM9.23688 5.74646C8.49544 5.24123 7.52018 5.24122 6.77875 5.74646L4.57928 7.2453C4.39524 7.37088 4.3952 7.64185 4.57928 7.7674L6.77875 9.26624C7.52018 9.77148 8.49544 9.77146 9.23688 9.26624L11.4363 7.7674C11.6201 7.64183 11.6201 7.37089 11.4363 7.2453L9.23688 5.74646Z" fill="#707070"/>
</g>
</g>
</svg>
