<svg width="100%" height="100%" overflow="visible" style="display: block;" viewBox="0 0 17 18" fill="none" xmlns="http://www.w3.org/2000/svg">
<path id="vector" fill-rule="evenodd" clip-rule="evenodd" d="M9.8694 0.133C9.54565 -3.91155e-08 9.1344 0 8.31278 0C7.49115 0 7.08078 -3.91155e-08 6.75615 0.133C6.54255 0.220277 6.34832 0.348934 6.18464 0.511566C6.02096 0.674198 5.89105 0.867594 5.8024 1.08062C5.72015 1.27575 5.68865 1.50413 5.67553 1.83575C5.66928 2.07594 5.60209 2.3106 5.48025 2.51769C5.35842 2.72477 5.18594 2.8975 4.97903 3.01963C4.76793 3.13697 4.53063 3.19913 4.28911 3.20035C4.0476 3.20157 3.80968 3.14182 3.5974 3.02663C3.30165 2.87088 3.08728 2.78513 2.87553 2.75713C2.41229 2.69668 1.94388 2.82117 1.57178 3.10362C1.29353 3.31537 1.0879 3.66888 0.677526 4.375C0.266276 5.08112 0.0615261 5.43375 0.0151511 5.77937C-0.0460989 6.23962 0.0799011 6.70512 0.365151 7.0735C0.494651 7.2415 0.677526 7.38237 0.960151 7.55912C1.37753 7.819 1.64528 8.26175 1.64528 8.75C1.64528 9.23825 1.37753 9.681 0.961026 9.94C0.677526 10.1176 0.494651 10.2585 0.364276 10.4265C0.223897 10.6087 0.120807 10.8168 0.060901 11.0388C0.000995322 11.2609 -0.0145511 11.4926 0.0151511 11.7206C0.0615261 12.0654 0.266276 12.4189 0.677526 13.125C1.08878 13.8311 1.29353 14.1837 1.57178 14.3964C1.94278 14.679 2.41178 14.8033 2.87553 14.7429C3.08728 14.7149 3.30165 14.6291 3.5974 14.4734C3.80979 14.358 4.04787 14.2982 4.28955 14.2994C4.53123 14.3006 4.7687 14.3629 4.9799 14.4804C5.40515 14.7254 5.65715 15.176 5.67553 15.6643C5.68865 15.9968 5.72015 16.2242 5.8024 16.4194C5.9809 16.8481 6.3239 17.1894 6.75615 17.367C7.0799 17.5 7.49115 17.5 8.31278 17.5C9.1344 17.5 9.54565 17.5 9.8694 17.367C10.083 17.2797 10.2772 17.1511 10.4409 16.9884C10.6046 16.8258 10.7345 16.6324 10.8232 16.4194C10.9054 16.2242 10.9369 15.9968 10.95 15.6643C10.9675 15.176 11.2204 14.7245 11.6465 14.4804C11.8576 14.363 12.0949 14.3009 12.3364 14.2996C12.578 14.2984 12.8159 14.3582 13.0282 14.4734C13.3239 14.6291 13.5383 14.7149 13.75 14.7429C14.2138 14.8041 14.6828 14.679 15.0538 14.3964C15.332 14.1846 15.5377 13.8311 15.948 13.125C16.3593 12.4189 16.564 12.0663 16.6104 11.7206C16.64 11.4925 16.6243 11.2608 16.5642 11.0387C16.5042 10.8167 16.4009 10.6086 16.2604 10.4265C16.1309 10.2585 15.948 10.1176 15.6654 9.94088C15.248 9.681 14.9803 9.23825 14.9803 8.75C14.9803 8.26175 15.248 7.819 15.6645 7.56C15.948 7.38238 16.1309 7.2415 16.2613 7.0735C16.4017 6.89131 16.5047 6.68324 16.5646 6.46119C16.6246 6.23913 16.6401 6.00744 16.6104 5.77937C16.564 5.43462 16.3593 5.08112 15.948 4.375C15.5368 3.66888 15.332 3.31625 15.0538 3.10362C14.6817 2.82117 14.2133 2.69668 13.75 2.75713C13.5383 2.78513 13.3239 2.87088 13.0282 3.02663C12.8158 3.14198 12.5777 3.20181 12.336 3.20059C12.0943 3.19937 11.8569 3.13712 11.6457 3.01963C11.4389 2.89739 11.2666 2.72462 11.1449 2.51754C11.0232 2.31046 10.9562 2.07585 10.95 1.83575C10.9369 1.50325 10.9054 1.27575 10.8232 1.08062C10.7345 0.867594 10.6046 0.674198 10.4409 0.511566C10.2772 0.348934 10.083 0.220277 9.8694 0.133ZM8.31278 11.375C9.77403 11.375 10.9579 10.1999 10.9579 8.75C10.9579 7.30013 9.77315 6.125 8.31278 6.125C6.8524 6.125 5.66765 7.30013 5.66765 8.75C5.66765 10.1999 6.8524 11.375 8.31278 11.375Z" fill="var(--fill-0, #707070)"/>
</svg>
