<svg width="20" height="20" viewBox="0 0 19 19" fill="none" xmlns="http://www.w3.org/2000/svg">
<path id="Union" fill-rule="evenodd" clip-rule="evenodd" d="M9.37564 0C11.8616 0.0001125 14.2466 0.987707 16.0046 2.74537C17.7627 4.50345 18.7499 6.88935 18.75 9.37564C18.7499 11.8619 17.7627 14.2465 16.0046 16.0046C14.2465 17.7627 11.8619 18.7499 9.37564 18.75C6.88935 18.7499 4.50345 17.7627 2.74537 16.0046C0.987706 14.2466 0.000112881 11.8616 0 9.37564C0.000126784 6.88935 0.987286 4.50345 2.74537 2.74537C4.50345 0.987286 6.88935 0.000126785 9.37564 0ZM10.6838 16.0059C11.9891 15.7483 13.2002 15.1094 14.1548 14.1548C15.4222 12.8874 16.1335 11.168 16.1337 9.37564C16.1335 7.58345 15.422 5.86386 14.1548 4.59648C13.2003 3.64215 11.9889 3.00166 10.6838 2.74409V16.0059Z" fill="#707070"/>
</svg>
