<svg width="16" height="18" viewBox="0 0 16 18" fill="none" xmlns="http://www.w3.org/2000/svg">
<path d="M2.91667 17.5C2.38195 17.5 1.92435 17.3098 1.54389 16.9293C1.16343 16.5488 0.972874 16.0909 0.972225 15.5556V2.91667C0.696763 2.91667 0.466022 2.82333 0.280003 2.63667C0.0939849 2.45 0.000651501 2.21926 3.35249e-06 1.94444C-0.000644796 1.66963 0.0926886 1.43889 0.280003 1.25222C0.467318 1.06556 0.698059 0.972222 0.972225 0.972222H4.86111C4.86111 0.696759 4.95445 0.466019 5.14111 0.28C5.32778 0.0939816 5.55852 0.000648148 5.83334 0H9.72222C9.99769 0 10.2288 0.0933334 10.4154 0.28C10.6021 0.466667 10.6951 0.697407 10.6944 0.972222H14.5833C14.8588 0.972222 15.0899 1.06556 15.2765 1.25222C15.4632 1.43889 15.5562 1.66963 15.5556 1.94444C15.5549 2.21926 15.4616 2.45032 15.2756 2.63764C15.0895 2.82495 14.8588 2.91796 14.5833 2.91667V15.5556C14.5833 16.0903 14.3931 16.5482 14.0126 16.9293C13.6322 17.3104 13.1743 17.5006 12.6389 17.5H2.91667ZM5.83334 13.6111C6.1088 13.6111 6.33986 13.5178 6.52653 13.3311C6.7132 13.1444 6.80621 12.9137 6.80556 12.6389V5.83333C6.80556 5.55787 6.71222 5.32713 6.52556 5.14111C6.33889 4.95509 6.10815 4.86176 5.83334 4.86111C5.55852 4.86046 5.32778 4.9538 5.14111 5.14111C4.95445 5.32843 4.86111 5.55917 4.86111 5.83333V12.6389C4.86111 12.9144 4.95445 13.1454 5.14111 13.3321C5.32778 13.5187 5.55852 13.6118 5.83334 13.6111ZM9.72222 13.6111C9.99769 13.6111 10.2288 13.5178 10.4154 13.3311C10.6021 13.1444 10.6951 12.9137 10.6944 12.6389V5.83333C10.6944 5.55787 10.6011 5.32713 10.4144 5.14111C10.2278 4.95509 9.99704 4.86176 9.72222 4.86111C9.44741 4.86046 9.21667 4.9538 9.03 5.14111C8.84334 5.32843 8.75 5.55917 8.75 5.83333V12.6389C8.75 12.9144 8.84334 13.1454 9.03 13.3321C9.21667 13.5187 9.44741 13.6118 9.72222 13.6111Z" fill="#D43131"/>
</svg>
