<svg preserveAspectRatio="none" width="100%" height="100%" overflow="visible" style="display: block;" viewBox="0 0 20 20" fill="none" xmlns="http://www.w3.org/2000/svg">
<path id="Vector" d="M17.4016 16.1242C18.4114 14.9093 19.1137 13.4691 19.4492 11.9253C19.7846 10.3816 19.7433 8.77972 19.3287 7.25532C18.9141 5.73091 18.1385 4.32878 17.0674 3.16753C15.9963 2.00628 14.6613 1.12009 13.1753 0.583904C11.6893 0.047722 10.0961 -0.12267 8.53029 0.0871426C6.96451 0.296955 5.4723 0.8808 4.17988 1.78929C2.88747 2.69777 1.83287 3.90417 1.10531 5.30643C0.377745 6.7087 -0.00137995 8.26557 3.77413e-06 9.84534C0.000594858 12.1419 0.809877 14.3648 2.28586 16.1242L2.2718 16.1362C2.32102 16.1953 2.37727 16.2459 2.42789 16.3042C2.49118 16.3767 2.55938 16.4449 2.62477 16.5152C2.82071 16.7294 3.02461 16.9333 3.23649 17.1269C3.30211 17.185 3.36774 17.2417 3.43336 17.2971C3.65836 17.4916 3.89039 17.6749 4.12946 17.8469C4.16039 17.868 4.18852 17.8954 4.21946 17.9172V17.9088C5.86621 19.0677 7.83076 19.6898 9.84446 19.6898C11.8582 19.6898 13.8227 19.0677 15.4695 17.9088V17.9172C15.5004 17.8954 15.5278 17.868 15.5595 17.8469C15.7985 17.6744 16.0306 17.4911 16.2556 17.2971C16.3212 17.2413 16.3868 17.1846 16.4524 17.1269C16.6638 16.9333 16.8677 16.7294 17.0641 16.5152C17.1295 16.4449 17.197 16.3767 17.261 16.3042C17.3109 16.2459 17.3679 16.1953 17.4171 16.1355L17.4016 16.1242ZM9.84375 4.22034C10.4695 4.22034 11.0813 4.40591 11.6016 4.75358C12.1219 5.10125 12.5275 5.59541 12.767 6.17357C13.0064 6.75172 13.0691 7.38791 12.947 8.00168C12.8249 8.61545 12.5236 9.17923 12.0811 9.62173C11.6386 10.0642 11.0748 10.3656 10.461 10.4877C9.84727 10.6098 9.21108 10.5471 8.63292 10.3076C8.05476 10.0681 7.5606 9.66259 7.21293 9.14226C6.86526 8.62193 6.67969 8.01019 6.67969 7.3844C6.67969 6.54524 7.01305 5.74045 7.60642 5.14707C8.1998 4.55369 9.00459 4.22034 9.84375 4.22034ZM4.22368 16.1242C4.23587 15.201 4.61106 14.3197 5.26807 13.671C5.92508 13.0223 6.81107 12.6583 7.73438 12.6578H11.9531C12.8764 12.6583 13.7624 13.0223 14.4194 13.671C15.0764 14.3197 15.4516 15.201 15.4638 16.1242C13.9218 17.5139 11.9196 18.2829 9.84375 18.2829C7.76795 18.2829 5.76574 17.5139 4.22368 16.1242Z" fill="var(--fill-0, #707070)"/>
</svg>
