<svg preserveAspectRatio="none" width="100%" height="100%" overflow="visible" style="display: block;" viewBox="0 0 83 48" fill="none" xmlns="http://www.w3.org/2000/svg">
<defs>
  <linearGradient id="vector-top-right-gradient" x1="0%" y1="0%" x2="100%" y2="100%" gradientUnits="userSpaceOnUse">
    <stop stop-color="#3377ff"/>
    <stop offset="1" stop-color="#8b55f6"/>
  </linearGradient>
</defs>
<path id="Vector" d="M79.8281 18.6052C79.853 18.6263 79.8778 18.6472 79.9026 18.6682C81.4265 19.8822 82.2238 21.9479 82.5682 23.2947C83.1473 25.268 82.9218 27.2703 82.331 29.0252C80.0124 33.4488 77.2102 34.6877 74.672 37.0548C74.6034 37.112 74.5348 37.1693 74.4662 37.2265C72.6745 38.7222 70.7336 39.9237 68.7925 40.9227C67.8351 41.4092 67.8387 41.2467 67.563 41.3647C66.8085 41.6778 66.4298 42.0236 65.8834 42.2546C63.2296 43.3677 60.7273 44.2375 58.1202 45.0927C58.0098 45.1288 57.9059 45.162 57.8081 45.1923C55.3613 45.898 56.4593 45.1288 55.4875 45.302C53.5113 45.571 55.2792 45.7122 54.5401 46.0075C52.2804 46.4669 50.0296 46.6716 47.8156 46.831C48.3504 46.7277 48.8847 46.622 49.4253 46.513C48.4598 46.612 47.0755 46.6616 48.6713 46.3568C48.3101 46.3556 47.9731 46.3434 47.6073 46.3403C47.5261 46.5499 45.8283 46.7178 45.6846 46.8456C45.539 46.9762 46.4924 46.8678 46.4859 46.878C46.4693 46.9286 46.02 46.9788 45.4144 47.0199C44.2095 47.104 42.3994 47.1285 42.2126 47.1284C41.4616 47.1314 42.1029 46.8458 41.4685 46.9C40.3793 46.9902 41.1328 47.4498 39.6197 46.8653C39.0437 47.1114 38.9863 47.0023 38.2418 47.0232C38.1438 47.026 38.2257 47.1473 38.1828 47.1526C37.061 47.298 37.9159 47.0253 37.9093 47.013C37.7973 46.8045 36.5938 46.9536 36.339 46.9432C33.1361 46.8181 30.7952 46.7215 27.4286 46.7197C27.3171 46.7195 27.1733 46.722 27.0113 46.726C26.0637 46.7567 24.3572 46.7793 23.7518 46.697C23.0487 46.6087 23.4394 46.4836 23.0807 46.3767C22.4713 46.6679 21.8365 46.7183 20.593 46.0274C20.0504 46.0692 20.1022 45.9317 19.4326 45.5115L19.4082 45.4934C19.3626 45.4587 19.3134 45.4216 19.2605 45.3816C18.9073 45.1134 18.3858 44.7622 17.9664 44.2313C17.5952 43.7658 17.3985 43.1903 17.3992 42.7846C17.6323 43.5301 17.7728 43.6601 18.1445 44.1119C18.2541 44.2381 18.3888 44.3865 18.5705 44.5697C18.6587 44.6589 18.9952 45.033 19.4811 45.4023L19.4988 45.4154C20.5792 46.2245 22.3927 46.3386 22.2057 46.1337C22.0802 45.9909 20.8267 45.8172 20.7932 45.744C20.5936 45.501 21.2799 45.5766 21.8578 45.7489C21.7034 45.7498 21.5177 45.7399 21.3521 45.7275C22.6692 46.2157 21.8457 45.2946 22.7973 46.0916C22.9206 46.1859 22.8592 46.2634 23.0686 46.3701C23.1164 46.3398 22.8595 46.2262 23.0901 46.2341C23.3235 46.243 23.7582 46.44 23.8347 46.3049C23.9459 46.1135 22.9744 46.1158 22.9069 46.0901C22.9059 46.0912 22.905 46.0924 22.9041 46.0935C22.2773 45.9153 23.6095 46.0492 23.6734 46.024C24.0948 45.9255 23.8217 45.8141 24.4401 45.7405C24.7914 45.6997 25.6901 45.7524 26.0215 45.7322C26.3517 45.7135 25.8372 45.6164 26.0613 45.5966C26.2775 45.5768 26.5596 45.6485 26.8174 45.6219C26.9299 45.6102 26.9232 45.5036 26.9781 45.4992C26.9839 45.4987 26.9895 45.4983 26.9951 45.4979C27.5474 45.4545 27.1898 45.6772 27.7088 45.6555C28.0523 45.6415 29.1992 45.4112 28.406 45.3655C28.7846 45.3367 29.1599 45.3129 29.5369 45.2872C29.3012 45.261 29.046 45.2452 28.8163 45.2127C29.5309 45.2482 29.8486 45.0576 30.2964 45.0326C30.7421 45.0076 31.1506 45.2154 31.6404 45.0941C32.6835 44.8361 30.0871 45.017 29.7617 44.9818C29.636 44.9689 30.1132 44.7857 30.1881 44.7787C30.5191 44.7489 30.9147 44.8608 31.167 44.8481C32.079 44.8015 32.6327 44.6219 33.5006 44.5594C36.4566 44.3476 40.1213 44.0871 42.9011 43.862C43.938 43.7788 44.57 43.9114 45.0352 43.8687C45.0764 43.8649 45.1161 43.8609 45.1544 43.8569C46.1333 43.7531 46.2765 43.5931 47.1832 43.5001C48.5884 43.3574 50.5582 43.2654 51.6966 43.1091C52.489 43.0057 53.1581 42.7165 53.3548 42.6718C54.4173 42.4338 55.5343 42.1315 56.6131 41.7477C58.4712 41.0924 60.2875 40.4398 61.6707 39.8953C62.7279 39.4797 63.2866 39.4265 63.5005 39.3316C64.4148 38.9165 64.1084 38.8883 64.8511 38.5699C65.2505 38.3954 65.3835 38.4876 65.4388 38.468C65.9239 38.2896 65.9344 38.0779 66.2878 37.8954C68.3144 36.8409 70.2385 35.809 71.9447 34.4208C71.9956 34.3793 72.0324 34.367 72.0636 34.3621C72.1105 34.353 72.1447 34.36 72.1932 34.316C72.2339 34.279 72.2665 34.2467 72.2929 34.2182C72.4986 33.9971 72.3368 33.9997 72.6706 33.7087C73.4509 33.0273 74.2771 32.3612 75.1014 31.6663C75.1838 31.5967 75.2899 31.6442 75.4721 31.4842C75.6565 31.3218 75.728 31.1259 76.0129 30.8763C76.7506 30.2261 77.5409 29.6447 78.1454 28.9368C78.2442 28.8198 78.2606 28.5973 78.3788 28.4343C78.5408 28.2143 78.7137 27.9578 78.7856 27.8161C78.9705 27.3812 79.1112 26.9286 79.163 26.6058C79.2989 25.781 79.2507 25.0014 79.0384 24.3308C78.6747 23.073 78.3388 22.3247 77.7379 21.7171C77.6603 21.6383 77.5896 21.5576 77.5213 21.4788C77.2988 21.2444 77.1246 21.0261 76.9855 20.9088C76.5265 20.5249 76.8049 20.8935 76.3369 20.5183C74.0223 18.6551 71.5275 17.2911 68.9112 17.3917C67.2519 17.4373 65.4758 18.0305 63.6363 18.7622C63.0107 19.0052 62.3575 19.2963 61.5387 19.5755C61.111 19.7057 60.6959 19.8741 59.9021 19.8859C59.5183 19.8802 58.846 19.8063 58.2438 19.2682C57.6496 18.7215 57.5085 18.0895 57.4535 17.6901C57.3471 16.9196 57.2661 16.1856 57.2053 15.5199C57.1314 14.7106 57.2676 14.5504 57.2003 13.99C57.072 13.0001 56.8575 12.8436 56.6484 11.8735C56.4791 11.116 56.4241 10.2154 56.1101 9.67784C56.064 9.59788 56.0166 9.53205 55.9705 9.47893C55.5763 8.98046 55.2261 8.71612 54.7154 8.06596C54.2194 7.43316 53.5755 6.52188 52.973 5.92726C51.3961 4.33401 49.5027 3.15348 47.9205 3.26488C43.7502 3.46961 39.743 3.58471 37.6223 6.17694C36.6859 7.2323 35.8495 8.83689 35.0522 10.4429C34.5611 11.4319 34.0828 12.4947 33.5109 13.616C33.2194 14.1789 32.9145 14.7558 32.4795 15.3795C32.2491 15.6982 32.0113 16.0261 31.5576 16.4095C31.3188 16.6014 31.0259 16.8163 30.5396 16.968C30.0726 17.1241 29.3761 17.1045 28.8863 16.8778C28.2553 16.5893 27.51 16.3166 26.7971 16.0756C26.5326 15.9897 26.9957 15.9106 26.1212 15.7383C25.6508 15.6525 24.9668 15.6592 23.8836 15.5173C20.3399 15.0557 16.5645 15.2973 13.1772 16.708C10.3358 17.8303 7.97203 19.4334 6.393 21.8159C6.34245 21.8902 6.29236 21.9647 6.24275 22.0394C4.02891 25.3864 2.46706 29.5511 2.83437 33.0299C2.9861 34.4936 3.2513 35.8442 3.69329 36.3269C4.51126 37.4089 5.13413 37.9704 6.01985 38.3563C8.73462 39.4627 11.683 40.3305 14.37 41.131C14.75 41.2349 14.5562 41.6961 14.2795 41.8148C14.0388 41.7084 13.8211 41.5786 13.5756 41.4486C13.1962 41.9866 13.2563 41.859 12.0565 41.6378C11.3164 41.4924 11.8727 41.8278 11.4639 41.834C10.9324 41.8627 8.4458 41.619 8.99833 41.3428C8.83372 41.3727 8.68321 41.4021 8.5214 41.4293C7.38851 41.1899 6.27902 40.9169 5.18589 40.5731C4.55719 40.3741 3.95235 40.0756 3.40381 39.6916C3.13897 39.5023 3.04839 39.5827 2.78569 39.3639C2.25601 38.9118 1.92315 38.4285 1.57122 37.9419C1.44001 37.762 1.3164 37.5684 1.19865 37.3587C0.949644 36.8847 0.782879 36.8608 0.589951 36.1966C0.429139 35.5347 0.613998 35.521 0.285417 34.6808C0.18695 35.0658 0.0695969 34.1515 0.0341293 33.242C0.00597269 32.6882 0.0349131 32.1307 0.0472182 31.7972C0.042291 31.6664 -0.0694656 30.5408 0.0691959 29.9696C0.193527 29.3937 0.5191 28.5717 0.71284 27.7033C0.80321 27.2974 0.729839 27.0023 0.876215 26.5754C0.980429 26.2739 1.25381 25.975 1.41402 25.6107C1.56973 25.246 1.82323 24.4163 1.89364 24.2739C2.13765 23.76 1.9518 24.3679 2.12919 24.0222C2.74493 22.8264 3.53659 21.5579 4.33602 20.3918C4.65837 19.9203 4.99347 19.4701 5.32672 19.0499C5.47272 18.8669 5.16996 19.034 5.18694 19.0085C6.14322 17.7097 5.6957 18.4595 6.06661 18.2196C6.38054 17.9337 8.73472 16.0376 8.68155 15.8984C8.90007 16.0671 9.36563 15.5476 9.51681 15.4563C10.0936 15.0994 10.0852 15.3636 10.6279 15.0075C10.8286 14.8787 10.3464 14.9476 10.5768 14.8374C11.0561 14.6094 11.5654 14.5662 12.1592 14.3837C12.28 14.346 12.4043 14.3038 12.5329 14.2548C12.7237 14.1831 12.7389 14.0562 13.0828 13.9288C13.4207 13.7885 14.9085 13.4667 14.172 13.4531C15.1126 13.3642 15.2574 13.2153 16.3091 12.9958C16.574 12.9444 16.949 13.0511 17.5061 12.9134C17.6954 12.8675 17.6668 12.6979 17.957 12.6597C18.6283 12.5744 19.2705 12.6959 20.1123 12.676C21.6877 12.6403 23.3817 12.6324 24.9982 12.9456C25.4407 13.0339 25.2983 13.1798 25.9296 13.3078C26.0248 13.3251 26.8148 13.3435 27.2494 13.4732C27.513 13.5387 28.8252 14.0398 29.0861 14.1533C29.5274 14.3248 29.6557 14.1993 29.8995 14.3331C29.9145 14.3417 29.9286 14.3499 29.9417 14.358C29.7752 14.3589 29.7789 14.4743 29.7805 14.4956C29.7865 14.5151 29.7498 14.5346 29.7995 14.2834C30.038 14.3328 30.3008 13.9554 30.5641 13.9627C30.5016 13.604 30.8886 13.4292 31.0709 12.9015C31.251 12.3756 31.0069 11.7558 31.5361 11.8608C31.5927 11.6001 31.9646 10.5417 32.0379 10.3634C32.2523 9.84773 32.2582 10.1779 32.4188 9.78676C32.4476 9.71777 32.3241 9.74707 32.5377 9.31599C32.6639 9.03219 33.7219 6.94417 33.8248 6.83095C34.762 5.50543 33.4696 7.64238 33.4348 8.00243C33.3824 8.04377 33.3301 8.08478 33.2762 8.13024C32.9227 8.73724 33.2999 8.47724 33.4874 8.2185C33.6746 7.95834 33.861 7.38758 34.0546 7.18976C34.1511 7.09166 34.3427 7.29318 34.1293 7.62392C34.4001 7.29276 34.2065 7.83869 34.353 7.72886C34.4976 7.59606 35.4745 6.00579 35.3779 5.92963C35.1781 6.21441 34.9496 6.59293 34.7672 6.89576C34.3162 7.19106 34.2287 5.44613 35.4318 4.54429C35.513 4.48492 35.5782 4.44608 35.6306 4.42119C36.1502 4.20726 35.4012 5.0802 36.8218 3.49404C36.5375 3.71934 36.2973 3.91353 36.0604 4.14192C35.8973 4.03132 36.4257 3.7981 36.5946 3.57444C36.6754 3.45961 35.965 3.91991 36.4745 3.39887C37.1269 3.2066 37.3218 2.68065 38.2585 2.16638C38.0219 2.34668 37.7945 2.53726 37.5792 2.73701C39.1512 1.99774 35.8088 4.13329 38.695 2.53047C38.3464 2.71394 38.0045 2.91001 37.6842 3.14352C37.8977 3.12144 37.8143 3.53412 37.9864 3.49366C38.4274 3.39183 38.9198 3.00606 39.4065 2.81692C39.6173 2.73462 39.5185 2.86306 39.5363 2.85597C39.8253 2.74846 39.7181 2.66504 39.974 2.56391C40.2942 2.42722 41.2845 2.28372 41.4405 2.24503C41.8425 2.12417 41.1112 2.04653 41.1441 2.02408C41.3831 1.84913 41.9478 1.83538 41.8928 1.69792C40.5682 1.89935 36.9072 3.4219 40.1436 1.8469C39.1269 1.95874 39.2491 1.5048 40.692 1.08005C41.8737 0.783345 41.1408 1.08483 41.7775 1.10277C41.8614 1.0903 43.4308 0.940993 43.4988 0.843556C43.4645 1.08192 43.9812 1.23793 43.6731 1.51168C43.6269 1.55029 43.003 1.60888 43.2434 1.77619C43.3617 1.85972 43.6942 2.03732 43.6572 2.16626C43.774 2.06714 43.8951 1.95758 44.0172 1.85582C44.9439 1.74902 45.0841 1.84014 45.6017 1.96959C45.5757 1.90392 45.0873 1.64849 45.8087 1.69415C45.8469 1.69742 45.8819 1.79631 46.249 1.829C46.9883 1.89616 47.1464 1.92271 46.5922 2.24353C47.1363 2.15899 47.5263 2.14909 47.8826 2.16196C48.4244 2.20106 48.8181 2.32952 49.6628 2.53533C49.536 2.12369 49.0262 1.95282 47.8783 2.03597C47.8232 2.04084 47.7671 2.04577 47.7097 2.05074C47.644 1.96202 47.6116 1.87306 47.5442 1.78351C47.6627 1.79203 47.7712 1.80015 47.8704 1.80779C49.2156 2.02343 48.4911 1.94461 49.4547 1.96357C49.7157 1.94929 50.9333 2.54122 50.628 2.12491C50.5594 2.01121 49.7448 1.71568 49.8647 1.66456C49.8938 1.63502 50.9056 1.99945 50.9714 2.08133C51.4241 2.49149 51.1483 2.49708 51.1364 2.57623C51.113 2.67375 51.3797 2.74571 52.655 3.68173C52.7243 3.73445 52.82 3.66821 52.9612 3.76778C53.2262 3.95796 53.1429 4.05747 53.3757 4.23032C53.6068 4.40308 54.0214 4.56335 54.2077 4.99236C54.5352 5.76665 53.1554 4.52432 52.6154 3.91136C52.3694 3.9545 53.3599 4.8813 54.2826 6.02181C55.2196 7.14716 56.1152 8.44022 56.233 8.5825C57.2551 9.83028 55.682 7.66711 55.6666 7.50841C55.6683 7.43826 56.1414 7.11215 55.4306 6.79918C55.2227 6.70924 55.6207 7.45652 55.2688 7.10059C54.915 6.74744 55.1667 6.79895 55.1537 6.76304C55.1083 6.6397 54.7235 6.27074 54.6969 6.20491C54.2701 5.17298 54.759 4.8764 55.0559 6.47961C55.588 6.84377 54.9082 5.55986 55.4952 6.0785C56.2131 6.71994 56.4068 7.44173 56.4665 7.54223C57.1456 8.736 56.5929 7.33205 57.3368 8.56877C57.3646 8.61622 57.3936 8.66855 57.4235 8.72651C57.6724 9.24565 57.2969 8.73594 57.1805 8.6729C57.1564 8.65713 57.1452 8.65851 57.1558 8.68935C57.1741 8.75711 57.3156 8.95204 57.5596 9.49172C58.1956 11.1705 57.9761 10.2334 58.3152 10.2635C58.3893 10.271 58.7701 11.254 58.3301 9.89701C58.2432 9.88318 58.1218 9.84512 58.0244 9.78699C57.9717 9.45261 58.0724 8.74869 57.9732 8.56091C57.9165 8.44344 57.8568 8.34097 57.8027 8.25843C57.4847 7.77611 57.3677 7.82571 57.2728 7.33238C57.2779 7.79211 57.0533 7.19946 56.8715 7.04613C56.1936 6.48398 56.8326 7.41239 55.847 5.74935C55.9113 6.02046 55.9569 6.27011 56.0085 6.53465C55.8649 6.35682 55.7205 6.18278 55.5732 6.00958C55.5726 5.57462 54.7329 4.67112 55.6685 5.3342C54.8516 4.26393 54.3911 3.93148 54.039 3.87834C53.9711 3.86885 53.8146 3.74193 53.6363 3.58719C53.6304 3.66097 53.5498 3.83361 53.5077 3.82553C53.1384 3.75242 52.9654 3.17229 53.1808 3.18226C53.0569 3.07162 52.9587 2.98497 52.9239 2.95362C52.7034 2.75514 53.2321 3.02232 53.0686 2.84204C53.0182 2.7764 52.3232 2.30046 52.3312 2.25681C52.3742 2.10074 52.656 2.26952 52.6468 2.2577C52.6253 2.25858 52.3908 1.99736 51.1257 1.26053C50.9589 1.46631 52.1336 2.05228 51.6873 2.14173C51.2365 2.231 50.7837 1.53765 50.4797 1.8383C50.4523 1.75735 50.4493 1.69847 50.4299 1.6121C49.339 1.38548 49.3928 1.13211 49.0556 0.983756C48.836 0.896267 48.3182 0.804697 47.8364 0.818462C47.0062 0.834982 46.3221 0.927139 47.8441 1.04206C47.9077 1.04662 47.9746 1.05228 48.0447 1.0594C47.9784 1.06392 47.9119 1.06919 47.8452 1.07537C47.5173 1.10659 47.189 1.13104 46.8689 1.16476C46.7575 0.592323 47.0045 0.79623 45.1299 0.814445C44.7185 0.821775 44.5628 0.577029 44.1792 0.913367C44.212 0.607323 42.9948 0.910772 42.8737 0.897421C42.0925 0.745436 44.8435 0.115824 45.2189 0.647396C45.6653 0.415608 45.6813 0.685716 46.188 0.624961C46.9006 0.542035 47.0182 0.486666 47.8302 0.638855C47.8563 0.643094 47.8829 0.647666 47.9101 0.652598C48.1314 0.585695 48.0536 0.542345 47.8261 0.51842C47.1671 0.437294 45.1182 0.556101 47.0792 0.184722C47.2648 0.150745 47.5064 0.115853 47.811 0.0802783C51.0188 -0.63257 56.193 3.52653 58.7694 7.61445C60.9072 11.5296 60.5374 14.4472 60.8555 15.7818C60.9192 16.2996 60.9807 16.7899 61.0451 17.2539C61.0401 17.2131 61.0324 17.0918 60.9127 16.8828C60.7985 16.6693 60.5128 16.4308 60.3107 16.3559C59.8936 16.2124 59.9365 16.2948 60.0176 16.2604C60.2154 16.2225 60.6194 16.0856 60.9933 15.9394C61.7617 15.6396 62.568 15.2901 63.378 14.981C65.0071 14.3661 66.7 13.8075 68.7902 13.7176C70.0179 13.6725 71.3332 13.8298 72.6625 14.2419C72.9797 14.3269 74.3029 14.7942 75.2805 15.381C76.2686 15.955 76.9562 16.5409 76.4754 16.4104C76.3422 16.3593 74.5964 15.4718 75.8994 16.5474C75.6923 16.2383 76.5733 16.6801 76.6466 16.7175C78.3683 17.5044 77.6212 16.7931 79.8281 18.6052ZM79.7749 27.369C80.1465 25.7985 79.9601 25.5855 79.8853 25.6889C79.781 25.7941 79.5845 26.1684 79.3531 25.8574C79.3392 26.2211 79.2913 26.5907 79.2129 26.9615C79.2633 26.8701 79.3115 26.7792 79.3581 26.6854C79.3582 26.685 79.3583 26.6846 79.3583 26.6841C79.5076 26.8982 79.6465 27.1283 79.7749 27.369ZM27.7845 45.0641C27.9263 44.997 28.0566 44.9299 28.2089 44.8638C28.6793 44.8751 29.1551 44.8845 29.6249 44.8935C29.5694 44.9386 29.5161 44.9843 29.4611 45.0294C28.9009 45.0405 28.3442 45.0499 27.7845 45.0641ZM52.1971 3.66747C51.7899 3.14315 51.6611 3.42591 51.0271 2.87683C50.9992 3.13314 50.9734 3.38704 50.9354 3.6389C51.4508 3.92644 51.6205 3.93678 52.1055 4.39931C52.0935 4.29108 52.0791 4.18129 52.0659 4.07352C51.9668 4.01605 51.8606 3.95814 51.7655 3.90553C51.7514 3.62175 52.6436 4.27911 52.1991 3.66844C52.1984 3.66811 52.1977 3.66779 52.1971 3.66747ZM46.1836 2.17187C45.8232 2.15365 44.4081 2.13076 44.2251 2.25133C43.6043 2.61822 47.5369 2.14942 44.6487 2.63459C44.6654 2.68006 44.6558 2.7266 44.6594 2.77261C45.1864 2.74835 45.7148 2.73192 46.2525 2.71924C46.2148 2.53703 46.2254 2.35482 46.1836 2.17187ZM74.1864 18.0909C73.7564 17.7383 71.4391 17.0202 72.1055 17.5007C72.293 17.6181 73.3938 17.7629 73.7592 17.9868C73.9926 18.123 73.65 18.1195 74.1416 18.3274C74.1576 18.2527 74.1851 18.1755 74.1849 18.0906C74.1854 18.0907 74.1859 18.0908 74.1864 18.0909ZM75.5505 17.8C75.0531 17.5105 74.5332 17.2473 74.0069 17.0144C74.2958 17.3651 75.0582 17.6793 74.9582 17.9326C74.8166 17.8685 74.6755 17.8071 74.5329 17.7474C74.4604 17.6384 74.3877 17.5308 74.3134 17.4238C73.8163 17.3237 74.0513 17.5084 73.2633 17.0922C73.5864 17.6944 73.5548 17.8587 75.0545 18.3125C74.6987 18.3475 74.5407 19.0643 75.5023 19.1185C75.6852 19.1308 75.1833 18.7071 75.184 18.6927C75.2023 18.4814 75.5732 18.588 75.5811 18.3819C75.585 18.2873 75.2424 18.0628 75.2491 17.9379C75.2535 17.876 75.6687 17.9634 75.5505 17.8ZM75.9363 19.2121C75.7336 19.2035 76.0429 19.7565 76.4727 20.0273C77.1473 20.4556 76.3235 19.4711 75.9363 19.2121ZM27.7814 45.0644C27.7824 45.0643 27.7835 45.0642 27.7845 45.0641C27.784 45.0644 27.7835 45.0646 27.7829 45.0649C27.7824 45.0647 27.7819 45.0646 27.7814 45.0644ZM48.0159 2.23111C47.9744 2.24249 47.9307 2.25298 47.8861 2.26313C47.4794 2.34209 46.9987 2.36579 47.0447 2.49839C46.842 2.47653 46.6279 2.45613 46.4253 2.43549C46.4292 2.48105 46.4351 2.52662 46.4391 2.57172C46.9233 2.57212 47.4067 2.57648 47.8971 2.58225C48.0001 2.58485 48.1023 2.59127 48.2044 2.60138C48.1487 2.47696 48.0934 2.35298 48.0159 2.23111ZM41.4347 2.73346C40.7137 2.89228 41.364 2.9464 41.2316 3.08161C41.0995 3.21231 40.475 3.31552 40.5904 3.43229C40.9825 3.31207 41.4063 3.20993 41.8281 3.12847C41.685 2.99894 41.574 2.86064 41.4333 2.7338C41.4338 2.73368 41.4342 2.73357 41.4347 2.73346ZM69.8107 36.8069C70.2626 36.5654 70.1855 36.818 70.9095 36.0895C70.9088 36.0899 70.9082 36.0904 70.9076 36.0908C70.0508 36.5428 68.9515 37.0953 68.0802 37.7199C68.7313 37.5462 69.0944 37.1794 69.8107 36.8069ZM53.2041 5.1713C53.4462 5.22945 52.8052 4.46647 52.5608 4.42031C52.1804 4.33715 52.8489 5.07387 53.2041 5.1713ZM50.3696 45.0385C49.6137 45.517 51.1989 45.7798 52.7798 45.3145C52.9152 45.2766 51.8617 45.327 52.1561 45.2022C52.186 45.1908 52.7517 45.1055 52.8838 45.0264C53.0138 44.9484 52.8453 44.8525 53.0636 44.7595C53.446 44.5994 54.3783 44.5762 54.6477 44.3863C54.6828 44.3627 54.0933 44.3256 54.0576 44.3255C53.4696 44.35 52.9604 44.6626 52.8719 44.68C52.4152 44.7686 52.4578 44.5864 52.335 44.5667C52.1064 44.529 51.7357 44.6632 51.708 44.6615C50.9924 44.6199 52.5802 44.4189 52.7784 44.3133C53.315 44.0422 52.771 44.0038 54.0904 43.6291C54.2177 43.5934 55.7236 43.2533 53.7822 43.5017C57.3856 42.2447 51.8916 43.7262 51.2408 43.8097C50.9587 43.8919 51.4183 43.9893 51.2542 44.0873C50.8795 44.3125 50.1927 44.4312 50.2855 44.657C50.4837 45.1329 51.3489 44.6902 51.9836 44.6718C51.9344 44.7887 51.9261 44.8965 51.8208 45.0196C51.9856 44.855 50.4263 45.0072 50.3695 45.0376C50.3695 45.0379 50.3695 45.0382 50.3696 45.0385ZM59.8111 42.0319C60.6907 41.8703 60.5232 41.5982 61.3403 41.4816C61.9039 40.9664 60.6023 41.4811 60.443 41.5206C59.7192 41.7116 59.6316 41.4177 58.9464 41.7636C59.2539 41.8459 59.5169 41.9456 59.8111 42.0319ZM52.5021 44.0162C53.049 43.7594 52.0222 43.9415 51.9777 43.9151C51.4775 43.6853 54.5313 43.1917 52.5021 44.0162ZM71.4004 16.2783C71.1192 16.2018 71.265 16.3902 71.0088 16.3818C70.7576 16.3646 69.9175 16.1333 69.9281 16.237C69.9594 16.3207 71.4242 16.7661 69.911 16.6305C69.9577 16.6879 69.9368 16.7259 69.9569 16.776C70.364 16.8146 70.7724 16.8843 71.1729 16.9801C70.9884 16.7793 70.7868 16.5755 70.5843 16.3941C70.8453 16.3122 70.951 16.4948 70.963 16.4968C70.963 16.4966 70.963 16.4965 70.9631 16.4963C71.4014 16.5705 72.0266 16.4675 71.4004 16.2783ZM75.6976 32.5212C75.8787 32.868 76.1332 32.0836 76.3131 31.859C76.4967 31.6334 76.8811 31.4737 76.6622 31.4516C76.2482 31.6778 75.6776 32.4834 75.6979 32.5216C75.6978 32.5215 75.6977 32.5214 75.6976 32.5212ZM64.2578 40.2901C64.8952 39.9125 64.7478 39.8723 65.6094 39.6018C65.5393 39.533 65.4684 39.4622 65.3992 39.3945C64.7548 39.6861 64.908 39.911 64.1091 40.1395C63.9779 40.1758 64.1603 39.868 63.6269 40.1674C63.8339 40.2039 64.049 40.2499 64.2578 40.2901ZM67.3849 38.4363C66.6545 38.8291 66.3851 39.7984 67.617 38.7915C67.7983 38.6394 67.9331 38.1344 67.3849 38.4363ZM78.0383 20.0679C76.9869 19.1747 78.0338 20.1734 78.3061 20.5526C78.317 20.5682 78.3264 20.5826 78.3342 20.5957C78.3213 20.5852 78.3085 20.5749 78.2958 20.5647C76.41 19.0839 77.5055 19.9204 78.2052 20.6716C78.4234 20.9123 78.5579 21.1612 78.5313 21.281C78.8365 21.4523 79.4378 21.9114 79.0384 21.2326C78.8552 20.9592 78.8416 21.1278 78.8303 21.1116C78.5722 20.7885 78.5674 20.6625 78.4031 20.4381C78.3262 20.3393 78.2167 20.2215 78.0383 20.0679ZM58.3738 42.5648C58.4234 42.5414 58.3003 42.4487 58.4551 42.3668C58.6103 42.2851 59.0102 42.2383 59.0203 42.1509C59.0302 42.0636 58.2682 42.2688 58.0592 42.403C57.8506 42.5379 57.9251 42.7751 58.3738 42.5648ZM63.6691 40.9026C64.2981 40.5404 63.031 40.5562 62.8884 40.6137C61.6259 41.1462 63.6485 40.7547 63.6691 40.9026ZM80.6978 22.3021C79.6856 20.7171 79.9936 22.1482 80.0507 23.1977C80.1417 23.3156 80.2325 23.4405 80.3206 23.5621C79.8614 23.0586 79.2849 22.1764 80.0585 24.0313C80.0982 24.127 80.139 24.2318 80.1798 24.3478C80.1568 24.2096 80.1352 24.1003 80.1184 24.0138C80.0052 23.4533 80.1466 23.7648 80.239 23.9784C80.2716 24.0509 80.2956 24.1113 80.3002 24.1122C80.4237 24.1111 80.4891 24.0298 80.5149 23.8974C80.6254 23.3892 80.1584 22.2376 80.6984 22.3037C80.6982 22.3032 80.698 22.3027 80.6978 22.3021ZM56.1273 43.1854C55.4294 43.4207 53.5582 43.9422 54.497 43.9808C55.0546 43.7321 55.5972 43.4679 56.1273 43.1854ZM59.1761 13.105C59.2277 12.4619 59.1372 11.8817 58.9581 11.1092C58.9044 11.8477 58.786 11.3935 58.6859 11.174C58.5348 10.8408 58.726 11.687 58.7082 11.6921C58.5096 11.7147 58.391 11.1823 58.6104 12.4038C58.4936 12.1123 58.3722 11.8275 58.2446 11.5438C58.4177 12.4644 58.3144 12.7076 58.2445 13.3141C58.5405 12.691 58.4156 13.473 58.6841 14.1393C58.8196 14.4733 59.1518 13.4346 59.1758 13.1027C59.1759 13.1035 59.176 13.1043 59.1761 13.105ZM79.8046 20.5574C79.6268 20.4436 79.4377 20.3696 79.2533 20.2916C79.1198 20.1637 78.9805 20.0419 78.8354 19.9278C78.823 19.918 78.8106 19.9083 78.7981 19.8986C78.8194 19.8372 78.8454 19.7761 78.8621 19.7138C78.6813 19.5382 78.7013 19.6656 78.6394 19.6239C78.6396 19.6236 78.6398 19.6234 78.64 19.6231C77.745 19.0216 77.4135 18.7415 76.843 18.084C76.7329 18.2337 76.6229 18.3834 76.5128 18.5331C76.6742 18.6297 76.8354 18.7294 76.995 18.8302C77.1348 18.8117 77.2753 18.7943 77.4163 18.7779C77.5544 18.9561 77.6891 19.1338 77.8235 19.3139C77.9812 19.3958 78.1676 19.5005 78.3055 19.5698C78.6402 20.5226 77.3494 18.9951 77.195 19.1613C77.1267 19.2343 77.95 19.9253 78.4856 20.3407C78.6678 20.4794 78.8094 20.5959 78.877 20.6296C78.9147 20.6538 78.8997 20.0616 79.2488 20.741C79.3023 20.8689 78.6743 21.3492 79.63 21.6022C79.7677 21.6531 80.0333 21.0418 79.8046 20.5574ZM73.9256 15.9342C74.341 16.4308 73.6433 16.067 72.9943 15.8035C72.3417 15.539 71.7625 15.3447 72.5789 15.8334C72.002 15.9032 72.1113 15.9311 72.5214 16.3015C72.5568 16.3336 72.204 16.285 72.2297 16.3036C72.6399 16.5601 73.1809 16.7216 73.0978 16.9249C73.217 16.9633 73.3289 17.0019 73.4474 17.044C73.0538 16.639 73.8753 16.8543 74.2526 16.8629C74.4245 16.8637 74.1239 16.6799 74.2698 16.6779C74.3254 16.6759 74.7349 16.9552 74.7869 16.9037C74.9035 16.7837 74.7446 16.4315 74.308 16.0791C74.3081 16.0789 74.3082 16.0788 74.3082 16.0786C74.1808 16.0274 74.0547 15.9814 73.9256 15.9342ZM74.6912 34.9559C74.3568 34.8504 73.7213 35.2753 74.7434 34.2249C74.6499 34.2276 74.5566 34.2307 74.4641 34.2326C74.279 34.3954 74.1015 34.5513 73.9114 34.7171C73.9078 35.1309 73.6854 35.4127 73.4521 35.6002C73.3767 35.6607 73.3004 35.7112 73.2302 35.7529C72.9171 35.9375 72.724 35.9481 73.2845 35.9036C73.299 35.9024 73.3179 35.8946 73.3392 35.8828C73.4106 35.8437 73.5094 35.7605 73.5628 35.7322C73.5962 35.7145 73.6118 35.7181 73.592 35.767C73.5769 35.8045 73.541 35.8689 73.4761 35.9708C73.4768 35.9705 73.4775 35.9701 73.4782 35.9697C73.5351 35.9149 73.5865 35.864 73.6335 35.8166C74.0676 35.3789 74.1308 35.2337 74.6912 34.9559ZM78.5975 31.21C79.4684 29.4744 76.5166 32.7281 77.1379 32.334C77.2064 32.3071 78.4948 30.9057 78.5975 31.21ZM66.8471 40.5332C67.6137 40.173 67.5082 39.8426 67.3788 39.7741C67.2496 39.7045 66.7843 40.0707 66.7081 40.0853C66.4617 40.1343 66.9077 39.8725 66.5863 39.9321C66.4814 39.9577 65.1156 40.4553 65.0593 40.4907C64.7544 40.7132 65.3601 40.7485 65.2766 40.82C65.0026 41.0562 64.5135 41.1093 64.479 41.2839C64.4031 41.6587 65.0808 41.0088 65.2123 40.9428C65.6144 40.7478 65.6515 40.9245 65.9718 40.8173C66.2924 40.7089 66.4651 40.5606 66.7381 40.4437C66.8289 40.4047 66.8081 40.5508 66.8471 40.5332ZM68.979 38.619C68.343 39.2758 70.3368 38.4515 70.5165 38.247C71.0509 37.702 69.2827 38.3231 68.979 38.619ZM76.003 18.0665C76.7692 18.3726 75.3121 17.1769 74.7865 16.9936C74.8461 17.1032 75.7507 17.9559 76.003 18.0665ZM80.8694 22.7827C80.5642 22.0831 80.514 23.1674 80.6738 23.7417C80.7204 23.7764 80.7585 23.8009 80.7893 23.8168C80.8743 23.8632 80.9051 23.8455 80.905 23.7829C80.9058 23.6956 80.8422 23.5158 80.7883 23.3138C80.6806 22.9229 81.0919 23.3324 80.8694 22.7827ZM58.2921 43.6216C58.4443 43.5769 60.7643 42.5061 59.3565 42.9113C59.2498 42.9441 57.5841 43.5713 57.4699 43.6539C57.2414 43.8232 57.904 43.7449 58.2921 43.6216ZM81.7858 26.4649C81.5924 26.0135 81.5939 25.6167 81.3079 25.9845C81.3079 25.9851 81.3078 25.9856 81.3078 25.9862C81.2435 24.969 81.7464 24.8615 81.7148 24.622C81.5359 23.8071 81.2744 24.6442 81.0495 24.1846C81.3674 25.2771 81.0404 24.9976 81.0395 25.8239C81.042 26.0074 81.1301 26.7704 81.204 26.9002C81.2868 27.0294 81.6487 26.6797 81.7858 26.4649ZM54.8335 44.7407C55.7079 44.6229 56.3649 44.0357 55.1936 44.2885C54.6238 44.4021 54.3027 44.807 54.8335 44.7407ZM44.8725 0.898836C45.0113 0.989783 45.152 1.08072 45.3005 1.17121C44.9837 1.21487 44.6686 1.26164 44.3532 1.31232C44.6014 1.26011 44.8527 1.21064 45.101 1.16321C44.5031 1.16824 44.2129 1.0093 44.8709 0.898946C44.8714 0.898909 44.8719 0.898873 44.8725 0.898836ZM30.0887 14.41C29.8808 14.5065 29.8565 14.825 29.8678 14.8423C29.9938 14.9082 30.1925 14.7261 30.2326 14.5896C30.2865 14.4439 30.2321 14.3525 30.0887 14.41ZM75.4833 16.6491C74.5976 16.0884 74.9938 16.8649 75.4969 17.2179C75.2198 16.9373 75.9735 16.9769 75.4833 16.6491ZM33.4348 8.00243C33.513 7.94087 33.5915 7.8791 33.6749 7.80902C33.4783 8.06366 33.4191 8.09646 33.4348 8.00243ZM58.8167 43.8925C58.9719 43.8783 60.0387 43.5309 60.1654 43.4348C60.4278 43.2367 59.5149 43.2819 59.0589 43.5302C59.0084 43.5576 58.6623 43.9074 58.8189 43.8917C58.8182 43.892 58.8174 43.8923 58.8167 43.8925ZM43.4998 0.83019C43.5021 0.834628 43.5016 0.839146 43.4988 0.843556C43.4995 0.839118 43.4987 0.834689 43.4998 0.83019ZM8.66174 15.8847C8.67134 15.8875 8.67832 15.892 8.68155 15.8984C8.67562 15.8938 8.66731 15.8904 8.66174 15.8847ZM66.3794 41.3497C66.9214 41.6116 67.6134 41.0031 66.886 41.0985C66.8457 41.1049 66.4639 41.3122 66.3794 41.3497ZM26.6084 33.2334C27.5661 33.3753 28.6293 33.4765 29.5814 33.7017C29.6986 33.7293 29.6706 33.8609 29.7013 33.8835C29.7857 33.9457 29.8632 33.7972 29.9278 33.8186C30.242 33.9226 30.5402 33.9903 30.8492 34.0879C31.1674 34.1882 30.9518 34.5782 31.0503 34.6957C31.2427 34.9258 31.1344 34.3592 31.2394 34.2512C31.4878 34.3212 31.736 34.4176 31.9816 34.5144C31.9119 34.5554 31.8425 34.5955 31.7729 34.6328C31.882 34.6603 32.0287 34.7669 31.8219 34.8802C31.8572 34.925 31.8889 34.976 31.9256 35.0201C31.9662 34.8257 32.1653 34.839 32.2002 34.7254C32.2353 34.6117 32.1211 34.6221 32.1233 34.6121C32.1517 34.4682 32.5754 34.7332 32.6062 34.7542C32.686 34.8099 32.5746 35.0419 32.6502 35.0371C32.7805 35.0289 32.7691 34.5217 32.8434 35.2047C32.943 35.0011 32.9326 35.1129 33.0169 35.1404C33.028 35.144 33.0373 35.0189 33.0428 35.0164C33.1868 34.9438 33.0527 35.1591 33.0516 35.1717C33.0322 35.3852 33.1859 35.3116 33.2125 35.3363C33.5459 35.6437 33.7922 35.8548 34.1743 35.9707C34.2569 35.9956 34.5273 35.9474 34.6035 35.9954C34.6789 36.0427 34.6133 36.189 34.6448 36.2684C34.7662 35.9113 34.8367 35.8803 34.9534 36.1443C35.0491 35.8849 35.0102 36.0998 35.1263 36.0621C35.223 36.0309 35.4272 35.7328 35.4865 36.0211C35.3763 35.9794 35.3688 36.1127 35.229 36.1733C35.1825 36.1934 34.7369 36.1339 34.7299 36.4124C34.7263 36.5576 34.893 36.4482 34.8949 36.4753C34.9057 36.6334 34.7957 36.8097 34.7324 36.733C34.7551 36.7048 34.7816 36.6766 34.8057 36.6485C34.6698 36.4329 34.6747 37.1853 34.6444 36.524C34.6406 36.4428 34.6586 36.3615 34.6455 36.2739C34.6352 36.3078 34.6536 36.3983 34.6247 36.4098C34.5951 36.4213 34.5672 36.2506 34.5394 36.387C34.4986 36.5852 34.623 36.523 34.6298 36.5359C34.6301 36.5347 34.6304 36.5335 34.6306 36.5323C34.6903 36.6495 34.5315 36.6386 34.5213 36.6565C34.4545 36.7739 34.4735 36.8747 34.3856 36.967C34.3356 37.0195 34.2345 36.9694 34.1927 36.9826C34.151 36.9963 34.1976 37.0998 34.1684 37.1163C34.1393 37.1328 34.1173 37.0561 34.0831 37.0752C34.0685 37.0836 34.0537 37.1892 34.0468 37.192C33.9727 37.2226 34.0496 37.0097 33.9858 37.014C33.9445 37.017 33.7803 37.2019 33.8638 37.2764C33.8162 37.2911 33.7707 37.3003 33.7239 37.3104C33.7473 37.3459 33.7729 37.3715 33.7948 37.4124C33.719 37.3499 33.6545 37.5249 33.6002 37.5307C33.5459 37.5364 33.5308 37.3128 33.4578 37.4101C33.3021 37.6169 33.6213 37.5576 33.6533 37.6033C33.6657 37.6213 33.5842 37.7827 33.5748 37.7863C33.533 37.8018 33.5051 37.6738 33.4745 37.6748C33.3649 37.6795 33.2762 37.8301 33.17 37.8475C32.8073 37.9065 32.3652 37.9325 32.032 37.9192C31.9077 37.914 31.8609 37.7231 31.8054 37.7201C31.6756 37.7132 31.6368 37.8678 31.5234 37.8595C31.3544 37.8478 31.1412 37.6762 31.0058 37.6259C30.9125 37.5912 30.803 37.7301 30.7774 37.7301C30.4213 37.7329 29.9977 37.666 29.7099 37.6247C29.5737 37.6052 29.5348 37.4249 29.506 37.4257C29.3824 37.4288 29.3927 37.5795 29.2976 37.5501C29.2462 37.5343 29.2575 37.3929 29.2513 37.3863C29.1959 37.3308 29.1558 37.5117 29.1063 37.5104C28.8222 37.5028 28.5705 37.3422 28.2982 37.2827C28.2783 37.2782 28.2924 37.1976 28.2788 37.1997C28.2197 37.211 28.2263 37.3425 28.1664 37.3428C28.0416 37.344 27.9214 37.3041 27.7951 37.2681C27.7826 37.2646 27.7928 37.1596 27.7636 37.1551C27.7343 37.1506 27.6969 37.2458 27.6519 37.2332C27.5339 37.2004 27.4363 37.0645 27.3091 37.0382C27.2882 37.034 27.2427 37.1553 27.2114 37.149C27.1128 37.1295 26.9863 36.9933 26.9014 36.9757C26.6239 36.9192 26.3545 36.9499 26.0929 36.9093C26.031 36.8994 25.9941 36.7745 25.9624 36.7667C25.8907 36.7491 25.928 36.8675 25.8544 36.8562C25.2539 36.7632 24.6592 36.6153 24.0503 36.5219C23.8095 36.4848 23.4989 36.5484 23.2744 36.4773C23.1806 36.4474 23.1885 36.2929 23.1207 36.2797C22.9993 36.2566 22.9455 36.447 22.8126 36.4435C22.7063 36.4403 22.6246 36.2263 22.5165 36.2192C22.4068 36.2118 22.3235 36.3907 22.1977 36.391C22.0944 36.3911 21.966 36.2795 21.8553 36.2731C21.6187 36.2589 21.3828 36.2413 21.1511 36.2184L21.0537 36.1967C20.2667 36.0763 19.499 35.8947 18.7559 35.5633C18.4152 35.4115 18.0144 35.3219 17.7048 35.0304C17.6755 35.0029 17.782 34.8429 17.6609 34.846C17.5958 34.8478 17.4684 34.9746 17.3275 34.9385C16.4994 34.7259 15.7482 34.1069 14.9112 33.8459C14.2865 33.6533 13.5107 33.6969 12.8938 33.5164L13.1762 33.6234C12.5744 33.5508 12.1153 33.2671 11.8066 32.2087C11.7888 32.1792 11.7969 32.1362 11.7338 32.0528C11.7132 32.0368 11.6832 32.0209 11.6061 31.9684C11.5664 31.9391 11.5108 31.9052 11.4218 31.8039C11.3782 31.7522 11.324 31.6796 11.2794 31.5662C11.2103 31.4168 11.1991 31.1163 11.3063 30.9231C11.5375 30.5378 11.7169 30.5615 11.7863 30.5261C11.8652 30.5069 11.8994 30.5087 11.9267 30.509C11.9776 30.5118 11.9922 30.521 12.0038 30.5291C12.0232 30.5459 12.0208 30.5631 11.9958 30.5813C11.9811 30.591 11.9643 30.5987 11.9065 30.6167C11.8755 30.6276 11.8362 30.6352 11.7447 30.6804C11.6767 30.7189 11.4068 30.8515 11.3825 31.2432C11.416 31.6418 11.5278 31.6346 11.582 31.7104C11.6427 31.7623 11.6816 31.7791 11.7109 31.7916C11.7684 31.8138 11.7932 31.812 11.814 31.8107C11.8399 31.8011 11.8494 31.7852 11.8632 31.7711C11.8896 31.7425 11.9021 31.7104 11.9169 31.6817C11.9452 31.6239 11.9665 31.5741 11.9823 31.5442C11.9909 31.6429 11.9913 31.7575 11.9966 31.8677C12.1702 31.3161 12.1285 31.4603 12.2551 31.5449C12.3327 31.5973 12.3243 31.3409 12.3873 31.2845C12.4682 31.2109 12.8231 31.0087 12.6722 31.3644C12.706 31.3047 12.7381 31.2476 12.7719 31.1894C12.9907 31.1873 13.2133 31.1493 13.443 31.1002C13.483 31.0916 13.5165 30.9765 13.5576 30.9683C13.6682 30.9455 13.7217 31.0428 13.824 31.06C13.8681 31.0674 13.9069 30.9839 13.9563 30.9666L14.0701 31.0097C14.082 31.0072 14.0938 31.0085 14.1054 31.0159C14.1653 31.0537 14.0864 31.2234 14.2587 31.0793C14.3006 30.8401 14.4832 31.1126 14.5777 31.1393C14.5925 31.1441 14.7839 30.9993 14.8314 31.047C14.8769 31.0934 14.9105 31.2557 15.028 31.2235C15.0836 31.2085 15.1747 31.069 15.2216 31.079C15.2549 31.0863 15.2349 31.2365 15.2729 31.2593C15.3093 31.2814 15.4415 31.207 15.4582 31.2118C15.5185 31.2284 15.4162 31.2969 15.4528 31.3178C15.6313 31.4175 15.8298 31.5565 16.0423 31.565C16.0683 31.5661 16.0804 31.4411 16.0849 31.4385C16.2944 31.3606 16.1545 31.4753 16.1583 31.5928C16.1597 31.706 16.4829 31.7663 16.5578 31.5695C16.4757 31.8198 16.6137 31.6564 16.6327 31.6551C16.7099 31.6515 16.6188 31.8607 16.7092 31.8186C16.7423 31.8032 16.7472 31.6414 16.7718 31.6551C16.8337 31.6893 16.8055 31.9419 16.8845 31.9961C16.9035 32.0092 16.9469 31.9078 16.9832 31.9245C17.0186 31.9411 17.1292 32.1221 17.1338 31.8778C17.167 32.0863 17.2213 31.997 17.328 32.0388C17.3552 32.0497 17.3342 32.23 17.4124 32.1982C17.4387 32.1874 17.4931 32.0251 17.5231 32.0337C17.5923 32.053 17.6016 32.2427 17.6895 32.2789C17.8489 32.3454 18.0641 32.2837 18.2247 32.3806C18.2689 32.4072 18.2057 32.5677 18.2727 32.5921C18.2827 32.5952 18.4091 32.4787 18.4529 32.5068C18.4798 32.5239 18.5971 32.6691 18.6245 32.6861C18.6701 32.714 18.7272 32.5574 18.7451 32.5968C18.7972 32.7104 18.6636 32.926 18.8552 32.6336C18.8326 32.8207 18.8929 32.8192 18.8457 33.0437C18.9491 32.813 18.9227 33.0563 19.01 32.9944C19.0982 32.9328 19.2838 32.4814 19.1531 32.9871C19.1997 32.9347 19.3547 32.8667 19.3783 32.8652C19.4472 32.8617 19.3738 32.9909 19.4269 32.9858C19.436 32.985 19.4551 32.8878 19.5045 32.912C19.5361 32.928 19.7909 33.0061 19.8036 33.0235C19.9346 33.2206 19.682 33.0913 19.614 33.1831C19.6149 33.1542 19.616 33.1252 19.6164 33.0965C19.552 33.0299 19.535 33.2569 19.5562 33.3167C19.5772 33.3764 19.6703 33.2993 19.6803 33.3782C19.6852 33.4177 19.6039 33.6728 19.5678 33.6291C19.5935 33.7219 19.5046 33.7873 19.5026 33.8672C19.5023 33.9554 19.7055 34.039 19.7467 33.8974C19.7082 33.8814 19.6576 33.8726 19.6195 33.8557C19.6371 33.5947 20.0264 32.7952 20.0801 33.1722C20.1192 33.4451 19.894 33.5922 20.1971 33.4547C20.1616 33.4344 20.1357 33.4026 20.1042 33.3828C20.1511 33.1965 20.1512 33.4155 20.1963 33.3644C20.218 33.3393 20.1683 33.1848 20.2543 33.1613C20.2464 33.4438 20.368 33.1905 20.4781 33.2166C20.435 33.2558 20.3919 33.2947 20.349 33.3339C20.4819 33.5759 20.0353 33.5239 20.3666 33.7284C20.3205 33.7253 20.2779 33.7114 20.231 33.7127C20.2259 33.8157 20.1151 34.0923 20.1177 34.1578C20.1243 34.3295 20.2262 34.2545 20.2815 34.2841C20.3061 34.297 20.2693 34.3698 20.2714 34.3709C20.305 34.389 20.3272 34.2737 20.3606 34.2749C20.4025 34.2764 20.4895 34.4171 20.5119 34.4095C20.5693 34.3904 20.5466 34.1454 20.5558 34.13C20.6153 34.0299 20.6555 34.1364 20.6893 33.9939C20.5082 34.0509 20.1134 33.8115 20.5647 33.6811C20.5179 33.4239 20.6324 33.117 20.7935 33.133C20.9277 33.1462 20.8113 33.2506 20.8423 33.4074C20.848 33.4275 20.9999 33.5381 21.0347 33.4422C20.969 33.6668 20.9732 33.882 20.8749 34.1059C20.8604 34.1388 20.7931 34.1069 20.769 34.3011C20.7568 34.3987 20.7392 34.6134 20.7023 34.732C20.7387 34.6523 20.7784 34.5623 20.8159 34.479C20.9296 34.4824 20.9221 34.5764 20.9417 34.7476C20.9556 34.6818 20.9707 34.3942 21.033 34.4988C21.036 34.5049 21.0143 34.604 21.0433 34.6632C21.1021 34.7822 21.1124 34.8172 20.9741 35.089C21.1642 34.9838 21.1547 35.2256 21.2898 35.2544L21.3374 35.265C21.356 35.2679 21.3771 35.2665 21.4018 35.2592C21.4165 35.1069 21.4124 35.028 21.391 34.9907L21.3577 34.9833C21.327 34.925 21.2507 34.9595 21.1402 34.9773C21.1553 34.8873 21.1741 34.7991 21.1893 34.7082C21.3521 34.9534 21.2637 34.9193 21.4071 34.7858L21.4301 34.7909C21.4357 34.785 21.4417 34.7788 21.4481 34.7725C21.4867 34.7339 21.6415 34.8132 21.6357 34.5497C21.6341 34.4877 21.5319 34.475 21.5618 34.3834C21.5673 34.366 21.6989 34.3444 21.7054 34.3707C21.7849 34.6961 21.5014 34.8584 21.8988 34.8209C21.9098 34.8197 21.9341 34.7109 21.9573 34.6995C22.001 34.6783 21.9777 34.8052 22.0177 34.7824C22.0577 34.7596 22.1377 34.598 22.1587 34.765C22.1992 35.0697 21.9465 35.1936 21.8751 35.0224C21.7642 35.3906 22.4743 35.5305 22.5232 35.5054C22.7415 35.4002 22.4057 35.4231 22.4093 35.3161C22.4104 35.2707 22.5162 34.7129 22.3695 35.0606C22.326 35.1637 22.3998 35.3234 22.3298 35.3718C22.2584 35.4199 22.3126 35.2599 22.3103 35.2476C22.3024 35.2055 22.2274 35.2547 22.2234 35.2299C22.1625 34.8528 22.2721 34.3203 22.2947 35.141C22.4008 34.9759 22.2849 34.6605 22.3981 34.556C22.537 34.4293 22.5672 34.6979 22.5797 34.712C22.7205 34.8778 22.5964 34.4713 22.778 34.6268C22.8796 34.7133 22.5643 34.844 22.8265 34.8659C23.0441 34.8834 22.9517 34.7332 23.0196 34.4415C23.0355 34.3733 23.1678 34.3097 23.0028 34.3116C22.9847 34.3875 22.9581 34.4871 22.9354 34.556C22.9061 34.493 22.911 34.0977 22.8918 34.0804C22.8009 33.9982 22.77 34.1982 22.7526 33.9529C22.7488 34.2172 22.7073 34.05 22.6716 34.0995C22.5386 34.2815 22.6533 34.3792 22.4813 34.0826C22.4878 34.208 22.4921 34.3308 22.4982 34.4557C22.4708 34.455 22.4436 34.4544 22.4164 34.4537C22.4255 34.1816 22.2811 34.19 22.4556 33.9465C22.3187 33.843 22.2497 33.8897 22.1768 34.0892C22.1631 34.1273 22.1372 34.1387 22.1097 34.1375C22.1039 34.1963 22.0768 34.3764 22.0685 34.3975C21.9942 34.5833 21.9987 34.239 22.0426 34.1156C22.0251 34.106 22.0118 34.0961 22.0072 34.0921C21.9782 34.0661 22.0642 33.9633 22.0451 33.9188C22.0386 33.9044 21.9422 33.9119 21.9494 33.8649C21.9945 33.5629 22.1077 33.8088 21.8333 33.5756C21.773 33.8468 21.9278 33.8143 21.8355 34.0969C21.7359 34.4004 21.7359 33.9676 21.6447 34.3458C21.6503 34.2818 21.6576 34.229 21.6659 34.1565C21.5944 34.2217 21.5687 34.1901 21.5594 34.1293L21.5709 34.1319C21.5629 34.0595 21.5804 33.9478 21.5693 33.9051C21.5289 33.7513 21.1915 33.6873 21.422 34.035C21.3711 34.051 21.3231 34.0522 21.2736 34.0651C21.4063 33.5 21.3777 33.7313 21.1891 33.5914C21.1474 33.5605 21.1962 33.3095 21.0751 33.5913C21.1554 33.305 20.9749 33.4438 20.9716 33.4056C20.9503 33.1576 21.3308 32.9189 21.2404 33.4382C21.3428 33.2532 21.2761 33.5154 21.341 33.495C21.4353 33.4656 21.4593 33.4174 21.5084 33.6358C21.6726 33.3872 21.1647 33.4207 21.5406 33.1312C21.6065 33.0805 21.7132 33.0454 21.8489 33.0223L21.7788 33.0067C22.3947 32.8639 23.6281 32.9315 23.9621 32.941C24.6952 32.9642 25.084 32.9613 25.7284 33.0834C25.7934 33.0955 26.2779 33.1462 26.1268 33.4512C26.1048 33.4949 25.8768 33.5835 26.0151 33.8642C26.0025 33.7096 26.1234 33.6299 26.1349 33.6157C26.3934 33.2923 26.2893 33.1864 26.6084 33.2334ZM27.1035 36.247C26.6954 36.1081 26.97 36.371 26.807 36.8424C26.8606 36.8522 26.9142 36.8619 26.9682 36.8718C26.9587 36.8391 26.9494 36.8066 26.94 36.7739C26.9399 36.7739 26.9398 36.7739 26.9398 36.7739C26.9944 36.5983 27.0494 36.4227 27.1035 36.247ZM33.8903 37.5964C33.8646 37.658 33.8391 37.7197 33.8123 37.7797C33.76 37.7517 33.7082 37.7242 33.6556 37.6962C33.6686 37.6538 33.6814 37.6108 33.6944 37.5684C33.7595 37.5798 33.8241 37.5914 33.8903 37.5964ZM21.8036 35.0812C21.7592 34.89 21.708 35.2065 21.6296 35.0428C21.5979 35.2776 21.5687 35.5076 21.5384 35.7403C21.6259 35.7213 21.6588 35.636 21.7348 35.7092C21.7388 35.6326 21.7428 35.5555 21.7472 35.4785C21.7298 35.4918 21.7112 35.5072 21.6947 35.5188C21.7123 35.3056 21.8551 35.3003 21.804 35.0808C21.8039 35.0809 21.8037 35.0811 21.8036 35.0812ZM20.95 34.9897C20.9177 34.9497 20.7787 34.7944 20.7325 34.8836C20.5719 35.1854 21.095 35.1022 20.6746 35.2991C20.6645 35.3446 20.6515 35.3884 20.64 35.4331C20.6985 35.4651 20.7607 35.4955 20.8188 35.5239C20.861 35.3449 20.9081 35.1696 20.95 34.9897ZM25.5865 36.0275C25.5258 35.9918 25.193 36.0962 25.2598 36.3202C25.2807 36.386 25.4647 36.1109 25.5152 36.1322C25.5478 36.146 25.4835 36.3028 25.5601 36.2537C25.5687 36.1814 25.5797 36.1015 25.5862 36.0279C25.5863 36.0278 25.5864 36.0276 25.5865 36.0275ZM25.8605 35.099C25.7888 35.1173 25.7151 35.1431 25.6432 35.1632C25.6621 35.3567 25.7779 35.253 25.7417 35.5151C25.72 35.532 25.6986 35.5487 25.677 35.5655C25.6721 35.5062 25.6675 35.4468 25.6628 35.3874C25.5824 35.52 25.6057 35.5961 25.5054 35.5378C25.5063 35.943 25.4839 36.1569 25.7331 35.7872C25.6636 35.9958 25.5846 36.6991 25.7673 36.2168C25.8013 36.1272 25.7312 36.0525 25.7326 36.0376C25.7496 35.8523 25.813 35.7425 25.8275 35.5672C25.8341 35.488 25.785 35.4813 25.7952 35.3714C25.8003 35.3178 25.8711 35.174 25.8605 35.099ZM25.8445 36.0499C25.8061 36.1576 25.8343 36.4324 25.9043 36.3888C26.0133 36.3211 25.9022 36.0464 25.8445 36.0499ZM33.8907 37.5962C33.8906 37.5963 33.8905 37.5963 33.8903 37.5964C33.8904 37.5962 33.8905 37.5959 33.8906 37.5957C33.8906 37.5959 33.8907 37.596 33.8907 37.5962ZM21.1312 35.17C21.0586 35.2502 20.9897 35.2183 20.9576 35.367C20.9412 35.332 20.9245 35.2974 20.9083 35.2625C20.8972 35.3068 20.8864 35.3513 20.8754 35.3952C20.9395 35.4409 21.0041 35.4867 21.0695 35.5331C21.0903 35.4122 21.1119 35.2912 21.1312 35.17ZM20.3774 34.8657C20.291 34.827 20.314 35.0469 20.2687 35.1382C20.2232 35.2295 20.1637 35.1297 20.1365 35.2707C20.188 35.2902 20.2423 35.3103 20.2955 35.3296C20.3207 35.1751 20.3511 35.019 20.3772 34.8656C20.3773 34.8657 20.3774 34.8657 20.3774 34.8657ZM28.7856 36.6704C28.7303 36.6167 28.7793 36.4645 28.6293 36.6286C28.6294 36.6286 28.6295 36.6286 28.6296 36.6286C28.7262 36.7741 28.8597 36.9108 29.0059 36.8065C28.9525 36.6301 28.8732 36.7545 28.7856 36.6704ZM21.9356 35.5798C21.985 35.4618 21.8806 35.3361 21.8323 35.4452C21.7536 35.6217 21.8598 35.7588 21.9356 35.5798ZM31.4467 35.9495C31.597 35.5827 31.4823 35.1289 31.2684 35.2858C31.2499 35.2995 31.3523 35.4385 31.3056 35.5075C31.3009 35.5143 31.2361 35.4954 31.2119 35.5459C31.1877 35.5966 31.1866 35.7223 31.1521 35.77C31.0917 35.8534 31.0106 35.6702 30.9579 35.7836C30.9509 35.7988 30.9921 35.9733 30.9953 35.9802C31.0479 36.0899 31.1451 35.8842 31.1558 35.8844C31.2107 35.885 31.1775 36.0526 31.1852 36.0943C31.1998 36.1728 31.2562 36.1049 31.2585 36.1109C31.3184 36.2711 31.1377 36.201 31.1035 36.2582C31.0112 36.4124 31.0512 36.5745 30.8749 36.643C30.8583 36.6495 30.6745 36.612 30.8796 36.8358C30.3625 37.1616 31.0762 37.0942 31.1643 37.0185C31.2048 36.9834 31.1764 36.8147 31.2081 36.7454C31.2805 36.5868 31.3664 36.5697 31.3937 36.3351C31.4511 35.8418 31.296 36.1476 31.2346 36.054C31.2582 35.9486 31.2766 35.845 31.3064 35.7428C31.2634 35.8799 31.4358 35.9772 31.4465 35.9505C31.4466 35.9502 31.4466 35.9498 31.4467 35.9495ZM30.2029 36.3376C30.122 36.1741 30.0829 36.485 30.0153 36.2937C29.8906 36.5595 30.0571 36.5654 30.0739 36.5839C30.1507 36.6671 30.1034 36.9694 30.2069 36.8897C30.2029 36.7061 30.2049 36.5214 30.2029 36.3376ZM31.0793 36.5989C30.9872 36.7456 31.1108 36.7612 31.1113 36.792C31.1184 37.1184 30.7587 37.0017 31.0793 36.5989ZM25.2862 35.3403C25.2529 35.324 25.2507 35.4775 25.2127 35.5168C25.1744 35.5564 25.0903 35.4109 25.0777 35.5046C25.065 35.5985 25.2184 35.8725 25.0162 35.8933C25.0141 35.9469 25.0055 35.9857 25.0009 36.0336C25.0539 36.0437 25.1074 36.0548 25.1607 36.0649C25.1559 35.909 25.1518 35.7453 25.1475 35.5947C25.197 35.4794 25.1887 35.6363 25.1903 35.6366C25.1904 35.6364 25.1904 35.6362 25.1904 35.6361C25.2483 35.6331 25.361 35.3766 25.2862 35.3403ZM27.9659 36.2458C28.0342 35.8716 27.8867 36.2786 27.8456 36.3199C27.8044 36.3611 27.7793 36.2148 27.7719 36.3792C27.8095 36.4993 27.9583 36.2876 27.966 36.2453C27.9659 36.2455 27.9659 36.2456 27.9659 36.2458ZM29.6434 36.2544C29.5435 36.3327 29.5424 36.4325 29.454 36.3051C29.4443 36.3966 29.4344 36.4901 29.425 36.5802C29.5083 36.5947 29.5422 36.3299 29.6232 36.4506C29.6365 36.4705 29.5706 36.6762 29.6527 36.6192C29.6487 36.5036 29.6463 36.3755 29.6434 36.2544ZM29.1648 36.5269C29.2662 36.528 29.456 35.8044 29.2231 36.1085C29.1886 36.154 29.0886 36.5262 29.1648 36.5269ZM26.2023 35.4686C26.0368 35.4206 26.2096 35.5696 26.236 35.6896C25.8277 35.7171 26.2858 35.6658 26.2647 36.0474C26.3293 35.948 26.4574 35.7176 26.3686 35.6364C26.3315 35.6027 26.3289 35.7169 26.3265 35.716C26.255 35.6763 26.2928 35.4948 26.2023 35.4686ZM30.3849 36.3463C30.3777 36.3509 30.3688 36.4794 30.3447 36.5018C30.3206 36.5239 30.2879 36.4282 30.2717 36.5054C30.2553 36.5831 30.3388 36.6578 30.3752 36.6048C30.4119 36.5513 30.4495 36.306 30.3849 36.3463ZM29.7847 35.9364C29.6867 36.0151 29.7542 36.5036 29.773 36.5042C29.9381 36.504 29.7575 36.0838 29.7847 35.9364ZM26.7184 34.7369C26.4783 34.9423 26.5608 35.3781 26.6498 35.6453C26.6746 35.5977 26.6999 35.5502 26.7244 35.5031C26.5993 35.7961 26.4183 36.0766 26.758 35.8575C26.6073 35.7603 26.7559 35.6996 26.7596 35.6826C26.8662 35.125 26.5829 35.3471 26.7186 34.7369C26.7185 34.7369 26.7184 34.7369 26.7184 34.7369ZM30.6384 36.5209C30.7273 36.5323 30.9718 36.4696 30.901 36.2091C30.8135 36.313 30.7259 36.417 30.6384 36.5209ZM23.4049 34.2234C23.3576 34.0716 23.293 34.0627 23.2017 34.056C23.246 34.2728 23.1892 34.2868 23.1534 34.3316C23.0992 34.3991 23.1997 34.4105 23.1976 34.4242C23.1615 34.6164 23.0941 34.6353 23.2377 34.6559C23.1909 34.7168 23.1439 34.7782 23.0961 34.8384C23.2055 34.8668 23.2071 34.9965 23.2501 35.1622C23.2484 34.7754 23.2958 35.0257 23.4094 34.8532C23.466 34.7668 23.4285 34.301 23.4046 34.2234C23.4047 34.2234 23.4048 34.2234 23.4049 34.2234ZM26.5214 34.6284C26.4899 34.6929 26.4564 34.7815 26.4241 34.8557C26.4013 34.8597 26.3779 34.8626 26.3546 34.8664C26.3614 34.8061 26.3691 34.7431 26.3751 34.685C26.3487 34.663 26.3468 34.7481 26.3369 34.7546C26.337 34.7543 26.337 34.754 26.3371 34.7536C26.1956 34.8445 26.147 34.824 26.0805 34.6235C26.0512 34.8069 26.0218 34.9904 25.9924 35.1738C26.0169 35.1598 26.0415 35.1462 26.0659 35.1327C26.0932 35.0359 26.1205 34.9391 26.1478 34.8424C26.1642 34.9008 26.1805 34.9587 26.197 35.0171C26.2229 34.9849 26.2531 34.9515 26.2761 34.9197C26.2953 35.4486 26.1217 35.0637 26.0859 35.2763C26.0624 35.4129 26.2946 35.4437 26.3427 35.3545C26.3496 35.3414 26.3609 34.9517 26.4128 35.1639C26.4209 35.1973 26.2945 36.0243 26.491 35.3696C26.519 35.2767 26.5551 34.7563 26.5214 34.6284ZM25.7315 34.2288C25.775 34.778 25.3893 34.1422 25.5246 34.6103C25.4263 34.8434 25.4376 34.842 25.4622 35.0671C25.4643 35.0873 25.4123 35.1473 25.4145 35.1563C25.4511 35.2842 25.5277 35.232 25.4931 35.4481C25.5098 35.439 25.5255 35.431 25.5423 35.4219C25.5132 35.2083 25.6339 35.0874 25.6998 34.9218C25.7298 34.8468 25.6937 34.8163 25.7193 34.7506C25.7287 34.7266 25.7766 34.7853 25.7904 34.7143C25.8211 34.5539 25.821 34.3303 25.781 34.2019C25.7811 34.2018 25.7811 34.2016 25.7811 34.2014C25.7646 34.2096 25.7481 34.2201 25.7315 34.2288ZM28.4204 35.1008C28.3977 35.3966 28.4732 35.4938 28.2817 35.6108C28.2812 35.6697 28.2811 35.7282 28.2807 35.787C28.3101 35.7863 28.3386 35.7855 28.3684 35.7854C28.5875 34.9373 28.5985 35.9338 28.5898 35.3072C28.5887 35.2391 28.5093 35.3029 28.6041 35.1328C28.604 35.1327 28.6039 35.1325 28.6039 35.1323C28.5016 35.1733 28.4739 35.2751 28.4204 35.1008ZM27.7641 35.2086C27.4542 35.7905 28.0083 35.5977 27.9481 35.4213C27.9425 35.4053 27.7013 35.5034 27.7641 35.2086ZM29.5748 34.937C29.4794 34.9117 29.4229 35.2428 29.4146 35.3639C29.4062 35.4853 29.4917 35.3742 29.4975 35.3944C29.5164 35.461 29.4502 35.4931 29.474 35.584C29.4825 35.6136 29.6321 35.7572 29.6421 35.7441C29.6969 35.6711 29.6756 35.3877 29.6926 35.3582C29.7479 35.2613 29.7807 35.412 29.8142 35.2681C29.8859 34.961 29.7357 35.2721 29.7179 35.2748C29.6643 35.2818 29.6952 35.1075 29.662 35.0667C29.6289 35.0259 29.5949 35.0821 29.5625 35.0645C29.5518 35.0586 29.5795 34.9388 29.5748 34.937ZM29.149 35.5899C29.2876 35.3537 29.0846 35.0433 29.0458 35.0976C28.9332 35.2594 29.083 35.7026 29.149 35.5899ZM25.9266 35.0782C26.0481 34.9111 25.856 34.7292 25.7829 34.7925C25.782 34.8699 25.8844 35.1357 25.9266 35.0782ZM26.7746 34.7468C26.6805 34.79 26.7289 35.218 26.8009 35.2227C26.8843 34.9596 26.8378 35.0071 26.7927 34.9886C26.748 34.9701 26.848 34.7131 26.7746 34.7468ZM30.5778 35.3944C30.5608 35.3875 30.2309 35.5662 30.3872 35.6844C30.3995 35.6933 30.6116 35.6848 30.6334 35.6456C30.6774 35.5663 30.623 35.4134 30.5778 35.3944ZM27.2431 34.4123C27.1616 34.6385 27.118 34.6284 27.1164 34.9087C27.1164 34.9087 27.1165 34.9087 27.1166 34.9087C26.9898 34.9748 27.0728 34.4139 27.0465 34.422C26.9547 34.4507 26.9728 34.862 26.8988 34.9846C27.0425 34.881 26.9647 35.1442 27.057 35.1762C27.0778 35.1832 27.1885 35.036 27.2167 34.938C27.2448 34.8398 27.2479 34.533 27.2431 34.4123ZM31.0036 35.3984C30.9169 35.2941 30.7692 35.6588 30.8988 35.7395C30.9622 35.7791 31.0562 35.4619 31.0036 35.3984ZM21.1427 33.6488C21.1327 33.7498 21.1232 33.8505 21.1147 33.9509C21.0723 33.9651 21.0299 33.9797 20.9877 33.9944C21.0241 33.971 21.0605 33.9481 21.0972 33.9253C21.0379 33.8739 21.0528 33.6893 21.1426 33.6488C21.1426 33.6488 21.1427 33.6488 21.1427 33.6488ZM18.7918 32.9202C18.7912 32.8192 18.6452 33.0877 18.6462 33.1124C18.6539 33.2962 18.7938 33.0605 18.7918 32.9202ZM25.9339 34.1593C25.8262 34.0996 25.8273 34.5923 25.8925 34.6366C25.8642 34.5378 25.9951 34.1932 25.9339 34.1593ZM19.614 33.1831C19.6127 33.2261 19.6114 33.2692 19.6113 33.3127C19.5917 33.2468 19.5964 33.2075 19.614 33.1831ZM30.5945 34.9627C30.5826 34.9232 30.4571 34.8733 30.4328 34.9163C30.3821 35.0068 30.4435 35.2875 30.5154 35.2148C30.5234 35.207 30.6064 35.0022 30.5942 34.9627C30.5943 34.9627 30.5944 34.9627 30.5945 34.9627ZM21.0383 33.4295C21.0373 33.434 21.0361 33.4383 21.0347 33.4422C21.0359 33.438 21.037 33.4336 21.0383 33.4295ZM16.5645 31.5484C16.5626 31.5557 16.5603 31.5628 16.5578 31.5695C16.56 31.5628 16.562 31.5557 16.5645 31.5484ZM29.7428 34.4174C29.7694 33.9528 29.6326 34.1814 29.6773 34.4198C29.68 34.4324 29.7326 34.4149 29.7428 34.4174Z" fill="url(#vector-top-right-gradient)"/>
</svg>
