<svg preserveAspectRatio="none" width="100%" height="100%" overflow="visible" style="display: block;" viewBox="0 0 67 67" fill="none" xmlns="http://www.w3.org/2000/svg"><defs>
  <linearGradient id="vector-top-right-rotated-gradient" x1="0%" y1="0%" x2="100%" y2="100%" gradientUnits="userSpaceOnUse">
    <stop stop-color="#3377ff"/>
    <stop offset="1" stop-color="#8b55f6"/>
  </linearGradient>
</defs>
<path id="Union" d="M4.38829 50.3613C3.55916 44.9359 5.40067 38.8558 9.44178 34.7238L9.95441 37.8829C5.453 35.5662 2.0378 31.3196 0.711592 26.6659C0.371314 25.4421 0.552271 25.4893 0.487786 25.1434C0.431312 24.7922 0.367799 24.4981 0.304175 24.2277C0.195598 23.7622 0.0871135 23.3803 0.0529388 22.9318C-0.197024 19.5088 0.439803 16.2372 1.92951 13.2403C3.60396 10.2264 3.21491 11.9026 3.91835 10.9686C5.43108 9.2708 3.83544 10.4825 4.29338 9.69151C5.99109 7.63257 8.17692 5.9588 10.5879 4.84833C10.028 5.17916 9.48793 5.53759 8.96441 5.9236C9.94307 5.31261 11.4411 4.67535 9.82623 5.68507C10.2094 5.51371 10.5785 5.37295 10.9794 5.22395C10.9866 4.96988 12.8489 4.20252 13.0018 4.05986C13.1399 3.8846 12.0665 4.28728 12.0723 4.28316C12.075 4.15466 14.2175 3.46314 15.7182 3.31526C16.4016 3.22931 16.9376 3.20753 17.0438 3.20281C17.9354 3.17914 17.1753 3.47577 17.922 3.41986C19.1984 3.37386 18.3794 2.84085 20.0804 3.60097C20.7857 3.44973 20.8416 3.56272 21.7005 3.719C21.8136 3.74089 21.7474 3.60216 21.7981 3.60788C23.1262 3.77646 22.0719 3.80182 22.0787 3.8159C22.158 4.0358 23.5438 4.27629 23.8192 4.3994C26.4211 5.43036 28.2722 6.70546 30.1176 8.44121L29.4203 8.55435C29.864 7.8353 30.3717 7.11115 30.9781 6.37483C31.4631 5.70698 33.2069 3.87562 33.8987 3.45142C34.551 3.0058 34.3038 3.38408 34.6782 3.20662C35.0024 2.53804 35.5291 2.10855 36.9668 1.67442C37.353 1.19858 37.3747 1.40678 38.3409 0.973806C39.1366 0.611889 40.5797 -0.11446 41.6023 0.0153391C40.4953 0.190557 40.6291 0.289028 39.4493 0.701917C39.0042 0.710867 35.1038 2.60737 35.5836 2.76773C35.7909 2.79095 36.9582 2.00678 37.0278 2.01806C37.3778 2.02279 36.7593 2.51982 36.1391 2.80558C36.271 2.69322 36.4358 2.56528 36.5838 2.45122C35.1359 3.04753 36.448 3.13809 35.1072 3.21938C34.9413 3.2352 34.9416 3.13341 34.6927 3.203C34.6719 3.26001 34.9654 3.16202 34.7643 3.32064C34.5598 3.48012 34.0634 3.64782 34.0906 3.80454C34.1245 4.02565 34.9368 3.32643 35.0163 3.2975C35.0163 3.29601 35.0163 3.29451 35.0164 3.29302C35.6642 2.98311 34.4465 3.82805 34.4118 3.89762C34.1285 4.27631 34.4265 4.15843 33.9725 4.66603C33.7122 4.95168 32.9781 5.59193 32.7474 5.87031C32.5153 6.14156 32.9672 5.80749 32.8165 5.99432C32.6668 6.18011 32.4123 6.35017 32.2468 6.57834C32.1764 6.67608 32.2617 6.74072 32.2273 6.78702C31.8651 7.28906 31.9484 6.83321 31.6096 7.28716C31.3812 7.58149 30.8736 8.70858 31.3951 8.05068C31.1838 8.39209 30.9863 8.72929 30.7987 9.0802C30.9533 8.8804 31.1084 8.67235 31.2731 8.48939C31.0162 8.82922 30.9073 9.10652 30.8211 9.35397L30.0782 10.6042L29.0415 9.64273C28.8727 9.54034 28.7166 9.45424 28.5605 9.33182C28.1986 9.04909 27.9981 8.6191 27.5146 8.41326C26.4991 7.97735 28.7491 9.43946 28.9345 9.73921C28.939 9.74435 28.942 9.74867 28.9435 9.75222L30.1116 10.8356L30.9487 9.42683C30.9564 9.42148 30.9614 9.42516 30.9643 9.43571L30.1157 10.8638L28.9315 9.76556C28.8607 9.76833 28.5254 9.63081 28.4752 9.59504C28.2061 9.39501 27.9679 9.05378 27.7537 8.90332C26.9859 8.36999 26.4147 8.20812 25.628 7.82676C22.9453 6.47692 19.1899 5.99855 16.4435 6.50999C16.3746 6.52112 16.3073 6.53159 16.2417 6.54147C15.335 6.68072 14.7437 6.68422 14.3208 6.81219C13.2743 7.1538 13.2078 7.35818 12.3478 7.74933C11.0672 8.32763 9.34102 9.36002 8.457 10.1663C7.83229 10.7097 7.45502 11.3752 7.32168 11.5375C5.37674 13.7824 4.0463 17.2312 3.85563 19.6609C3.74186 20.7961 3.60405 21.3481 3.60931 21.5866C3.67334 22.6153 3.80687 22.3264 3.88277 23.1486C3.91341 23.4209 3.88168 23.5661 3.85154 23.6521C3.83282 23.7058 3.81529 23.736 3.81707 23.7593C3.86342 24.2923 4.06926 24.3585 4.1682 24.7562C4.75451 27.0345 5.70563 29.1608 7.22076 30.9692C7.33069 31.0995 7.25932 31.1416 7.33593 31.2224C7.67038 31.5632 7.61439 31.3141 7.96265 31.6636C8.69408 32.3829 9.49098 33.0778 10.3909 33.6939C10.4801 33.7545 10.4626 33.8704 10.6735 34.0029C10.8856 34.1344 11.0971 34.147 11.4336 34.34C11.5292 34.3945 11.6248 34.4489 11.7205 34.5032L13.8774 35.678L12.1859 37.3717C11.5378 37.9997 10.8894 38.6471 10.3497 39.4524C10.2496 39.6023 10.2371 39.8568 10.099 40.0846C9.65656 40.7938 9.02338 41.8767 8.77798 42.5606C7.94382 44.8033 7.76774 47.0535 7.9943 49.2784C8.02803 49.6073 8.02472 49.9181 8.03066 50.174C8.03417 50.3254 8.04053 50.4562 8.05847 50.5573C8.17478 51.1685 8.18506 50.6871 8.32535 51.2992C9.48409 56.2863 13.4006 60.5825 18.3808 62.1229C20.3261 62.7645 22.8355 62.8599 24.777 62.6216C25.0057 62.5968 25.1839 62.5849 25.3351 62.5803C25.7166 62.5671 25.9238 62.6086 26.332 62.5178C27.3433 62.2704 27.4679 62.0289 28.4676 61.6284C29.2583 61.3001 30.2364 61.0262 30.9986 60.5267C31.7539 60.0219 31.9806 59.6246 32.7414 58.9401C33.3668 58.375 34.2452 57.5717 34.7912 56.8217C35.1901 56.2828 35.5522 55.7185 35.8749 55.134L37.0639 53.1329L38.7232 54.6718C42.077 57.6123 46.6904 58.9125 51.0406 58.1794C54.2919 57.6593 57.3473 56.0541 59.6427 53.6212C61.7276 51.4517 63.1739 48.3118 63.6718 45.2178C63.716 44.9257 63.8708 45.3964 63.8993 44.4416C63.9028 43.9269 63.778 43.2119 63.6549 42.0486C63.6225 41.7545 63.5826 41.4629 63.534 41.1675C62.8424 36.6625 59.9574 32.3072 55.7259 30.0503L53.9443 29.08L55.3415 27.681C56.9245 26.0913 58.1359 24.1344 58.8321 22.043C59.6271 19.6762 59.7522 17.092 59.253 14.6621C57.5572 6.30551 49.4756 1.64976 42.1025 1.44758C41.6179 1.42689 41.7941 0.930363 42.073 0.757537C42.3589 0.812032 42.6206 0.893437 42.913 0.972812C43.2188 0.376142 43.1788 0.488869 44.5251 0.530667C45.3544 0.579877 44.6963 0.316889 45.1468 0.262488C45.7283 0.131474 48.5252 0.335667 47.9166 0.627883C48.0966 0.59901 48.2641 0.572645 48.4422 0.549743C50.4035 0.975449 52.2562 1.69546 53.9739 2.7107C54.2695 2.88743 54.3513 2.79808 54.6535 2.99274C55.4616 3.5231 55.9969 4.0822 56.7078 4.77093C57.0894 5.15056 57.2457 5.10734 57.7077 5.65001C58.1579 6.20305 58.0047 6.29445 58.7368 6.959C58.5807 6.28994 60.0289 8.74766 60.3997 9.68626C60.469 9.81276 61.1354 10.8424 61.3046 11.4715C61.4867 12.0928 61.6184 13.0686 61.8603 14.0297C61.8783 14.1004 61.8982 14.1664 61.9193 14.2295C62.0327 14.57 62.1875 14.822 62.2404 15.2484C62.284 15.6053 62.171 16.0431 62.1799 16.4911C62.1971 16.9378 62.2922 17.9168 62.278 18.0973C62.2441 18.7436 62.1897 18.0255 62.1534 18.4647C61.9828 20.59 61.2681 22.9766 60.3975 24.8791C60.2914 25.1142 60.5573 24.8471 60.5457 24.8791C59.8737 26.5166 60.1569 25.6037 59.8383 25.9663C59.5892 26.358 57.6319 29.0445 57.7102 29.1664C57.5611 29.1106 57.3852 29.3022 57.2303 29.5036L56.9415 27.724C57.1255 27.7948 57.3119 27.8513 57.3878 27.8898C58.0609 28.2401 57.8152 28.3584 58.465 28.6916C58.703 28.818 58.3508 28.4015 58.59 28.5644C59.1826 28.9731 59.5561 29.5483 60.2506 30.176C60.4173 30.3294 60.5475 30.2942 60.8427 30.573C61.1542 30.8391 62.2037 32.1825 61.8437 31.4475C62.396 32.3431 62.6085 32.4289 63.3062 33.4106C63.4786 33.6631 63.5507 34.0811 63.9244 34.6048C64.05 34.7832 64.1965 34.692 64.3582 34.9812C64.7242 35.6466 64.8749 36.3636 65.2087 37.2506C65.6189 38.3488 65.991 39.5191 66.2109 40.7331C66.3249 41.3608 66.398 41.9953 66.4175 42.6273C66.4277 43.1349 66.258 43.0123 66.2561 43.7406C66.2593 43.8456 66.3828 44.7324 66.3152 45.2368C66.2969 45.5462 65.9504 47.085 65.855 47.3875C65.7264 47.893 65.8592 48.0259 65.7525 48.2964C65.4272 49.0716 65.3974 48.3558 65.4001 49.4108C65.1185 49.6618 64.9228 50.2076 64.6385 50.2883C64.7377 50.6957 64.3434 50.9986 64.1201 51.6111C63.8975 52.2223 64.0226 52.9419 63.4947 52.8018C63.4001 53.0995 62.7352 54.2333 62.5944 54.4069C62.2063 54.9321 62.3127 54.5694 62.014 54.9576C61.9594 55.0243 62.0982 55.024 61.7198 55.4319C61.5077 55.7368 59.519 57.5251 59.3525 57.5733C57.8001 58.5255 60.0967 56.9152 60.2817 56.5372C60.3515 56.5122 60.4208 56.4873 60.4938 56.4579C61.1076 55.9436 60.6219 56.0991 60.3261 56.302C60.0312 56.5069 59.5848 57.0132 59.3032 57.1374C59.1634 57.1987 59.0752 56.9344 59.4348 56.6825C59.0191 56.9149 59.4599 56.4436 59.2673 56.5007C59.0756 56.5921 57.3686 57.7547 57.4176 57.8627C57.7532 57.664 58.1543 57.3907 58.4774 57.1635C59.0633 57.0457 58.2603 58.7734 56.7183 59.1602C55.6246 59.4016 57.1747 58.5071 54.9222 59.7034C55.2922 59.571 55.6046 59.4636 55.9346 59.3238C56.0494 59.4839 55.4334 59.5304 55.1799 59.6951C55.0566 59.7791 55.9342 59.5636 55.2334 59.9012C54.5125 59.8876 54.1351 60.3304 53.0439 60.6212C53.3319 60.4972 53.6212 60.3644 53.9003 60.2257C52.06 60.5645 56.1634 59.2837 52.6858 60.171C53.1005 60.0621 53.5166 59.9477 53.9219 59.8028C53.6938 59.77 53.9176 59.3877 53.724 59.384C53.2219 59.3739 52.5712 59.6514 51.9956 59.7523C51.7458 59.7964 51.8846 59.6869 51.8636 59.6907C51.5238 59.7469 51.6172 59.8473 51.3207 59.9058C51.3191 59.9061 51.3176 59.9064 51.316 59.9066C50.9358 59.9885 49.8205 59.9857 49.6429 60.0004C49.1797 60.0599 49.9692 60.2459 49.9279 60.2631C49.6349 60.4012 49.0133 60.3288 49.0496 60.4727C49.6222 60.4253 50.6028 60.344 51.3743 60.2361C52.5242 60.0628 53.2488 60.0055 51.4164 60.4954C51.2851 60.5263 51.1409 60.5579 50.9829 60.5894C51.1763 60.6046 51.3294 60.6251 51.4418 60.6521C51.7298 60.7199 51.7492 60.8369 51.4932 60.9689C51.276 61.0795 50.8606 61.1991 50.2483 61.2646C48.9124 61.3814 49.7652 61.1933 49.0702 61.0786C48.9781 61.0848 47.2179 60.96 47.1193 61.0309C47.2067 60.8051 46.6684 60.5439 47.0658 60.3406C47.1231 60.3141 47.8177 60.3764 47.5877 60.166C47.4725 60.0619 47.1507 59.8215 47.2173 59.7024C47.0724 59.7761 46.917 59.8578 46.765 59.9307C45.7458 59.8263 45.6161 59.6882 45.1108 59.4174C45.1188 59.4873 45.5656 59.8789 44.816 59.6194C44.7785 59.6042 44.7659 59.5009 44.3966 59.3501C43.6515 59.0348 43.5189 58.9477 44.1783 58.8416C42.581 58.5076 42.374 58.0635 40.8846 57.3745C40.9854 57.8593 41.5447 58.1135 42.9967 58.601C43.0268 58.7097 43.0247 58.805 43.0584 58.9154C41.217 57.9498 42.1687 58.361 41.0305 58.0093C40.7454 57.9318 39.4664 57.0759 39.7636 57.5651C39.8301 57.6884 40.6719 58.172 40.531 58.1969C40.4991 58.2112 39.4575 57.6348 39.3892 57.5468C38.5236 56.5439 40.3735 57.7617 37.7493 55.7594L37.396 55.4317L37.1428 55.8578C37.1183 55.9038 37.093 55.951 37.0668 55.9993C37.0204 56.0848 37.0994 56.1713 37.0129 56.3435C36.8476 56.6661 36.736 56.5999 36.5843 56.8836C36.4323 57.1652 36.3124 57.6368 35.8858 57.9205C35.1171 58.421 36.263 56.7273 36.827 56.0076C36.7529 55.751 35.9237 57.0338 34.8245 58.1992C33.7472 59.3876 32.3929 60.4087 32.2402 60.5325C30.9115 61.6472 33.2115 59.9166 33.3602 59.8539C33.4326 59.8467 33.7973 60.2997 34.0949 59.5172C34.1785 59.2906 33.415 59.8037 33.7711 59.3919C34.1205 58.9776 34.0808 59.2429 34.1178 59.2248C34.2448 59.1606 34.6026 58.7018 34.6687 58.6616C35.7057 58.0271 36.0643 58.4931 34.4079 59.0798C34.0596 59.6925 35.3633 58.7716 34.8566 59.4706C34.2229 60.3304 33.4443 60.6132 33.3401 60.6846C32.0082 61.5249 33.7041 60.7647 32.0493 61.7696C31.113 62.2865 33.2555 60.7105 31.2149 62.0173C29.4446 63.0027 30.4565 62.5904 30.4653 62.9332C30.4654 63.0105 29.4702 63.5967 30.8592 62.8726C30.8622 62.783 30.8876 62.6535 30.9393 62.5438C31.2968 62.4187 32.0462 62.4214 32.2292 62.3174C33.1102 61.8159 32.9401 61.6702 33.5606 61.5019C33.0644 61.5538 33.7097 61.2597 33.8726 61.0492C34.4629 60.2616 33.4991 61.0828 35.2248 59.7817C34.9413 59.8968 34.6779 59.9861 34.4004 60.0786C34.5824 59.9031 34.7602 59.7236 34.9339 59.5403C35.3952 59.4691 36.2799 58.4079 35.6524 59.5188C36.7219 58.4545 37.0015 57.8857 37.0204 57.5059C37.0228 57.4322 37.1362 57.2399 37.2748 57.0179C37.1984 57.0277 37.0118 56.9805 37.0154 56.9342C37.0492 56.528 37.623 56.2186 37.6373 56.4491C37.6942 56.3599 37.7441 56.2813 37.7815 56.2224L37.2586 56.3072C37.295 56.3431 37.3224 56.3701 37.3377 56.3854C37.517 56.5637 37.222 56.4033 37.1609 56.4164L37.9088 56.295C37.9117 56.3013 37.9162 56.3044 37.9227 56.303L37.1501 56.4284C37.1501 56.439 37.1598 56.4571 37.1835 56.4856C37.2365 56.5587 37.9631 57.1304 37.9514 57.1744C37.87 57.4639 36.7191 56.4224 39.1504 58.3526C39.354 58.1685 38.156 57.4047 38.6287 57.3749C39.1187 57.3465 39.5403 58.1283 39.8944 57.8851C39.9146 57.9725 39.9109 58.0326 39.9203 58.1232C41.0493 58.5873 40.9254 58.8516 41.231 59.0877C41.8124 59.5888 45.0042 60.6521 42.2725 59.3723C42.6873 59.5108 43.1103 59.65 43.5302 59.7578C43.456 60.32 43.2409 60.1144 45.3035 60.6655C45.7597 60.773 45.8785 61.051 46.3789 60.8141C46.2754 61.1125 47.6967 61.0712 47.8232 61.0983C48.6758 61.406 45.4438 61.4734 45.1608 60.8012C44.6006 60.8912 44.6598 60.6287 44.0847 60.5146C43.2564 60.332 43.1129 60.3474 42.2471 59.802C41.1829 59.77 45.9264 61.1312 42.9547 60.5909C41.9285 60.3862 39.1311 59.4613 36.4723 57.1852L38.8051 56.8067C36.3518 61.9894 29.5586 65.7336 25.9028 66.0788C25.3133 66.1821 24.8171 66.2408 24.4305 66.2777C16.7692 66.6385 12.3643 64.3309 7.97401 59.0408C7.76171 58.7714 6.89755 57.5708 6.35882 56.4397C5.80661 55.315 5.53251 54.3237 5.87638 54.7618C5.96056 54.9005 7.0014 56.8074 6.44778 55.0186C6.46013 55.4268 5.93714 54.4613 5.89568 54.375C4.91535 52.5648 5.03696 53.6042 4.44889 50.7552C4.42834 50.6313 4.40801 50.5002 4.38829 50.3613ZM8.35815 41.5816C7.01334 45.0999 8.14649 42.5627 8.36308 43.4374C8.49653 42.9935 8.64994 42.5568 8.82353 42.1269C8.74965 42.2286 8.67756 42.33 8.60591 42.4341C8.60572 42.4346 8.60554 42.4351 8.60535 42.4355C8.51483 42.1573 8.43276 41.8713 8.35815 41.5816ZM32.0248 7.71577C31.9894 7.86953 31.9577 8.02175 31.9196 8.18383C31.6235 8.56395 31.3459 8.95734 31.0857 9.365C31.0768 9.2931 31.0669 9.22237 31.059 9.14997C31.3559 8.65569 31.6791 8.17968 32.0248 7.71577ZM38.1162 55.7249C38.5507 56.3259 38.6946 56.0432 39.3744 56.7189C39.4157 56.4584 39.4488 56.1966 39.494 55.9384C38.97 55.5828 38.7743 55.522 38.3407 55.099L37.1943 54.0357L36.3729 55.4183C36.3419 55.4666 36.308 55.5175 36.2705 55.5715C36.3468 55.5455 36.4237 55.5181 36.5001 55.4909L37.2277 54.2664L38.243 55.2081C38.2476 55.2439 38.2523 55.2796 38.2568 55.3151C38.3633 55.3877 38.4781 55.4624 38.5818 55.5308C38.5906 55.7186 38.1942 55.4631 38.0412 55.4334L37.2965 54.7427L36.7628 55.6409C36.7644 55.6886 36.7832 55.7099 36.8354 55.6823L37.3155 54.8743L37.9854 55.4957C37.9983 55.5411 38.0374 55.614 38.114 55.7237C38.1147 55.7241 38.1154 55.7245 38.1162 55.7249ZM44.5695 59.0452C44.9235 59.1929 46.4063 59.5872 46.629 59.4985C47.3438 59.3196 43.1756 58.7308 46.2721 59.0271C46.2653 58.9788 46.2863 58.9359 46.2933 58.8903C45.7455 58.7887 45.2053 58.6602 44.6685 58.5022C44.6498 58.6876 44.5833 58.8576 44.5695 59.0452ZM8.76368 54.7706C8.94377 55.3457 10.6287 57.5414 10.2947 56.6752C10.1887 56.4392 9.28186 55.5709 9.08256 55.1402C8.95043 54.8684 9.24797 55.0939 8.92935 54.5918C8.87545 54.6471 8.81013 54.6972 8.76484 54.7718C8.76445 54.7714 8.76407 54.771 8.76368 54.7706ZM7.42681 54.1432C7.69591 54.721 8.00955 55.2882 8.34585 55.8307C8.27926 55.3383 7.78473 54.5694 8.00865 54.4107C8.09674 54.5593 8.18597 54.7041 8.27812 54.8486C8.28272 54.991 8.28853 55.1324 8.2965 55.2745C8.67844 55.6845 8.56997 55.3685 9.04176 56.2472C9.08357 55.5131 9.18079 55.38 8.13146 54.0152C8.45796 54.2135 8.97476 53.6881 8.19481 53.0228C8.04693 52.8935 8.23494 53.5855 8.22828 53.5987C8.0966 53.7719 7.83899 53.4372 7.71893 53.6123C7.66311 53.6928 7.83386 54.1127 7.76073 54.2178C7.72314 54.2696 7.41443 53.9228 7.42681 54.1432ZM7.88414 52.659C8.04828 52.7977 8.10283 52.1238 7.92019 51.6155C7.63747 50.8103 7.70012 52.1802 7.88414 52.659ZM32.0266 7.71306C32.026 7.71397 32.0254 7.71487 32.0248 7.71577C32.025 7.7152 32.0251 7.71462 32.0252 7.71405C32.0257 7.71372 32.0261 7.71339 32.0266 7.71306ZM42.7464 58.3001C43.1952 58.3826 43.8143 58.6031 43.8155 58.4422C44.0098 58.5373 44.2093 58.6289 44.4086 58.7163C44.4191 58.6717 44.4277 58.6266 44.4381 58.5825C43.827 58.3799 43.2321 58.1404 42.654 57.8647C42.6804 58.0085 42.7027 58.1506 42.7464 58.3001ZM49.7381 59.518C50.5652 59.467 49.8553 59.3177 50.0275 59.2033C50.197 59.0931 50.9229 59.083 50.8185 58.9503C50.3476 59.0108 49.8546 59.0515 49.3754 59.0686C49.5088 59.2183 49.6075 59.3715 49.7398 59.5179C49.7392 59.5179 49.7387 59.518 49.7381 59.518ZM4.78056 28.5764C5.00661 29.078 4.74445 28.9784 5.48219 29.8043C5.48175 29.8036 5.4813 29.8029 5.48086 29.8022C5.0167 28.8632 4.52419 27.6483 4.02349 26.6259C4.11131 27.3374 4.44348 27.7795 4.78056 28.5764ZM35.5955 56.9066C35.5624 57.1742 36.278 56.3356 36.298 56.0628C36.3418 55.6394 35.6573 56.5167 35.5955 56.9066ZM8.67119 7.7588C9.20105 6.92095 7.45268 7.53135 6.27117 9.00562C6.16662 9.12393 7.10766 8.38944 6.90478 8.688C6.88231 8.71529 6.41086 9.15992 6.34088 9.31401C6.26904 9.46596 6.47336 9.43201 6.33335 9.6554C6.08521 10.0394 5.29962 10.717 5.19503 11.0661C5.17991 11.1086 5.69894 10.7155 5.73006 10.6922C6.21122 10.2599 6.47841 9.66688 6.54902 9.5922C6.90366 9.2182 6.97172 9.39845 7.09117 9.33639C7.31646 9.22074 7.57992 8.87981 7.60727 8.86418C8.27951 8.46426 6.94409 9.60364 6.84143 9.83276C6.53442 10.4116 7.00896 10.0686 6.12887 11.2699C6.04285 11.3868 5.01937 12.7074 6.46324 11.1599C4.31501 14.6634 7.83215 9.64306 8.47997 9.31284C8.68907 9.08265 8.22667 9.26097 8.32261 9.08357C8.5411 8.67154 9.1254 8.19829 8.93321 8.04911C8.517 7.73289 7.90743 8.61272 7.35037 9.02613C7.33116 8.8973 7.28052 8.80068 7.31262 8.62987C7.24147 8.86169 8.62355 7.80197 8.67177 7.75958C8.67157 7.75932 8.67138 7.75906 8.67119 7.7588ZM3.03078 16.8621C2.64055 17.7462 2.96448 17.749 2.63198 18.5682C2.78622 19.3639 3.01159 17.8854 3.08213 17.7245C3.33739 16.9693 3.62508 17.0751 3.77781 16.2904C3.51957 16.492 3.27775 16.6561 3.03078 16.8621ZM7.25225 9.90042C6.9246 10.4577 7.71058 9.65996 7.76965 9.65783C8.31549 9.52558 5.98839 11.8796 7.25225 9.90042ZM10.233 58.1938C10.4342 58.452 10.4171 58.1959 10.637 58.3838C10.8506 58.5748 11.436 59.3692 11.4899 59.2815C11.5245 59.197 10.5013 57.7571 11.7542 58.9892C11.7496 58.9097 11.7918 58.8957 11.8057 58.8416C11.469 58.5025 11.1459 58.1444 10.8421 57.7763C10.8913 58.0753 10.9502 58.3871 11.0166 58.678C10.7395 58.556 10.7549 58.3332 10.7456 58.3229C10.7454 58.323 10.7453 58.3231 10.7452 58.3232C10.4014 57.9479 9.79217 57.6054 10.233 58.1938ZM9.71881 34.4913C9.4262 34.7557 10.2939 34.8188 10.5792 34.9258C10.8648 35.0414 11.1681 35.3631 11.1072 35.1443C10.7268 34.821 9.75171 34.469 9.71854 34.4917C9.71863 34.4916 9.71872 34.4915 9.71881 34.4913ZM2.44296 21.9646C2.58338 22.7541 2.66286 22.6159 2.67727 23.589C2.76275 23.5384 2.85045 23.4881 2.93498 23.439C2.84311 22.6926 2.57648 22.7636 2.63625 21.8729C2.65015 21.728 2.86726 22.0269 2.78653 21.3836C2.67454 21.5722 2.55356 21.7684 2.44296 21.9646ZM3.41932 25.7527C3.16846 24.9041 2.26289 24.3558 3.02683 25.9149C3.14823 26.144 3.62632 26.392 3.41932 25.7527ZM6.70832 50.5025C6.91022 51.6571 6.83411 50.9733 6.81393 50.3714C6.80785 50.1614 6.81064 49.9628 6.82644 49.8551C6.85573 50.042 6.88493 50.2081 6.91257 50.3554C7.26963 52.0041 7.0919 51.2457 7 50.3412C6.94942 49.7933 6.96585 49.1953 7.09187 49.0584C6.94547 48.6397 6.66895 47.8145 6.64567 48.7415C6.64411 49.1296 6.74861 48.9794 6.74936 49.0028C6.78325 49.6779 6.60669 49.6502 6.69252 50.3911C6.69704 50.4265 6.70227 50.4636 6.70832 50.5025ZM3.54237 15.293C3.52618 15.3495 3.67849 15.3117 3.63547 15.4934C3.59142 15.6739 3.36672 16.0402 3.42906 16.1052C3.48744 16.1673 3.82748 15.4046 3.87826 15.1488C3.92473 14.8908 3.69626 14.7804 3.54237 15.293ZM2.09139 21.1199C2.18408 21.9075 2.65536 20.6261 2.6725 20.4714C2.74101 19.0026 2.21472 21.1481 2.09139 21.1199ZM5.69674 46.8046C5.89561 48.8042 6.29403 47.3196 6.65413 46.1789C6.61847 46.0185 6.58569 45.8524 6.55515 45.6916C6.79561 46.4442 6.92165 47.6713 7.01778 44.9388C6.71721 46.4108 6.82095 45.1568 6.80779 45.1419C6.24226 44.8754 6.27168 47.1984 5.69683 46.8028C5.6968 46.8034 5.69677 46.804 5.69674 46.8046ZM4.76973 13.0918C5.14411 12.375 6.37651 10.6439 5.57311 11.278C5.26497 11.8721 4.99792 12.4771 4.76973 13.0918ZM27.4891 64.3656C28.2103 64.3128 28.8428 64.104 29.6516 63.7574C28.8415 63.8638 29.3177 63.6482 29.5393 63.5011C29.8771 63.2784 28.99 63.6521 28.9802 63.6345C28.9265 63.4391 29.4875 63.2203 28.1902 63.6798C28.4919 63.5088 28.7827 63.3301 29.0705 63.1427C28.0991 63.5081 27.8182 63.4456 27.1554 63.4702C27.8626 63.6657 27.0077 63.6773 26.2997 64.0137C25.9391 64.1864 27.1152 64.4035 27.4917 64.3649C27.4908 64.3651 27.4899 64.3653 27.4891 64.3656ZM5.63235 48.8716C5.71439 49.0733 5.82241 49.2518 5.91998 49.4405C5.94866 49.6525 5.98062 49.8659 6.01718 50.0767C5.96072 50.1111 5.90097 50.1419 5.84763 50.181C5.87143 50.4659 5.93926 50.3431 5.95982 50.4255C5.95949 50.4255 5.95917 50.4256 5.95885 50.4257C5.9658 50.4531 5.97268 50.4801 5.97951 50.5068C6.27723 51.6242 6.38719 52.0907 6.48619 53.0346C6.66316 52.9781 6.84013 52.9215 7.0171 52.8649C6.9373 52.6735 6.86056 52.4774 6.78789 52.2811C6.66187 52.2009 6.53633 52.1185 6.41169 52.0349C6.40405 51.7847 6.40179 51.5362 6.40499 51.2867C6.3294 51.1051 6.24797 50.8823 6.18418 50.721C6.2371 50.5582 6.28434 50.4755 6.32475 50.4508C6.33821 50.4426 6.35096 50.4408 6.36309 50.4446C6.53631 50.5055 6.63628 51.8875 6.81904 51.859C6.90045 51.8454 6.74001 51.0855 6.62426 50.4022C6.54372 49.9485 6.47537 49.5321 6.425 49.4116C6.40784 49.3664 6.06514 49.8812 6.1931 49.0576C6.21843 48.9232 7.03324 48.8438 6.33428 48.0166C6.23725 47.8936 5.71801 48.3352 5.63235 48.8716ZM7.8355 56.8198C7.74105 56.126 8.15603 56.8857 8.57429 57.5278C8.99384 58.1723 9.38036 58.7151 8.95177 57.7721C9.49126 58.0918 9.41617 58.0008 9.26336 57.4151C9.25015 57.3641 9.5326 57.6403 9.52048 57.6078C9.30396 57.1157 8.91424 56.622 9.09745 56.5007C9.01288 56.3888 8.93538 56.2827 8.85352 56.1685C8.98192 56.7763 8.37432 56.0536 8.04975 55.8048C7.89992 55.6937 8.06409 56.0469 7.93549 55.955C7.88589 55.9216 7.67782 55.4139 7.60496 55.4249C7.43894 55.4547 7.3897 55.8682 7.58028 56.4508C7.58014 56.4509 7.57999 56.4509 7.57985 56.451C7.66356 56.577 7.74856 56.6968 7.8355 56.8198ZM6.95813 33.8314C7.00197 33.4607 6.44497 32.8473 7.73375 33.8213C7.71176 33.7252 7.68869 33.628 7.6687 33.5321C7.46506 33.3573 7.27153 33.1833 7.0737 32.9955C5.84581 33.0348 5.599 31.179 5.76362 32.3374C5.78124 32.4636 6.27915 32.9063 5.70832 32.5399C5.70878 32.5407 5.70924 32.5415 5.7097 32.5422C6.3626 33.1871 6.51649 33.1857 6.95813 33.8314ZM9.73656 37.1127C9.21069 38.4969 10.3156 37.0029 10.9835 36.2114L11.1175 36.0772L10.9466 35.9842C10.5072 35.8016 10.2122 35.6979 10.4097 35.8712C10.4275 35.8864 10.6225 35.9861 10.8793 36.1129C10.4406 36.5741 9.8277 37.3268 9.73656 37.1127ZM1.46149 24.6113C1.6451 25.5612 2.00665 25.5314 2.0962 25.4112C2.18789 25.2914 1.92673 24.6869 1.93184 24.5988C1.94053 24.319 2.0942 24.877 2.10972 24.5143C2.1115 24.4704 2.08711 24.2335 2.06377 23.9422C2.0187 23.4283 1.99956 22.7604 1.9877 22.7135C1.87304 22.3117 1.64796 22.9345 1.60672 22.8212C1.4648 22.4414 1.58451 21.9039 1.43492 21.7961C1.10927 21.5606 1.48269 22.5467 1.50997 22.7068C1.5715 23.2084 1.39304 23.1829 1.40611 23.5663C1.41366 23.7471 1.44101 23.8962 1.47239 24.0381C1.50757 24.1967 1.54761 24.3453 1.5743 24.5207C1.59134 24.6313 1.45331 24.5632 1.46149 24.6113ZM3.01102 27.4085C2.40981 26.5872 3.04887 28.9204 3.27727 29.1408C3.8108 29.7979 3.2562 27.7964 3.01102 27.4085ZM7.18607 53.6122C6.70265 52.8371 7.28493 54.8523 7.65341 55.3464C7.65862 55.214 7.33518 53.8772 7.18607 53.6122ZM5.73666 46.2522C5.7336 47.086 6.21192 46.0176 6.30899 45.356C6.09971 44.9207 6.09026 45.3002 6.02598 45.745C5.96567 46.1912 5.75476 45.5995 5.73666 46.2522ZM2.82631 14.4857C2.69737 14.6405 2.02903 17.4373 2.62226 15.903C2.64084 15.7778 3.35898 13.9232 3.41619 13.779C3.47648 13.4668 3.01685 14.0616 2.82631 14.4857ZM6.16167 42.2107C6.24316 42.714 6.12537 43.1274 6.50463 42.8171C6.5048 42.8166 6.50497 42.816 6.50514 42.8154C6.2796 43.9003 5.74318 43.8298 5.6966 44.0732C5.56871 44.9238 6.12094 44.2078 6.15323 44.7499C6.26773 43.5314 6.46512 43.9301 6.71977 43.0536C6.77477 42.8574 6.8806 42.025 6.83322 41.8747C6.7804 41.7239 6.34682 42.0238 6.16167 42.2107ZM4.81896 10.921C4.15743 11.6633 4.01362 12.6175 4.80375 11.5429C5.20019 11.0338 5.2269 10.4805 4.81896 10.921ZM45.6104 60.655C45.4803 60.5297 45.348 60.4025 45.2129 60.273C45.5675 60.3218 45.9237 60.3588 46.279 60.3844C45.9966 60.3763 45.7126 60.3604 45.4269 60.3368C46.078 60.4936 46.3651 60.717 45.6122 60.6553C45.6116 60.6552 45.611 60.6551 45.6104 60.655ZM65.0517 49.5166C65.2515 49.2588 65.1486 48.5919 65.102 48.6592C64.7715 49.1474 64.7783 49.8654 65.0517 49.5166ZM6.86333 55.1999C7.332 56.2602 7.40323 55.3294 7.15747 54.6898C7.24651 55.1178 6.61448 54.592 6.86333 55.1999ZM60.2817 56.5372C60.1777 56.5743 60.0731 56.6109 59.9597 56.6537C60.2676 56.4626 60.3388 56.4468 60.2817 56.5372ZM2.25146 14.752C2.14025 14.8961 1.685 16.1225 1.69186 16.3087C1.68438 16.6822 2.21653 15.7942 2.35041 15.2216C2.36237 15.1582 2.34984 14.6043 2.25045 14.7546C2.25078 14.7537 2.25112 14.7529 2.25146 14.752ZM47.1154 61.0438C47.1138 61.039 47.1153 61.0347 47.1193 61.0309C47.1176 61.0352 47.1175 61.0397 47.1154 61.0438ZM57.7336 29.1737C57.7231 29.174 57.715 29.1718 57.7102 29.1664C57.7173 29.1691 57.7266 29.1698 57.7336 29.1737ZM0.781768 23.8246C0.701686 23.9269 0.65483 24.0501 0.632812 24.1744C0.546525 24.6659 0.841787 25.1396 0.899565 24.4725C0.901573 24.4476 0.869705 24.2948 0.839598 24.1408C0.813322 24.0074 0.78843 23.874 0.781768 23.8246ZM33.6036 32.4659C34.0438 31.8491 34.5351 31.1665 35.1209 30.6689C35.1926 30.6078 35.2851 30.7056 35.316 30.6991C35.3232 30.6976 35.3293 30.6952 35.3343 30.6921L35.7932 33.5203C35.7462 33.4792 35.6495 33.5767 35.6123 33.5449C35.4149 33.3762 35.2198 33.2409 35.0321 33.0723C34.8394 32.8981 35.1571 32.6005 35.1352 32.469C35.0951 32.212 34.9351 32.7516 34.8146 32.8215C34.6633 32.6913 34.527 32.5357 34.396 32.3787C34.4637 32.3623 34.5307 32.3464 34.5964 32.3326C34.531 32.2773 34.4767 32.1415 34.6717 32.0985C34.667 32.0488 34.6679 31.9947 34.6625 31.9454C34.5468 32.1069 34.4141 32.0383 34.3374 32.1283C34.2607 32.2185 34.3461 32.2428 34.34 32.2511C34.2536 32.3705 34.0773 32.0097 34.0675 31.982C34.0383 31.9088 34.2257 31.7397 34.1713 31.7211C34.0786 31.6893 33.8407 32.1336 34.1202 31.5167C33.9535 31.6633 34.0147 31.5691 33.9712 31.5194C33.9654 31.5129 33.8976 31.6182 33.8926 31.6187C33.7585 31.6362 33.9562 31.4922 33.9631 31.4816C34.0812 31.303 33.9417 31.3191 33.9361 31.2894C33.8669 30.9207 33.818 30.6651 33.6352 30.4428C33.5957 30.3953 33.3969 30.3448 33.3748 30.2787C33.3531 30.2138 33.476 30.1155 33.5004 30.0394C33.2254 30.2929 33.1611 30.2925 33.2373 30.0358C33.03 30.2145 33.1762 30.0524 33.0818 30.0421C33.0039 30.0339 32.7019 30.2003 32.8322 29.9456C32.8771 30.0194 32.9593 29.9147 33.0813 29.9152C33.1214 29.9161 33.3675 30.1198 33.5279 29.8925C33.6117 29.7747 33.4472 29.8084 33.4614 29.7855C33.5448 29.6529 33.7119 29.5456 33.707 29.6289C33.6772 29.6446 33.6451 29.6589 33.6144 29.6738C33.5764 29.8956 33.9963 29.2766 33.6435 29.8293C33.6004 29.8972 33.5437 29.9582 33.5031 30.0346C33.5284 30.0102 33.5674 29.9295 33.5919 29.9297C33.6166 29.93 33.5391 30.0801 33.6323 29.9768C33.7677 29.8266 33.6561 29.8372 33.6591 29.8243C33.6583 29.8252 33.6575 29.8261 33.6566 29.8269C33.6855 29.7111 33.7771 29.772 33.7934 29.7606C33.8998 29.6853 33.9443 29.5963 34.0489 29.5479C34.1085 29.5203 34.1418 29.5928 34.1745 29.5947C34.2073 29.5961 34.236 29.4962 34.2626 29.4914C34.2892 29.4866 34.2604 29.5568 34.2915 29.5513C34.305 29.5487 34.3716 29.4655 34.3772 29.4652C34.4385 29.4619 34.2761 29.6159 34.3172 29.6315C34.3442 29.6417 34.5431 29.5356 34.533 29.4489C34.5695 29.4505 34.6019 29.4561 34.6353 29.461C34.6404 29.4247 34.6387 29.3959 34.6478 29.3555C34.6595 29.4295 34.7918 29.3014 34.8269 29.3115C34.862 29.3217 34.7522 29.5138 34.8475 29.4523C35.0494 29.321 34.8287 29.2834 34.8346 29.236C34.837 29.2176 34.9715 29.1051 34.9788 29.1046C35.0115 29.1029 34.9594 29.2178 34.978 29.2252C35.0452 29.2512 35.1768 29.148 35.2479 29.1608C35.4906 29.2054 35.7618 29.2893 35.9513 29.3758C36.0215 29.4081 35.958 29.5847 35.9898 29.5999C36.0641 29.635 36.1599 29.5081 36.2229 29.5394C36.3167 29.5854 36.3661 29.7811 36.4253 29.853C36.4662 29.9027 36.5934 29.8006 36.6086 29.8054C36.8227 29.8722 37.0488 30.0066 37.2072 30.0915C37.2814 30.1313 37.2349 30.3021 37.2529 30.3061C37.3299 30.3231 37.3814 30.1834 37.4281 30.225C37.4534 30.2474 37.393 30.3755 37.3944 30.3825C37.3993 30.4052 37.4159 30.396 37.436 30.3764L39.4731 32.1287L37.8869 33.1552C37.9083 33.1956 37.9534 33.2531 37.9431 33.2692C37.8484 33.4185 37.646 33.4589 37.5167 33.5768C37.5073 33.5852 37.4469 33.5298 37.4446 33.5387C37.4362 33.5784 37.5434 33.6519 37.5262 33.6853C37.4911 33.7553 37.4241 33.7996 37.3593 33.85C37.3529 33.855 37.2707 33.7892 37.2587 33.8031C37.2467 33.8171 37.3137 33.8924 37.2909 33.9106C37.2316 33.9582 37.0924 33.9386 37.0364 33.9964C37.0272 34.0061 37.1149 34.0992 37.1014 34.1135C37.0592 34.1585 36.9119 34.1579 36.8753 34.1974C36.7553 34.3275 36.7138 34.5005 36.6163 34.6336C36.5932 34.6647 36.478 34.623 36.4637 34.6378C36.4317 34.6714 36.5418 34.7088 36.515 34.7465C36.2958 35.0533 36.0421 35.3409 35.8482 35.6721C35.7716 35.8023 35.7772 36.0175 35.678 36.1268C35.6663 36.1395 35.6469 36.1435 35.6246 36.1433L33.924 37.9664L32.9556 36.5764C32.9679 36.5207 33.0101 36.4517 32.9877 36.4304C32.9313 36.3781 32.791 36.5169 32.7181 36.4795C32.6602 36.4496 32.7322 36.2526 32.6729 36.2185C32.6138 36.1845 32.4679 36.3113 32.395 36.2808C32.3352 36.2555 32.3221 36.1333 32.2599 36.1015C31.6902 35.8109 31.1561 35.5308 30.7023 35.0765C30.541 34.9154 30.3169 34.8163 30.2055 34.5408C30.195 34.5147 30.3133 34.3694 30.2329 34.3695C30.1895 34.3697 30.0677 34.4841 29.988 34.4507C29.9552 34.4369 29.923 34.4215 29.8915 34.4048L27.9226 32.7112L29.4557 31.7191C29.7899 31.3772 30.3482 31.1799 30.6079 30.7506C31.0456 30.031 30.3387 28.7255 32.3398 29.0911C32.4389 29.1075 32.8308 29.3526 32.9336 29.437C32.8422 29.408 32.7364 29.3686 32.6342 29.3337C33.1206 29.6452 32.9926 29.5668 32.8977 29.6263C32.8389 29.6628 33.0765 29.7458 33.12 29.8099C33.1768 29.8924 33.3146 30.2156 33.0083 29.9835C33.0584 30.0286 33.1066 30.0715 33.1555 30.1159C33.1278 30.2723 33.1321 30.4453 33.1445 30.6282C33.1468 30.6599 33.2468 30.7261 33.2485 30.7587C33.2534 30.8469 33.1565 30.8509 33.1261 30.9184C33.1096 30.955 33.2216 31.0368 33.1849 31.0754C33.1481 31.114 32.9943 31.0075 33.1219 31.1811C33.3422 31.275 33.0832 31.3513 33.0523 31.4197C33.0478 31.4294 33.1684 31.6239 33.1208 31.6486C33.0736 31.6737 32.9226 31.6528 32.941 31.7569C32.9497 31.8058 33.0694 31.9202 33.0545 31.956C33.044 31.9811 32.908 31.9193 32.8834 31.9421C32.8588 31.9649 32.911 32.0945 32.9045 32.1063C32.8819 32.1491 32.8321 32.0451 32.8083 32.0679C32.6946 32.1787 32.5398 32.287 32.4967 32.4504C32.4913 32.4704 32.6019 32.5258 32.6035 32.5303C32.6371 32.7247 32.5582 32.5717 32.4523 32.5304C32.3501 32.4908 32.2376 32.7158 32.3965 32.8528C32.1902 32.6892 32.3086 32.8606 32.305 32.8767C32.2915 32.9387 32.1254 32.7825 32.144 32.869C32.1506 32.9008 32.2926 32.9717 32.2752 32.9849C32.2321 33.018 32.0142 32.892 31.9501 32.9277C31.9346 32.9362 32.0138 33.013 31.9912 33.033C31.9686 33.0532 31.7846 33.0572 31.9966 33.1684C31.8068 33.1015 31.873 33.1807 31.8096 33.2431C31.7932 33.2588 31.6428 33.1604 31.6514 33.2324C31.6543 33.2569 31.7805 33.3724 31.765 33.3913C31.7297 33.4349 31.5644 33.3526 31.5114 33.3988C31.4574 33.4454 31.4308 33.5215 31.397 33.5924L31.1408 32.0138C31.2064 32.0243 31.2698 32.0407 31.3156 32.0884C31.3428 32.1167 31.2531 32.2638 31.2987 32.2922C31.3055 32.2959 31.4337 32.1963 31.4599 32.2267C31.4757 32.2449 31.5264 32.3927 31.5424 32.4115C31.5694 32.4421 31.6574 32.3008 31.6599 32.3396C31.6671 32.4516 31.5025 32.6396 31.733 32.3855C31.6616 32.5586 31.708 32.564 31.605 32.7686C31.7522 32.5643 31.659 32.7885 31.7426 32.7404C31.8262 32.6921 32.109 32.2957 31.852 32.7503C31.9037 32.7072 32.0423 32.6641 32.0604 32.6659C32.1132 32.6718 32.0162 32.7818 32.0572 32.784C32.0643 32.7845 32.1101 32.6967 32.14 32.7265C32.1597 32.7459 32.3237 32.8554 32.3263 32.8733C32.3565 33.0755 32.2123 32.9169 32.1313 32.9927C32.1419 32.9662 32.1525 32.9397 32.1626 32.9133C32.1371 32.8425 32.0481 33.0499 32.043 33.1077C32.0379 33.1655 32.1324 33.1075 32.1119 33.1812C32.1015 33.2181 31.9529 33.4406 31.9428 33.3961C31.9282 33.4842 31.8419 33.5328 31.8123 33.6056C31.7799 33.6853 31.8944 33.7892 31.9749 33.6659C31.9535 33.646 31.9205 33.631 31.8992 33.6103C32.0028 33.3726 32.575 32.6993 32.4798 33.0544C32.4087 33.3101 32.1887 33.4061 32.4619 33.3318C32.4435 33.3073 32.4363 33.2739 32.4201 33.2505C32.5231 33.0883 32.443 33.2884 32.495 33.2494C32.5204 33.2304 32.5403 33.0806 32.613 33.0743C32.5024 33.3306 32.6863 33.1209 32.7572 33.1647C32.7107 33.1924 32.6645 33.2201 32.6183 33.2482C32.6215 33.4901 32.3214 33.3681 32.4791 33.6082C32.4478 33.5978 32.4229 33.5782 32.3889 33.5717C32.3457 33.6641 32.161 33.8966 32.1376 33.9561C32.0756 34.1121 32.1737 34.0588 32.2012 34.0949C32.2133 34.1105 32.1587 34.17 32.1597 34.1713C32.1759 34.193 32.2372 34.093 32.2601 34.0996C32.2889 34.108 32.2916 34.2482 32.3097 34.2451C32.3569 34.2375 32.4417 34.015 32.4541 34.0026C32.5362 33.9233 32.5205 34.0256 32.6024 33.9042C32.4558 33.9239 32.2641 33.6379 32.6403 33.601C32.7076 33.3604 32.9095 33.1031 33.0231 33.1503C33.1166 33.189 32.9898 33.2601 32.9493 33.407C32.9446 33.4256 33.0113 33.5567 33.0756 33.4778C32.9359 33.6656 32.8494 33.8584 32.6868 34.039C32.663 34.0655 32.6291 34.0244 32.5315 34.1931C32.4825 34.2779 32.38 34.4654 32.3047 34.5642C32.3631 34.4997 32.4282 34.4269 32.4891 34.3598C32.5652 34.3833 32.5198 34.4653 32.4583 34.6195C32.4964 34.5641 32.631 34.313 32.6277 34.4167C32.6271 34.4226 32.5696 34.506 32.5635 34.5639C32.5518 34.6802 32.5423 34.7121 32.3305 34.9258C32.5277 34.8602 32.3504 35.1416 32.5054 35.1373C32.7174 34.818 32.6247 34.8663 32.4901 34.8582C32.5404 34.7822 32.5921 34.7084 32.6427 34.6315C32.6421 34.8881 32.5932 34.8255 32.7737 34.7302C32.818 34.7068 32.8787 34.8141 33.0052 34.5866C33.0349 34.5329 32.9737 34.4951 33.0379 34.424C33.0501 34.4104 33.148 34.4268 33.1391 34.4511C33.0294 34.7514 32.7652 34.8148 33.039 34.8874C33.0466 34.8893 33.1175 34.8033 33.1382 34.7999C33.177 34.7937 33.0973 34.8951 33.1343 34.8864C33.1712 34.8777 33.3055 34.7627 33.2332 34.9103C33.1003 35.1783 32.8781 35.2152 32.9214 35.0524C32.6665 35.3357 33.0252 35.6359 33.0675 35.631C33.2567 35.6039 33.0412 35.5305 33.0998 35.4421C33.1249 35.4047 33.4876 34.9678 33.211 35.2174C33.1294 35.2917 33.09 35.4454 33.0209 35.4666C32.952 35.4879 33.0701 35.3685 33.0752 35.3577C33.0928 35.3204 33.0206 35.3415 33.0312 35.3196C33.1909 34.986 33.5393 34.5684 33.1222 35.2643C33.2758 35.1554 33.3689 34.858 33.4956 34.8023C33.6506 34.7355 33.5296 34.9716 33.5293 34.9865C33.5299 35.1667 33.6693 34.7906 33.701 34.9748C33.7179 35.0769 33.4493 35.0915 33.6019 35.188C33.7293 35.269 33.7536 35.1169 33.9564 34.8967C34.0038 34.8452 34.1242 34.8353 34.0164 34.7836C33.9634 34.8407 33.892 34.9148 33.8399 34.9648C33.8559 34.9036 34.0718 34.5755 34.0687 34.5551C34.0534 34.4575 33.9265 34.6153 34.0454 34.404C33.9026 34.6245 33.964 34.4711 33.9141 34.5013C33.7302 34.6127 33.7546 34.7301 33.7973 34.4281C33.7361 34.5359 33.6745 34.6405 33.6123 34.7471C33.5953 34.7385 33.5781 34.73 33.561 34.7215C33.7099 34.4954 33.609 34.4581 33.8511 34.3053C33.8133 34.1756 33.7407 34.1931 33.5917 34.3422C33.5633 34.3706 33.5405 34.3729 33.5229 34.364C33.4893 34.4124 33.3799 34.558 33.3637 34.5736C33.2212 34.7111 33.3984 34.4191 33.4895 34.3261C33.4827 34.3129 33.4787 34.3005 33.4777 34.2957C33.4712 34.2651 33.5805 34.2021 33.5899 34.1585C33.5928 34.1442 33.5234 34.1223 33.5516 34.0839C33.7319 33.838 33.6876 34.0815 33.6147 33.8015C33.4417 34.0186 33.5619 34.0342 33.3603 34.2511C33.1445 34.4847 33.3574 34.1124 33.1113 34.4136C33.1464 34.36 33.1771 34.3164 33.218 34.256C33.0445 34.3368 33.2388 34.0781 33.2595 34.0042C33.3 33.8598 33.0881 33.7295 33.0994 34.0867C33.0569 34.0899 33.0228 34.0808 32.9825 34.0818C33.3203 33.61 33.1999 33.8075 33.1247 33.6434C33.1082 33.6073 33.2475 33.3932 33.0432 33.6197C33.2201 33.3806 33.0312 33.4666 33.0444 33.4318C33.1278 33.2031 33.5101 33.074 33.2259 33.5178C33.3776 33.3749 33.2186 33.5938 33.2746 33.5903C33.3556 33.5854 33.3946 33.5486 33.335 33.7531C33.5625 33.5711 33.1762 33.4824 33.5753 33.3126C33.941 33.1505 34.9472 33.6906 35.3204 33.9359L32.5462 34.386C32.5614 34.3442 32.5743 34.309 32.5842 34.2818C32.783 33.7406 32.8905 33.4486 33.1922 33.0317C33.221 32.99 33.4191 32.6607 33.6387 32.9142C33.6698 32.9508 33.6791 33.1525 33.9664 33.1876C33.8272 33.1235 33.7939 33.0011 33.785 32.9863C33.5831 32.6497 33.4582 32.6709 33.6036 32.4659ZM36.3225 33.6856C36.0916 33.8573 36.389 33.832 36.7392 34.1805C36.7615 34.1544 36.7837 34.1285 36.8062 34.1027C36.7765 34.0905 36.7469 34.0783 36.7172 34.0663C36.7172 34.0663 36.7171 34.0663 36.7171 34.0663C36.5852 33.9399 36.4537 33.8129 36.3225 33.6856ZM34.6911 29.1749C34.7398 29.1311 34.7883 29.087 34.8366 29.0447C34.8519 29.0825 34.8675 29.1199 34.8831 29.1577C34.8527 29.1896 34.822 29.2219 34.7915 29.2537C34.7592 29.2259 34.7273 29.198 34.6911 29.1749ZM32.8463 35.0839C32.915 34.9096 32.7221 35.1655 32.756 35.0072C32.6184 35.1998 32.4844 35.3887 32.3479 35.5792C32.4098 35.5828 32.4745 35.5192 32.4828 35.5992C32.5246 35.5354 32.5666 35.4711 32.6087 35.4069C32.5912 35.414 32.5719 35.4224 32.5558 35.4282C32.6751 35.2513 32.7671 35.2831 32.8468 35.0836C32.8466 35.0837 32.8465 35.0838 32.8463 35.0839ZM32.3581 34.8341C32.3537 34.7926 32.33 34.6327 32.2604 34.7035C32.0259 34.9438 32.4011 34.9547 32.0427 35.0602C32.0164 35.0987 31.9889 35.1352 31.9619 35.1726C31.9858 35.2099 32.0107 35.2453 32.0364 35.2802C32.143 35.1305 32.2513 34.9848 32.3581 34.8341ZM35.7367 34.5015C35.6905 34.5222 35.704 34.7787 35.9152 34.8427C35.9766 34.862 35.7799 34.6171 35.8107 34.5959C35.8304 34.5825 35.9513 34.6975 35.9267 34.6269C35.8661 34.5867 35.7994 34.5413 35.7371 34.5019C35.737 34.5017 35.7368 34.5016 35.7367 34.5015ZM34.9997 33.8804C34.9965 33.9358 34.9996 33.9962 34.9984 34.0527C35.1722 34.132 35.1118 34.0079 35.3303 34.1572C35.3394 34.1791 35.3485 34.2007 35.3577 34.2226C35.3048 34.1972 35.252 34.1718 35.1991 34.1465C35.2941 34.2615 35.3664 34.2823 35.2905 34.3191C35.6449 34.5098 35.8234 34.6283 35.5642 34.2941C35.7281 34.4381 36.3171 34.8294 35.944 34.4824C35.8751 34.4176 35.7934 34.4242 35.7808 34.4161C35.6247 34.3154 35.5454 34.2224 35.3974 34.128C35.3304 34.0853 35.312 34.1132 35.2192 34.0538C35.174 34.0247 35.0676 33.9097 34.9997 33.8804ZM35.8192 34.3528C35.9027 34.4293 36.1464 34.5472 36.1258 34.4834C36.0946 34.3834 35.8309 34.3146 35.8192 34.3528ZM34.6907 29.175C34.6909 29.175 34.691 29.175 34.6911 29.1749C34.6909 29.1751 34.6907 29.1753 34.6905 29.1754C34.6906 29.1753 34.6907 29.1751 34.6907 29.175ZM32.3978 35.0249C32.3142 35.0819 32.2835 35.042 32.1963 35.1665C32.2012 35.133 32.2057 35.0999 32.2105 35.0664C32.1836 35.1033 32.1568 35.1404 32.1302 35.177C32.1517 35.228 32.1727 35.2791 32.1933 35.3305C32.2616 35.229 32.3305 35.1273 32.3978 35.0249ZM32.0309 34.6302C31.9894 34.5827 31.9139 34.7819 31.846 34.8564C31.7784 34.931 31.7806 34.8339 31.7047 34.9556C31.7304 34.98 31.7572 35.0054 31.7833 35.0298C31.8647 34.8966 31.9499 34.7625 32.0308 34.6301C32.0309 34.6301 32.0309 34.6301 32.0309 34.6302ZM37.1813 32.9368C37.121 32.9362 37.0156 32.8175 37.0976 33.0016C37.0976 33.0016 37.0977 33.0016 37.0977 33.0015C37.2449 33.0319 37.3945 33.0398 37.3609 32.8933C37.2045 32.8166 37.2759 32.9376 37.1813 32.9368ZM32.6708 35.5385C32.7624 35.4516 32.7641 35.3195 32.6781 35.3997C32.5394 35.5298 32.5322 35.6708 32.6708 35.5385ZM35.4022 31.2449C35.1387 31.5334 35.0165 31.9682 35.2322 31.8822C35.2507 31.8745 35.2408 31.7243 35.3026 31.6742C35.3087 31.6693 35.3445 31.7023 35.3826 31.6629C35.4208 31.6234 35.4757 31.511 35.5194 31.4765C35.5955 31.4161 35.5718 31.5999 35.6554 31.5103C35.6664 31.4982 35.7131 31.3317 35.7141 31.3249C35.7262 31.2143 35.5734 31.3759 35.5662 31.3731C35.53 31.3595 35.6248 31.2174 35.6379 31.1783C35.6625 31.1048 35.596 31.1522 35.597 31.1463C35.6283 30.9893 35.7154 31.0942 35.7626 31.0508C35.8894 30.9338 35.9341 30.7802 36.0765 30.7572C36.0902 30.7552 36.1904 30.8276 36.1565 30.5836C36.6207 30.3987 36.1461 30.3127 36.058 30.3593C36.0171 30.3817 35.9599 30.5379 35.9093 30.5925C35.7932 30.7175 35.7306 30.7128 35.6082 30.9147C35.3515 31.3397 35.5888 31.105 35.5878 31.2027C35.5262 31.2913 35.4689 31.3794 35.4044 31.4635C35.4925 31.3514 35.4216 31.223 35.4027 31.244C35.4025 31.2443 35.4023 31.2446 35.4022 31.2449ZM36.3827 31.1724C36.3702 31.3374 36.5194 31.0619 36.4878 31.2495C36.6737 31.031 36.5681 30.9938 36.5649 30.9736C36.5487 30.8831 36.7013 30.6179 36.6038 30.6706C36.5314 30.8377 36.4553 31.0049 36.3827 31.1724ZM35.9266 30.7518C36.0494 30.6412 35.9777 30.6 35.991 30.5725C36.1301 30.2804 36.3051 30.4617 35.9266 30.7518ZM35.0635 34.3676C35.0411 34.3816 35.1755 34.4539 35.201 34.4965C35.2267 34.5391 35.0786 34.5269 35.1582 34.5779C35.2384 34.6282 35.5144 34.6576 35.4865 34.7949C35.5332 34.8207 35.5654 34.8439 35.6065 34.8688C35.6272 34.8403 35.649 34.812 35.6699 34.7836C35.5323 34.7139 35.3875 34.6407 35.254 34.5742C35.1643 34.4893 35.3004 34.567 35.3009 34.5661C35.3008 34.566 35.3007 34.5659 35.3005 34.5659C35.3114 34.5279 35.1137 34.3361 35.0635 34.3676ZM36.5787 33.1682C36.2948 32.915 36.5807 33.2341 36.6023 33.2815C36.6234 33.3291 36.496 33.2617 36.6284 33.3586C36.7378 33.4041 36.6101 33.1967 36.5783 33.1679C36.5785 33.168 36.5786 33.1681 36.5787 33.1682ZM36.7162 31.3558C36.8116 31.3022 36.8494 31.2104 36.8598 31.3435C36.9002 31.2609 36.9416 31.1765 36.9815 31.0952C36.9332 31.0675 36.811 31.3048 36.8041 31.1794C36.8031 31.1587 36.924 30.9818 36.8495 31.0194C36.8077 31.1261 36.7603 31.244 36.7162 31.3558ZM37.1946 32.6322C37.2295 32.5753 36.7308 32.0207 36.8865 32.3433C36.9099 32.3915 37.1683 32.6755 37.1946 32.6322ZM35.4119 33.8407C35.3258 33.9221 35.5009 33.8858 35.6105 33.9299C35.5261 34.2 35.6036 33.8858 35.9244 34.0923C35.8564 34.0023 35.6952 33.8046 35.6012 33.8196C35.5621 33.826 35.6591 33.8852 35.6577 33.8863C35.6041 33.9115 35.459 33.7963 35.4119 33.8407ZM36.2679 31.1278C36.2745 31.1251 36.3329 31.0105 36.3576 30.9951C36.3821 30.9799 36.3642 31.0732 36.406 31.0064C36.448 30.9391 36.4254 30.8552 36.3801 30.8957C36.3346 30.9366 36.2092 31.1509 36.2679 31.1278ZM36.5016 31.6212C36.5966 31.5675 36.7389 31.1066 36.7278 31.103C36.6207 31.0726 36.5748 31.4906 36.5016 31.6212ZM34.9337 33.1381C35.0368 33.4003 35.436 33.5641 35.6871 33.6473C35.6538 33.6073 35.6206 33.5669 35.5876 33.5271C35.8006 33.7572 35.9887 34.0134 35.8976 33.6901C35.7724 33.7334 35.7632 33.6094 35.7499 33.598C35.3084 33.2412 35.4143 33.5365 34.9338 33.138C34.9337 33.138 34.9337 33.1381 34.9337 33.1381ZM36.176 30.9172C36.1239 30.8887 35.9394 30.8914 35.8738 31.1408C35.9753 31.067 36.076 30.9924 36.176 30.9172ZM34.3247 34.8435C34.3789 34.7029 34.3404 34.6724 34.2853 34.637C34.1946 34.8307 34.1501 34.8233 34.1025 34.8489C34.0307 34.887 34.0885 34.9288 34.0795 34.9394C33.9502 35.0861 33.8968 35.0797 33.9764 35.143C33.9126 35.1777 33.849 35.2132 33.7859 35.2481C33.8379 35.305 33.7675 35.413 33.7003 35.5614C33.9171 35.245 33.8054 35.4641 33.9732 35.3599C34.0577 35.3081 34.2974 34.9157 34.3245 34.8434C34.3246 34.8434 34.3246 34.8435 34.3247 34.8435ZM34.7809 33.214C34.8268 33.2672 34.893 33.3337 34.9474 33.392C34.9439 33.4092 34.9398 33.4258 34.9364 33.443C34.8864 33.4086 34.8344 33.3723 34.7861 33.3395C34.7594 33.346 34.8323 33.3894 34.835 33.3992C34.8347 33.399 34.8345 33.3988 34.8342 33.3986C34.8716 33.5368 34.8408 33.558 34.6475 33.5057C34.7984 33.614 34.9494 33.7223 35.1003 33.8307C35.0948 33.8079 35.0898 33.7852 35.0848 33.7627C35.0087 33.6977 34.9326 33.6324 34.8566 33.5672C34.9118 33.5848 34.9665 33.6025 35.0215 33.6205C35.001 33.5877 34.9807 33.5515 34.9598 33.5207C35.4206 33.7705 35.0408 33.6921 35.2145 33.8201C35.3262 33.9018 35.4152 33.7698 35.3524 33.6943C35.3432 33.6832 35.0115 33.4812 35.2088 33.5534C35.2402 33.5645 35.9119 34.063 35.4074 33.6067C35.3361 33.5416 34.9013 33.255 34.7809 33.214ZM34.2038 33.5549C34.6975 33.7814 34.0341 33.748 34.4824 33.8728C34.6615 34.0465 34.6637 34.0375 34.8674 34.1263C34.8856 34.1344 34.9252 34.1962 34.9337 34.199C35.0549 34.235 35.0286 34.1607 35.2089 34.2847C35.2051 34.2696 35.2021 34.2557 35.1984 34.2406C35.0042 34.1588 34.9294 34.0234 34.8024 33.9013C34.7449 33.846 34.7086 33.8556 34.658 33.8075C34.6395 33.7899 34.7038 33.7857 34.6456 33.7429C34.5139 33.6463 34.3185 33.5405 34.1943 33.5082C34.1942 33.5082 34.1941 33.5081 34.1939 33.508C34.1964 33.5232 34.2009 33.5395 34.2038 33.5549ZM35.7973 32.237C36.0302 32.4203 36.1339 32.4304 36.1643 32.615C36.212 32.649 36.2594 32.6825 36.307 32.7166C36.3162 32.6983 36.3251 32.6806 36.3349 32.6624C35.723 32.0385 36.5333 32.6082 36.0241 32.2503C35.9687 32.2114 35.9923 32.2978 35.8882 32.1404C35.888 32.1403 35.8879 32.1402 35.8877 32.1402C35.8845 32.2279 35.9578 32.3032 35.7973 32.237ZM35.662 32.7121C36.0435 33.2263 36.0619 32.7757 35.8982 32.7143C35.883 32.7089 35.8855 32.9138 35.662 32.7121ZM36.2747 32.5846C36.2765 32.5859 36.2785 32.5869 36.2805 32.5876L36.0915 31.4228C36.0539 31.4768 36.2814 31.7 36.3706 31.7761C36.46 31.8525 36.411 31.7429 36.4243 31.7439L36.4947 32.1778C36.4946 32.1773 36.4946 32.1768 36.4947 32.1762C36.5005 32.1431 36.5181 32.1224 36.5362 32.0984L36.4887 31.806C36.5038 31.8263 36.5209 31.8475 36.5509 31.866L36.5762 32.0218C36.5776 32.0166 36.5789 32.0111 36.58 32.0053C36.5852 31.9765 36.5362 31.8153 36.5249 31.8255C36.4604 31.8821 36.3691 32.1475 36.3466 32.1715C36.2722 32.2497 36.3059 32.1041 36.2287 32.2299C36.0637 32.4982 36.285 32.2424 36.2981 32.2433C36.3379 32.2476 36.252 32.4023 36.2604 32.4469C36.2688 32.4914 36.3134 32.4463 36.3296 32.4689C36.3349 32.4765 36.272 32.5819 36.2747 32.5846ZM36.4506 32.074C36.3151 31.847 35.9922 31.7869 36.0211 31.8437C36.1094 32.0086 36.5162 32.1811 36.4506 32.074ZM34.9993 33.8275C34.8876 33.6668 34.6766 33.7058 34.7119 33.785C34.7795 33.8218 35.0381 33.8823 34.9993 33.8275ZM34.9592 33.1062C34.9677 33.1897 35.3472 33.3766 35.3721 33.3336C35.1738 33.1438 35.1997 33.1988 35.1707 33.2183C35.1415 33.2378 34.9528 33.0409 34.9592 33.1062ZM35.7515 31.9496C35.7614 31.9606 36.0568 31.8697 35.9982 31.7282C35.9936 31.7178 35.8468 31.6787 35.8159 31.709C35.7535 31.7709 35.728 31.9219 35.7515 31.9496ZM34.8241 32.6229C34.9886 32.7954 34.9666 32.8184 35.2029 32.9662C35.2029 32.9662 35.203 32.9661 35.203 32.9661C35.2194 33.0826 34.77 32.7372 34.7683 32.7591C34.7631 32.8352 35.1186 33.0353 35.1995 33.1472C35.1561 32.9999 35.3552 33.1872 35.4103 33.1448C35.4225 33.1353 35.3327 32.9869 35.2591 32.9168C35.1854 32.8467 34.9279 32.6828 34.8241 32.6229ZM35.4618 31.8463C35.4775 31.9615 35.7294 31.6662 35.6763 31.5637C35.6509 31.5136 35.4526 31.7763 35.4618 31.8463ZM33.0675 33.6849C33.0178 33.7728 32.9685 33.8604 32.9197 33.9477C32.8841 33.9519 32.8483 33.9566 32.8126 33.9614C32.8479 33.9477 32.8831 33.9345 32.9184 33.9215C32.8989 33.8642 32.9863 33.7024 33.0674 33.6848C33.0674 33.6849 33.0674 33.6849 33.0675 33.6849ZM31.601 32.6473C31.6293 32.5521 31.4423 32.7898 31.4357 32.8129C31.3858 32.9845 31.5612 32.7789 31.601 32.6473ZM34.2008 33.3832C34.1174 33.4291 34.5496 33.6597 34.6059 33.6378C34.5118 33.6098 34.2481 33.3574 34.2008 33.3832ZM32.1313 32.9927C32.1156 33.0322 32.0998 33.0716 32.0847 33.1116C32.0932 33.0483 32.1099 33.0127 32.1313 32.9927ZM35.566 32.3384C35.5584 32.3772 35.6268 32.4519 35.6609 32.4182C35.732 32.3469 35.8006 32.0771 35.7221 32.1272C35.7137 32.1325 35.5736 32.2997 35.5662 32.3385C35.5661 32.3385 35.566 32.3384 35.566 32.3384ZM33.0834 33.4672C33.0808 33.4711 33.0782 33.4747 33.0756 33.4778C33.0782 33.4744 33.0807 33.4707 33.0834 33.4672ZM32.414 32.8665C32.4079 32.862 32.402 32.8574 32.3965 32.8528C32.4021 32.8571 32.408 32.8616 32.414 32.8665ZM35.966 33.0311C35.779 33.4563 35.9617 33.2737 36.0146 33.0429C36.0173 33.0307 35.9726 33.0356 35.966 33.0311Z" fill="url(#vector-top-right-rotated-gradient)"/>
</svg>
