<svg preserveAspectRatio="none" width="100%" height="100%" overflow="visible" style="display: block;" viewBox="0 0 66 70" fill="none" xmlns="http://www.w3.org/2000/svg">
<defs>
  <linearGradient id="vector-bottom-left-gradient" x1="0%" y1="0%" x2="100%" y2="100%" gradientUnits="userSpaceOnUse">
    <stop stop-color="#3377ff"/>
    <stop offset="1" stop-color="#8b55f6"/>
  </linearGradient>
</defs>
<path id="Union" d="M20.5461 58.8207C14.0361 61.2367 5.57796 58.3257 2.06215 51.9103C0.251843 48.8032 -0.374873 45.0722 0.214945 41.677C0.44679 40.4274 0.593583 40.5523 0.690762 40.2138C0.98841 39.2998 1.0452 38.7029 1.33058 38.0533C2.40795 35.6497 4.01143 33.6314 6.01786 32.0888L5.91154 34.8225C5.35142 34.2929 4.82957 33.7183 4.35177 33.1005C3.37786 31.807 3.2712 31.2879 3.26259 31.07C3.2677 30.8132 3.46102 30.8809 3.22296 30.3168C2.44031 28.201 2.75386 30.1659 2.27426 29.3914C1.27018 26.9228 0.970992 24.1599 1.38481 21.5528C1.35002 22.1983 1.35554 22.8431 1.40007 23.4887C1.40925 22.3409 1.70895 20.7543 1.66548 22.6416C1.73057 22.2296 1.81571 21.8503 1.91446 21.4371C1.70194 21.2914 2.12084 19.336 2.09709 19.1326C2.03241 18.9188 1.74778 20.0232 1.74934 20.0163C1.68581 19.9645 1.97428 18.7978 2.48997 17.6859C2.98843 16.5657 3.70942 15.5351 3.80937 15.4023C4.34036 14.6906 4.10351 15.4677 4.52146 14.8531C5.28015 13.8427 4.35509 14.1244 6.0177 13.3167C6.35328 12.6859 6.47523 12.7154 7.15138 12.1763C7.24167 12.1063 7.09437 12.0641 7.13171 12.0301C8.12876 11.1538 7.45498 11.9554 7.47037 11.9593C7.68686 12.0432 8.77461 11.1861 9.05195 11.0696C9.06902 11.0612 9.08609 11.0528 9.10316 11.0445C12.409 9.52036 15.1924 9.17701 18.8531 9.83035C19.1228 9.8845 19.5811 9.97199 20.0912 10.1056L19.5932 10.3931C19.8159 9.39109 20.2708 8.21153 20.5261 7.758C20.9042 7.0804 20.8554 7.52269 21.1084 7.20534C21.0991 6.47564 21.3815 5.85826 22.4954 4.8909C22.6477 4.30653 22.7507 4.48389 23.4531 3.71738C24.0275 3.08122 25.0805 1.87635 26.0722 1.64433C25.1176 2.19492 25.2733 2.23918 24.355 3.05129C24.2032 3.18539 23.3112 3.94466 22.648 4.78824C21.9721 5.62229 21.522 6.49406 21.7213 6.43482C21.9139 6.3686 22.624 5.19379 22.6937 5.17742C23.0096 5.04447 22.6619 5.73434 22.2333 6.24114C22.3024 6.08711 22.3947 5.90608 22.4785 5.74438C21.4409 6.86629 22.6535 6.40778 21.4956 7.0354C21.3552 7.11909 21.3102 7.02832 21.1197 7.19592C21.1267 7.25526 21.3439 7.04385 21.2359 7.26981C21.1254 7.49727 20.7611 7.85966 20.8568 7.98607C20.9867 8.16529 21.3902 7.20157 21.4496 7.14281C21.4489 7.14148 21.4483 7.14014 21.4477 7.13881C21.8851 6.59242 21.1802 7.85229 21.1834 7.92964C21.1059 8.38406 21.314 8.15251 21.1487 8.79209C21.051 9.15349 20.7103 10.0331 20.644 10.3773C20.5721 10.7153 20.8056 10.2237 20.7641 10.4522C20.7512 10.5238 20.7285 10.5984 20.7025 10.6758L20.4977 11.4231L19.7813 11.2076C19.6145 11.1469 19.4341 11.0702 19.2495 11.0436C19.1341 11.0275 19.1164 11.1331 19.0614 11.1246C18.4696 11.0436 18.8975 10.9004 18.3556 10.8194C17.999 10.7578 16.8103 10.8656 17.6083 10.9999C17.2221 10.9813 16.8461 10.9751 16.4635 10.9868C16.7041 11.0216 16.9515 11.0538 17.1821 11.1076C16.4691 11.011 16.1436 11.2048 15.7049 11.236C15.2673 11.2715 14.8433 11.0925 14.3715 11.2742C13.382 11.6516 15.9055 11.1781 16.2322 11.286C16.3547 11.3002 15.8851 11.4777 15.8151 11.4879C15.4976 11.5212 15.1092 11.4321 14.8616 11.4681C13.9789 11.6024 13.4825 11.8806 12.6992 12.1569C11.9335 12.4339 11.1457 12.8076 10.3913 13.2757C8.49773 14.4248 6.94031 16.2079 6.07258 17.876C5.61603 18.7411 5.24659 19.2365 5.10125 19.662C4.79016 20.663 4.92304 20.8289 4.7732 21.7128C4.54554 23.0291 4.50146 24.9422 4.74296 26.0542C4.888 26.8278 5.2756 27.4449 5.34958 27.629C5.57962 28.208 5.86519 28.7976 6.20493 29.3713C6.80437 30.3887 7.57427 31.3365 8.4163 32.106L10.0493 33.667L8.30409 34.9915C7.43828 35.6751 6.7304 36.4417 6.20506 37.1466C5.56454 38.0166 5.19125 38.407 5.08372 38.6083C4.66511 39.4922 4.91505 39.317 4.61075 40.0368C4.4574 40.4298 4.30382 40.4641 4.27975 40.5166C4.0842 40.9861 4.23954 41.1338 4.15489 41.5119C3.68888 43.6916 3.69177 45.9285 4.41826 48.0472C4.47115 48.1995 4.38987 48.2143 4.43078 48.3117C4.61508 48.7276 4.65358 48.4836 4.84891 48.9094C5.01902 49.2685 5.20239 49.6251 5.40471 49.9804C5.69724 50.4942 6.02523 50.9977 6.39997 51.4802C6.46303 51.5606 6.40958 51.6641 6.56251 51.8436C6.71825 52.0236 6.90866 52.0898 7.16156 52.3573C7.8222 53.05 8.49873 53.7473 9.37999 54.2888C9.52647 54.3783 9.771 54.3739 9.99334 54.494C10.6844 54.8815 11.7532 55.4142 12.4238 55.5881C14.6221 56.191 16.7946 56.065 18.8281 55.4733C19.2618 55.3472 19.6769 55.2968 19.9353 55.2148L21.7466 54.5287L22.1258 56.3685C22.1298 56.3956 22.1344 56.4211 22.1396 56.4449C22.2759 57.0205 22.2693 56.5627 22.4316 57.1345C22.6955 58.015 23.0622 58.8658 23.5226 59.668C25.4608 63.1218 29.2578 65.4692 33.2758 65.6072C35.2256 65.716 37.5381 65.0634 39.1857 64.206C39.3807 64.1088 39.5351 64.0392 39.6684 63.985C40.004 63.8465 40.2049 63.8153 40.535 63.5922C41.3422 63.0166 41.3595 62.7507 42.0792 62.0281C42.6426 61.445 43.3889 60.8286 43.8377 60.0843C44.2761 59.3386 44.2939 58.8994 44.6358 57.9919C44.7777 57.6014 44.9537 57.1319 45.0966 56.6425L45.607 54.7799L47.3927 55.3169C47.8429 55.4616 48.31 55.578 48.7281 55.6372C51.3777 56.0207 54.1012 55.4679 56.3692 54.1203C60.9941 51.4866 63.3048 45.5276 61.6376 40.3913C61.4079 39.6538 61.0896 38.9179 60.6901 38.2093C60.1167 37.1903 59.3792 36.2403 58.5244 35.4126L56.9768 33.9337L58.6306 32.6787C59.4486 32.0676 60.1887 31.3623 60.8401 30.6001C61.0179 30.3829 60.9258 30.8513 61.4077 30.0767C61.6556 29.6526 61.8872 28.9991 62.3075 27.9704C63.6476 24.7083 63.5502 20.7155 61.7287 17.4618C60.1763 14.5942 57.3483 12.4347 54.2083 11.72C51.7908 11.1488 49.1899 11.4267 46.9615 12.4366L45.0788 13.1499L44.6845 11.2376C44.3725 10.0787 43.8828 8.98081 43.2515 7.98239C39.7418 2.42833 32.7166 0.946025 27.0397 2.81113C26.5946 2.95416 26.5738 2.43275 26.7676 2.17652C27.047 2.13131 27.3167 2.11916 27.6091 2.09852C27.6827 1.44022 27.6863 1.55041 28.9393 1.16509C29.7215 0.953365 29.03 0.908447 29.4299 0.71748C29.925 0.402129 32.6116 -0.202901 32.1202 0.253587C32.2813 0.175569 32.432 0.103845 32.5935 0.0329778C34.5563 -0.0956674 36.5041 0.151862 38.3643 0.779168C38.6848 0.889423 38.7467 0.785221 39.0769 0.91391C39.9615 1.2693 40.5822 1.71727 41.3856 2.27051C41.8179 2.57868 41.9653 2.50997 42.4969 2.97136C43.0174 3.44822 42.8786 3.5576 43.6823 4.11103C43.45 3.46938 45.171 5.70844 45.6107 6.60576C45.6126 6.60883 45.6148 6.61238 45.6175 6.61641C45.7282 6.76656 46.4443 7.69472 46.6491 8.28996C46.8622 8.86328 47.0437 9.75351 47.2975 10.6498L45.9678 9.94955C46.012 9.9289 46.0561 9.90801 46.1002 9.88685C46.5174 9.68874 46.7328 9.44044 47.2152 9.28736C47.5564 9.18061 48.0044 9.21625 48.4402 9.13426C48.875 9.04244 49.8175 8.80019 49.9981 8.78891C50.6371 8.72923 49.9404 8.88622 50.3763 8.85936C52.4863 8.72433 54.9214 9.18309 56.8592 9.91824C57.0987 10.0074 56.8173 9.7613 56.8496 9.77058C58.5144 10.3315 57.5917 10.1114 57.9679 10.4057C58.3788 10.6174 61.0898 12.4841 61.2043 12.4186C61.1078 12.679 61.7791 13.0392 61.9177 13.1784C62.4561 13.7054 62.1881 13.7478 62.702 14.2552C62.889 14.4466 62.6824 13.9454 62.8596 14.1719C63.2952 14.7368 63.4671 15.3951 63.9083 16.2034C63.9094 16.2054 63.9105 16.2075 63.9116 16.2095C64.0174 16.4079 64.1521 16.4172 64.3341 16.7743C64.5406 17.1258 65.0448 18.737 64.9685 17.9286C65.1649 18.9533 65.3327 19.1081 65.6083 20.2695C65.6716 20.5655 65.5787 20.9749 65.716 21.5964C65.7608 21.8071 65.9318 21.7813 65.9648 22.1086C66.0341 22.8586 65.8788 23.5678 65.8065 24.5018C65.67 26.2478 65.3118 28.1313 64.467 29.7778C64.2334 30.2207 64.1437 30.0356 63.7893 30.6594C63.7417 30.7516 63.4138 31.5734 63.1001 31.97C62.9326 32.2257 61.847 33.3492 61.6065 33.5487C61.2328 33.9045 61.2746 34.0858 61.041 34.2545C60.4196 34.6825 60.6513 34.2124 60.2859 34.7805L60.3377 33.4456C60.4012 33.4745 60.4763 33.5086 60.5654 33.5501C60.6752 33.9068 61.0838 34.309 61.0337 34.5986C61.4415 34.6784 61.5431 35.1595 61.9888 35.6214C62.4335 36.0814 63.1289 36.292 62.7633 36.697C62.8042 36.7408 62.8657 36.8162 62.9378 36.9116C63.2418 37.3015 63.6851 38.0563 63.7575 38.2172C64.0334 38.8024 63.7658 38.5385 63.9613 38.9812C63.9928 39.0603 64.0613 38.9398 64.2316 39.4619C64.4045 39.7898 64.9345 42.3819 64.8788 42.5486C64.8738 44.3469 64.7116 41.5816 64.4705 41.2371C64.4845 41.1652 64.4983 41.0936 64.5098 41.0166C64.3757 40.2381 64.2656 40.7305 64.2906 41.0825C64.3181 41.4346 64.5223 42.0671 64.4812 42.367C64.4605 42.516 64.1899 42.4551 64.1608 42.0268C64.1441 42.4928 63.9695 41.886 63.9187 42.0765C63.9037 42.2825 63.9851 44.2941 64.0972 44.3112C64.1109 43.9306 64.0936 43.4565 64.0708 43.0715C64.2779 42.5169 65.3331 44.0939 64.8048 45.5822C64.3993 46.6099 64.5246 44.8546 64.2542 47.3465C64.3538 46.9743 64.4404 46.6587 64.5076 46.3138C64.7047 46.3084 64.3999 46.8365 64.3927 47.1337C64.3927 47.2813 64.7082 46.4468 64.5929 47.2059C64.1745 47.7817 64.3258 48.339 63.9261 49.3811C63.9943 49.0768 64.0527 48.7713 64.1003 48.4663C63.3157 50.1323 64.6364 46.1198 63.3526 49.4022C63.5069 49.009 63.6532 48.6147 63.7673 48.206C63.6097 48.3698 63.4252 47.9721 63.3115 48.1244C63.0167 48.5175 62.8676 49.189 62.6117 49.6969C62.5005 49.9183 62.4939 49.7448 62.4846 49.7636C62.3297 50.0625 62.4674 50.048 62.336 50.316C62.1784 50.6606 61.5059 51.5143 61.4091 51.6567C61.1748 52.0461 61.7992 51.5608 61.7879 51.6018C61.7199 51.9116 61.2817 52.341 61.4161 52.403C62.3278 51.2605 64.1433 47.4029 62.6819 50.9864C63.389 50.1517 63.5984 50.5815 62.7715 51.9712C62.0428 53.0815 62.4192 52.3033 61.9006 52.7673C61.8516 52.8449 60.6505 54.1045 60.6386 54.2219C60.5211 54.0111 59.9823 54.2437 60.0785 53.8152C60.0954 53.7553 60.5785 53.2748 60.2733 53.3118C60.1217 53.3314 59.737 53.4154 59.6879 53.2887C59.6533 53.4442 59.6188 53.6117 59.578 53.7721C58.8547 54.4586 58.6662 54.4599 58.141 54.6483C58.1972 54.6898 58.7763 54.6253 58.1008 54.9985C58.0652 55.0155 57.981 54.9559 57.6303 55.1222C57.378 55.2403 57.1922 55.3173 57.0766 55.3455C56.9256 55.3817 56.896 55.3357 56.9777 55.1743C57.009 55.1124 57.0562 55.0333 57.1172 54.9348C57.0504 54.9855 56.9852 55.0328 56.9215 55.0769C55.773 55.8314 55.3039 55.7304 53.9006 56.247C54.3013 56.5214 54.865 56.317 56.1712 55.6183C56.2688 55.6719 56.336 55.7391 56.4378 55.791C54.5251 56.4353 55.4543 56.041 54.4387 56.5966C54.1918 56.7453 52.7215 57.0164 53.2609 57.1622C53.392 57.2064 54.3074 56.9645 54.2275 57.08C54.2162 57.1143 53.0954 57.4264 52.9868 57.4078C51.6791 57.2607 53.8903 56.9178 50.4755 57.2183C50.3809 57.2205 50.346 57.3322 50.1588 57.3423C49.8062 57.3579 49.8093 57.2281 49.4967 57.2344C49.1862 57.2394 48.7253 57.3627 48.2861 57.1228C47.5089 56.6856 49.4777 56.8888 50.353 57.0144C50.5498 56.8077 48.7602 56.7195 47.1453 56.1966L46.2407 55.9246L45.9821 56.8682C45.6171 58.219 45.0026 59.426 44.9345 59.5828C44.2645 61.115 45.5139 58.6373 45.6076 58.5135C45.6672 58.476 46.2025 58.7088 46.0939 57.898C46.0599 57.6658 45.6334 58.4466 45.7508 57.9337C45.8598 57.4224 45.951 57.6677 45.9748 57.6357C46.0511 57.5296 46.1389 57.0262 46.1785 56.9182L46.3812 56.1784L47.0904 56.3917C47.0964 56.3942 47.1012 56.3966 47.1045 56.3988C47.9843 56.9538 47.9299 57.4186 47.002 56.7062L46.6078 56.5877L46.4951 56.9989C46.4048 57.1158 46.2939 57.2442 46.1592 57.3806C46.1481 58.0667 46.8472 56.6787 46.7393 57.5132C46.5952 58.5483 46.0335 59.1399 45.975 59.2468C45.1784 60.5588 46.3405 59.1643 45.3193 60.7552C44.7134 61.6034 45.9267 59.3151 44.6842 61.3198C43.524 62.9137 44.2489 62.1385 44.4031 62.4448C44.4359 62.5139 43.7844 63.4423 44.7317 62.2319C44.6965 62.1499 44.6644 62.0231 44.664 61.9035C44.9308 61.6479 45.6025 61.3391 45.7206 61.1683C46.2872 60.3467 46.0678 60.2899 46.5434 59.8705C46.1263 60.1333 46.5665 59.5913 46.6134 59.3334C46.769 58.3772 46.3087 59.5348 47.2108 57.6132C47.0172 57.8442 46.8281 58.0423 46.6276 58.2477C46.705 58.0131 46.7759 57.7762 46.8404 57.538C46.938 57.4627 47.0324 57.3126 47.1138 57.1565L46.8291 57.3208C47.244 57.5479 47.7092 57.6984 46.7912 57.6654C48.2057 58.121 48.8352 58.0843 49.17 57.9182C49.2345 57.8845 49.4536 57.8904 49.7101 57.9024C49.665 57.8406 49.6165 57.6548 49.6577 57.6352C50.0196 57.4662 50.5596 57.8099 50.371 57.9369C50.5508 57.9458 50.6931 57.9514 50.7435 57.954C51.0639 57.9697 50.4367 58.0941 50.6973 58.1317C50.7842 58.1517 51.6916 58.0823 51.7126 58.1214C51.8484 58.3834 50.3169 58.4257 53.3709 58.154C53.3877 57.8831 52.0154 58.153 52.3328 57.8059C52.6609 57.451 53.4912 57.7232 53.5714 57.3015C53.6456 57.3501 53.6844 57.3958 53.7535 57.4541C54.8582 56.997 54.9557 57.2653 55.3331 57.2152C56.0934 57.1622 58.9943 55.575 56.2427 56.67C56.6214 56.4683 57.0041 56.2587 57.3603 56.0277C57.4972 56.1957 57.5377 56.2921 57.6268 56.2986C57.7759 56.3002 58.0953 56.088 59.1944 55.3388C59.5693 55.0738 59.8588 55.1653 60.0005 54.6371C60.1617 54.911 61.0384 53.8125 61.1362 53.7325C61.919 53.2823 59.9006 55.7817 59.2027 55.5347C58.9013 56.0105 58.7473 55.7902 58.2824 56.1361C58.0604 56.2978 57.8984 56.4137 57.7488 56.5098C57.4438 56.7023 57.1928 56.8241 56.5346 56.9854C56.1262 57.3329 57.1405 56.9166 57.7906 56.5822C58.3106 56.3179 58.6374 56.1755 57.9023 56.7756C57.813 56.8459 57.7079 56.9254 57.5844 57.0138C56.5127 57.8975 51.6164 60.1047 46.454 58.655L48.4568 57.4987C47.5034 62.0638 43.8615 65.7495 41.4406 67.0545C40.9277 67.3593 40.4801 67.586 40.1313 67.7509C33.0322 70.6346 27.8399 69.3263 22.759 64.7136C22.4254 64.4266 20.9208 62.6815 20.3752 61.4851C20.0472 60.8251 19.9376 60.4101 20.2122 60.7006C20.2557 60.746 20.4588 61.0693 20.6589 61.3214C20.9362 61.669 21.1775 61.8886 20.9061 61.1786C20.8771 61.0994 20.8426 61.0084 20.8027 60.9043C20.8501 61.3076 20.2467 60.398 20.2 60.3155C19.1324 58.6757 19.2771 59.5206 18.6218 57.1565L21.2676 58.55C21.0568 58.636 20.8187 58.7269 20.5461 58.8207ZM11.5136 56.0971C15.0061 57.0866 12.4735 56.2122 13.2917 55.9081C12.8574 55.824 12.4292 55.7164 12.0068 55.5853C12.1089 55.6488 12.2108 55.7105 12.3155 55.7713C12.316 55.7715 12.3164 55.7716 12.3169 55.7717C12.0574 55.8889 11.7885 55.9974 11.5136 56.0971ZM18.1788 11.3889C18.0328 11.4317 17.8899 11.4774 17.7364 11.5227C17.2824 11.4483 16.8249 11.4 16.3633 11.3775C16.4187 11.334 16.4727 11.2902 16.5292 11.2474C17.0812 11.2596 17.6304 11.3089 18.1788 11.3889ZM50.8722 56.9418C51.5753 57.0927 51.4915 56.7891 52.4172 56.8177C52.2716 56.5998 52.1205 56.3862 51.982 56.1665C51.3282 56.2695 51.1765 56.3709 50.4517 56.3147C50.5352 56.3916 50.6222 56.4681 50.7069 56.5437C50.8297 56.5261 50.9593 56.5042 51.0771 56.4849C51.2809 56.697 50.078 56.7468 50.8698 56.9424C50.8706 56.9422 50.8714 56.942 50.8722 56.9418ZM57.5181 54.7909C57.8575 54.6368 59.0945 53.8146 59.1653 53.5904C59.4826 52.9571 56.4095 55.5955 58.587 53.5418C58.5466 53.5149 58.5275 53.4713 58.4977 53.436C58.0786 53.7684 57.6437 54.0719 57.1841 54.3518C57.3077 54.4908 57.3896 54.654 57.5181 54.7909ZM23.0771 60.4268C23.2952 60.9726 25.1718 62.863 24.7546 62.0702C24.6256 61.8597 23.654 61.1429 23.4219 60.7475C23.269 60.5 23.5795 60.6826 23.2263 60.2354C23.1775 60.2949 23.117 60.3506 23.0784 60.4279C23.078 60.4275 23.0776 60.4272 23.0771 60.4268ZM21.704 59.9517C21.8142 60.1429 21.9301 60.3317 22.051 60.5176C22.273 60.859 22.5094 61.1873 22.7573 61.5052C22.6763 61.1534 22.3485 60.6906 22.2719 60.3901C22.2443 60.2846 22.2476 60.2021 22.3016 60.1566C22.3388 60.2076 22.3761 60.258 22.4137 60.3082C22.4763 60.3916 22.5394 60.4737 22.6038 60.5553C22.6203 60.6937 22.6378 60.8304 22.6577 60.9674C23.0728 61.3248 22.9334 61.029 23.4834 61.8264C23.4524 61.1903 23.5287 60.9983 22.7247 60.1287C22.6266 60.0191 22.5163 59.8974 22.3931 59.7598C22.7315 59.9189 23.2022 59.362 22.389 58.7942C22.2338 58.6823 22.4649 59.3343 22.4595 59.3471C22.3409 59.5273 22.0629 59.2275 21.9557 59.4079C21.9054 59.4909 22.1051 59.8833 22.041 59.993C22.0076 60.0474 21.6752 59.7376 21.704 59.9517ZM22.0593 58.4704C22.2303 58.5905 22.2451 57.9372 22.0418 57.4635C21.7258 56.7085 21.8453 58.0205 22.0593 58.4704ZM18.1819 11.3891C18.1809 11.389 18.1799 11.3889 18.1788 11.3889C18.1794 11.3887 18.1799 11.3885 18.1805 11.3884C18.181 11.3886 18.1814 11.3889 18.1819 11.3891ZM55.7912 55.5883C56.1456 55.327 56.7071 55.0344 56.5912 54.9233C56.6567 54.8984 56.7225 54.8726 56.7883 54.8462C56.9182 54.7939 57.0472 54.7394 57.1744 54.6836C57.1487 54.6458 57.1212 54.609 57.0957 54.5716C56.9785 54.637 56.86 54.7008 56.7402 54.7628C56.3107 54.985 55.8706 55.1813 55.4212 55.3508C55.5402 55.4325 55.6562 55.5154 55.7912 55.5883ZM61.0876 51.286C61.543 50.6279 61.0002 51.0741 61.0129 50.8734C61.0272 50.6791 61.4471 50.1231 61.2796 50.1219C61.0517 50.5149 60.791 50.9115 60.5177 51.2798C60.7149 51.273 60.8943 51.2939 61.0885 51.2847C61.0882 51.2851 61.0879 51.2855 61.0876 51.286ZM3.10459 45.0569C3.11024 45.5844 2.90672 45.4007 3.26039 46.4062C3.26025 46.4055 3.26011 46.4047 3.25996 46.404C3.19864 45.3983 3.24238 44.1438 3.22176 43.0514C3.00117 43.7053 3.11886 44.2263 3.10459 45.0569ZM49.0187 56.3818C48.7762 56.483 49.8162 56.7012 50.0548 56.5821C50.4286 56.4114 49.3759 56.2492 49.0187 56.3818ZM2.79887 24.6926C2.36943 23.8166 1.94802 25.6047 2.63958 27.3439C2.68821 27.4904 2.52751 26.3268 2.68317 26.6466C2.6946 26.6785 2.84212 27.2997 2.94125 27.4328C3.0372 27.5673 3.10912 27.376 3.23327 27.6025C3.44158 27.9983 3.65197 28.992 3.90945 29.2422C3.93929 29.2753 3.84378 28.6439 3.8394 28.6069C3.69509 27.9933 3.31509 27.4842 3.28558 27.3878C3.13902 26.9064 3.32955 26.9342 3.33601 26.8032C3.34974 26.5573 3.19097 26.1679 3.19173 26.1372C3.19209 25.3758 3.48801 27.0575 3.63926 27.2528C3.98861 27.786 3.92106 27.2253 4.53509 28.526C4.59557 28.655 5.25166 30.122 4.60192 28.1897C6.61649 31.5869 3.93381 26.3474 4.02459 25.6269C3.93581 25.3405 3.84945 25.8125 3.74725 25.6457C3.50664 25.2617 3.4112 24.5396 3.18355 24.6227C2.69477 24.8072 3.12607 25.7633 3.20006 26.4336C3.07948 26.3869 2.97057 26.3824 2.84008 26.2709C2.99969 26.4449 2.80642 24.7551 2.79984 24.6925C2.79952 24.6925 2.79919 24.6925 2.79887 24.6926ZM6.90232 34.4137C6.1196 34.9292 6.39082 35.1061 5.69711 35.6089C5.43091 36.3494 6.36064 35.2427 6.50319 35.1507C7.09977 34.6693 7.28566 34.9099 7.81169 34.3663L8.82493 33.5973L7.87683 32.6911C7.87378 32.6889 7.87071 32.6867 7.86762 32.6845C7.86862 32.6889 7.86962 32.6934 7.87062 32.6978L8.81082 33.5965L7.80601 34.3591C7.49217 34.3795 7.21192 34.3789 6.90232 34.4137ZM3.90336 26.9366C4.21927 27.476 3.92621 26.4355 3.95613 26.3855C4.11258 25.8667 4.98106 28.9284 3.90336 26.9366ZM24.8711 63.5535C25.1012 63.7739 25.0514 63.5272 25.2898 63.6744C25.5214 63.8265 26.2034 64.4987 26.2433 64.4029C26.2611 64.3145 25.0734 63.0945 26.456 64.0713C26.4401 63.9949 26.4789 63.9737 26.4845 63.9187C26.1115 63.6503 25.7519 63.3586 25.4118 63.051C25.4968 63.3332 25.5935 63.6257 25.6985 63.8979C25.4122 63.8256 25.3976 63.6057 25.3874 63.5975C25.3873 63.5976 25.3872 63.5977 25.3871 63.5978C25.0041 63.2896 24.367 63.0477 24.8711 63.5535ZM5.51951 52.0381C5.162 52.2034 5.95396 52.5082 6.18781 52.6844C6.41856 52.87 6.60697 53.254 6.61516 53.0311C6.35511 52.6271 5.55794 52.0288 5.51913 52.0384C5.51926 52.0383 5.51939 52.0382 5.51951 52.0381ZM3.88675 38.3604C3.64057 39.0986 3.77486 39.0142 3.343 39.8533C3.44177 39.8495 3.54232 39.8471 3.63954 39.8443C3.89892 39.1662 3.62997 39.1016 4.09903 38.3762C4.17951 38.2607 4.22769 38.6181 4.46111 38.0366C4.27395 38.1408 4.0756 38.2479 3.88675 38.3604ZM3.04911 42.0415C3.19126 41.2033 2.62082 40.3247 2.62548 42.0141C2.63572 42.2665 2.96053 42.6832 3.04911 42.0415ZM20.2321 56.5193C20.3049 56.4927 20.3696 56.468 20.427 56.4455L20.7625 56.3184L20.8328 56.6593C20.9863 57.3179 20.9579 57.0504 20.9169 56.6404L20.8266 56.202L20.395 56.3655C20.1101 56.4397 19.7543 56.5156 19.592 56.5207C19.904 56.4088 20.1471 56.3091 20.3395 56.2266L20.9376 56L21.0628 56.6076C21.3442 57.626 21.2364 57.2413 21.1213 56.5944L20.9821 55.9191L20.3173 56.1709C19.7565 56.3648 18.9684 56.521 18.7855 56.3969C18.4158 56.611 17.6714 57.0157 18.5623 56.8886C18.9335 56.8259 18.7714 56.7477 18.7936 56.7432C19.4611 56.5871 19.4396 56.795 20.2321 56.5193ZM6.88408 32.5058C6.92735 32.5429 6.9591 32.3911 7.10171 32.5019C7.24268 32.6132 7.47305 32.9591 7.55736 32.9281C7.63588 32.8994 7.10431 32.2952 6.90097 32.1467C6.69345 32.0019 6.49531 32.1619 6.88408 32.5058ZM3.98094 37.4731C3.68626 38.1835 4.7069 37.3341 4.79704 37.2158C5.5676 36.0219 4.07332 37.5517 3.98094 37.4731ZM16.845 58.1257C18.7581 57.6259 17.2476 57.467 16.1047 57.2665C15.9551 57.3238 15.8 57.3787 15.6486 57.4303C16.3432 57.0883 17.4982 56.8053 14.8664 57.0683C16.3175 57.1779 15.1007 57.2365 15.0869 57.2511C14.8974 57.8515 17.142 57.5049 16.8433 58.1259C16.8438 58.1258 16.8444 58.1257 16.845 58.1257ZM5.48703 30.5068C5.3971 30.3678 5.2764 30.1821 5.14932 29.9807C4.66735 29.2373 4.14931 28.2281 4.27509 29.0099C4.5222 29.3657 4.78429 29.7053 5.06159 30.0314C5.20005 30.1939 5.3419 30.3524 5.48703 30.5068ZM42.2785 64.8901C42.9178 64.577 43.4154 64.1456 44.008 63.5141C43.316 63.926 43.6622 63.5438 43.8025 63.3243C44.0176 62.9905 43.3667 63.6747 43.3504 63.661C43.2228 63.5023 43.6454 63.0928 42.6526 63.9999C42.8593 63.7308 43.051 63.4579 43.2342 63.1781C42.5059 63.8788 42.2237 63.9237 41.6351 64.184C42.3495 64.1092 41.583 64.4303 41.0618 64.9896C40.7957 65.2771 41.951 65.0645 42.2806 64.8885C42.2799 64.889 42.2792 64.8896 42.2785 64.8901ZM18.8633 57.8648C19.0446 57.75 19.1985 57.6129 19.3629 57.484C19.5637 57.4184 19.7618 57.3495 19.9592 57.2748C20.0033 57.3239 20.0445 57.3768 20.0927 57.4219C20.3632 57.3459 20.2313 57.3021 20.3067 57.2667C20.3068 57.267 20.3069 57.2673 20.307 57.2676C20.4419 57.2034 20.5662 57.1427 20.6826 57.0854L20.1605 56.8105C20.4344 57.672 20.548 58.1201 20.6918 58.9448C20.8644 58.8761 21.037 58.8073 21.2096 58.7385C21.1182 58.557 21.0304 58.3708 20.9475 58.1845C20.8177 58.115 20.6883 58.0426 20.5595 57.9678C20.5387 57.7221 20.5249 57.4793 20.5176 57.2355C20.4487 57.0909 20.375 56.9191 20.3126 56.7763L20.6247 56.9407C20.5972 56.9583 20.5709 56.9753 20.5463 56.9915C20.0787 56.9285 20.2239 56.8104 20.5199 56.6781L20.5766 56.6566L20.5885 56.7142C20.6945 57.1232 20.8347 57.7977 20.9566 57.7703C21.0254 57.7546 20.8918 57.232 20.7713 56.6731L20.7157 56.4036L20.4504 56.5041C19.9314 56.7109 19.3756 56.9064 19.2431 56.9926C19.2029 57.017 19.7607 57.2655 18.9447 57.2813C18.8092 57.2788 18.5963 56.492 17.9192 57.3123C17.8162 57.4272 18.3261 57.8714 18.8633 57.8648ZM22.3522 62.5353C22.1864 61.8628 22.6737 62.5645 23.161 63.1393C23.6515 63.7183 24.1012 64.1939 23.5624 63.329C24.1318 63.5666 24.0449 63.4869 23.8268 62.9364C23.8079 62.8886 24.1172 63.1184 24.1015 63.0882C23.8312 62.6398 23.396 62.2082 23.5638 62.0662C23.4687 61.9675 23.3824 61.8748 23.2905 61.7736C23.4779 62.3503 22.8055 61.721 22.4623 61.5137C22.3035 61.4216 22.4995 61.7494 22.3636 61.6738C22.3111 61.647 22.0574 61.1706 21.9873 61.1901C21.8253 61.2362 21.8131 61.6488 22.0607 62.2009C22.0606 62.201 22.0605 62.2011 22.0603 62.2012C22.1562 62.316 22.2531 62.4245 22.3522 62.5353ZM3.15523 50.5819C3.32299 50.2491 3.01286 49.5057 3.88419 50.8198C3.8959 50.7232 3.90723 50.6255 3.92124 50.5302C3.79094 50.3044 3.6703 50.0813 3.55165 49.8441C2.38828 49.4779 2.83615 47.677 2.56682 48.8C2.53691 48.9217 2.84191 49.5011 2.44211 48.9672C2.44226 48.9681 2.44241 48.969 2.44256 48.9699C2.81964 49.7897 2.96366 49.8363 3.15523 50.5819ZM7.10382 55.0007C8.10698 55.3533 7.57407 54.8848 6.92964 54.3637C6.27943 53.8439 5.53068 53.1842 5.74352 53.5322C5.75934 53.6264 7.38942 54.8824 7.10382 55.0007ZM1.79925 40.1836C1.53533 41.1018 1.87697 41.2353 2.00935 41.169C2.14383 41.1041 2.17944 40.4595 2.22419 40.385C2.35748 40.1457 2.24431 40.6999 2.42075 40.3917C2.45821 40.2794 3.10166 38.8424 3.13632 38.7815C3.22318 38.3821 2.73394 38.8104 2.75059 38.6937C2.80303 38.2981 3.1637 37.8935 3.08439 37.729C2.91168 37.3684 2.7685 38.3977 2.71893 38.5492C2.53877 39.0108 2.39338 38.9053 2.22708 39.2457C2.06485 39.5877 2.04658 39.8414 1.9407 40.1552C1.90585 40.26 1.81369 40.1377 1.79925 40.1836ZM1.97391 43.3195C1.77327 42.3392 1.37419 44.682 1.50163 44.9735C1.72317 45.7735 2.02708 43.7614 1.97391 43.3195ZM21.4265 59.4546C21.0103 58.8808 21.348 59.9951 21.754 60.6891C21.8543 60.8662 21.9528 61.0158 22.0283 61.1081C22.031 61.0598 21.9661 60.8621 21.8812 60.6156C21.7302 60.1868 21.5404 59.61 21.4265 59.4546ZM16.3018 58.1649C17.1131 58.0495 16.0067 57.7305 15.3554 57.7183C14.9598 57.9816 15.3279 57.9434 15.7695 57.9476C16.2106 57.947 15.6637 58.2369 16.3018 58.1649ZM5.85743 32.8214C5.91276 32.8924 6.48378 33.4283 6.92041 33.7283L6.93871 33.2579C6.58521 33.6272 6.4299 33.857 7.05629 33.4072L7.04923 33.5886C7.04639 33.5857 7.04352 33.5827 7.04063 33.5797C6.93204 33.5171 5.58344 32.1132 5.4846 31.9975C5.2337 31.8117 5.559 32.4743 5.85743 32.8214ZM12.2998 58.2216C12.7881 58.0917 13.2027 58.1641 12.863 57.8198C12.8625 57.8197 12.8619 57.8196 12.8613 57.8195C13.9421 57.9292 13.9334 58.4653 14.1776 58.4842C15.0263 58.5097 14.261 58.0476 14.7859 57.9495C13.5856 57.9825 13.9516 57.7387 13.0732 57.5813C12.8773 57.5485 12.055 57.5255 11.9115 57.5856C11.7678 57.6521 12.0984 58.0558 12.2998 58.2216ZM3.6037 29.5039C3.80364 30.0615 4.18747 30.4846 4.31035 30.4651C4.32112 30.4635 4.32994 30.4585 4.33655 30.45C4.37953 30.3952 4.32696 30.1989 4.14266 29.7992C3.88162 29.2231 3.41269 28.9476 3.6037 29.5039ZM59.3852 55.1048C59.2074 55.1183 59.0271 55.1313 58.8426 55.1449C59.1089 54.9162 59.3662 54.6769 59.6123 54.4298C59.4262 54.634 59.2302 54.835 59.029 55.0294C59.5659 54.6529 59.9203 54.5836 59.3866 55.1037C59.3862 55.1041 59.3857 55.1044 59.3852 55.1048ZM60.5155 33.9091C60.4559 33.7959 60.3153 33.6963 60.1715 33.6259L60.1341 34.5878C60.2722 34.3932 60.3462 34.1837 60.3032 34.2016C60.1843 34.2508 60.0746 34.3178 59.9789 34.3908L60.0015 33.8104C60.3081 34.1022 60.6725 34.2142 60.5155 33.9091ZM21.2312 61.0434C21.7115 61.9047 21.7713 61.3354 21.5885 60.7846C21.5587 60.6926 21.5226 60.6002 21.4801 60.5133C21.6005 60.9144 20.9654 60.4909 21.2104 61.0029C21.2168 61.0158 21.2237 61.0293 21.2312 61.0434ZM64.4705 41.2371C64.4495 41.3441 64.4275 41.4512 64.4061 41.5685C64.3998 41.2126 64.4216 41.1433 64.4705 41.2371ZM5.85082 33.4499C5.90299 33.5374 6.21278 33.8865 6.51497 34.168L6.56864 32.7881C6.32383 32.9768 6.11705 33.1621 6.07404 33.2255C5.92738 33.4466 6.34842 33.2747 6.75517 33.0249L6.71933 33.9464C6.5919 33.7986 6.45085 33.6548 6.31505 33.5528C6.26315 33.5169 5.75967 33.3002 5.85267 33.4519C5.85205 33.4512 5.85144 33.4506 5.85082 33.4499ZM60.6459 54.2332C60.6412 54.2313 60.6389 54.2274 60.6386 54.2219C60.6407 54.2259 60.6441 54.2289 60.6459 54.2332ZM61.2115 12.3952C61.2118 12.4057 61.2097 12.4138 61.2043 12.4186C61.2069 12.4115 61.2077 12.4022 61.2115 12.3952ZM1.55494 39.1816C0.961218 39.4465 0.91591 40.5191 1.36215 39.8054C1.38475 39.7656 1.51614 39.2813 1.55494 39.1816Z" fill="url(#vector-bottom-left-gradient)"/>
</svg>
