<svg preserveAspectRatio="none" width="100%" height="100%" overflow="visible" style="display: block;" viewBox="0 0 40 40" fill="none" xmlns="http://www.w3.org/2000/svg">
<g id="logo">
<g id="Union">
<path d="M20.0487 15.62C22.4672 15.62 24.4277 17.5806 24.4278 19.9991C24.4278 22.4177 22.4672 24.3782 20.0487 24.3782C17.6301 24.3782 15.6696 22.4176 15.6696 19.9991C15.6696 17.5806 17.6302 15.62 20.0487 15.62Z" fill="var(--fill-0, #5968fb)"/>
<path fill-rule="evenodd" clip-rule="evenodd" d="M25.6665 1.88721C30.0389 1.88724 33.5834 5.43174 33.5834 9.8041C33.5834 10.6261 33.4576 11.4187 33.2251 12.1642C37.0563 12.7177 40 16.0144 40 19.9989C40 23.9835 37.0563 27.2799 33.2251 27.8335C33.4577 28.5791 33.5834 29.3719 33.5834 30.1942C33.5834 34.5665 30.0389 38.1112 25.6665 38.1112C23.445 38.1112 21.4378 37.1956 20 35.7219C18.5622 37.1956 16.555 38.1112 14.3335 38.1112C9.96111 38.1112 6.41658 34.5665 6.41658 30.1942C6.41659 29.372 6.54191 28.5791 6.77451 27.8335C2.94349 27.2798 0 23.9833 0 19.9989C2.99855e-05 16.0145 2.94348 12.7179 6.77451 12.1642C6.54204 11.4188 6.41658 10.6261 6.41658 9.8041C6.4166 5.43174 9.96112 1.88724 14.3335 1.88721C16.5549 1.88721 18.5622 2.80259 20 4.27615C21.4378 2.80259 23.4451 1.88721 25.6665 1.88721ZM20 13.6734C13.9715 13.6734 9.08438 16.5055 9.08438 19.9991C9.08441 23.4927 13.9715 26.3249 20 26.3249C26.0285 26.3248 30.9156 23.4927 30.9156 19.9991C30.9156 16.5055 26.0285 13.6734 20 13.6734Z" fill="var(--fill-0, #5968fb)"/>
</g>
</g>
</svg>
