<svg preserveAspectRatio="none" width="100%" height="100%" overflow="visible" style="display: block;" viewBox="0 0 40 40" fill="none" xmlns="http://www.w3.org/2000/svg">
<g id="logo">
<g id="Union">
<path d="M20.048 15.6591C22.4455 15.6591 24.3889 17.6026 24.3889 20C24.3889 22.3974 22.4454 24.341 20.048 24.341C17.6506 24.3409 15.7071 22.3974 15.7071 20C15.7071 17.6026 17.6506 15.6591 20.048 15.6591Z" fill="var(--fill-0, #5968fb)"/>
<path fill-rule="evenodd" clip-rule="evenodd" d="M21.3985 1.75186C23.7343 -0.583965 27.5215 -0.583944 29.8574 1.75186C32.0104 3.90486 32.1788 7.29083 30.3629 9.63687C32.709 7.82097 36.0951 7.98966 38.2481 10.1426C40.584 12.4785 40.584 16.2657 38.2481 18.6015L36.8837 19.9657L38.2481 21.3301C40.584 23.666 40.5838 27.4534 38.2479 29.7892C35.9139 32.1232 32.1309 32.1249 29.7946 29.7945C32.1251 32.1308 32.1234 35.9141 29.7894 38.2482C27.4535 40.584 23.6663 40.5839 21.3304 38.2482L19.966 36.8838L18.6019 38.248C16.266 40.5838 12.4786 40.5838 10.1427 38.248C7.98971 36.0949 7.82111 32.7085 9.63718 30.3624C7.29111 32.1785 3.90506 32.0103 1.75199 29.8573C-0.583839 27.5214 -0.58384 23.734 1.75199 21.3981L3.11618 20.0339L1.7518 18.6696C-0.583928 16.3337 -0.583939 12.5465 1.7518 10.2106C4.08581 7.87661 7.86897 7.87486 10.2053 10.2052C7.87513 7.86885 7.87687 4.08605 10.2107 1.75205C12.5466 -0.583816 16.334 -0.58396 18.6699 1.75186L20.0341 3.11625L21.3985 1.75186ZM19.9998 13.7294C14.0239 13.7295 9.17938 16.5368 9.17931 19.9998C9.17931 23.463 14.0238 26.2704 19.9998 26.2704C25.9757 26.2704 30.8202 23.463 30.8202 19.9998C30.8202 16.5368 25.9757 13.7295 19.9998 13.7294Z" fill="var(--fill-0, #5968fb)"/>
</g>
</g>
</svg>
