<svg preserveAspectRatio="none" width="100%" height="100%" overflow="visible" style="display: block;" viewBox="0 0 40 40" fill="none" xmlns="http://www.w3.org/2000/svg">
<g id="logo">
<g id="Union">
<path d="M20.0008 18.0207C22.5733 18.0207 24.6588 20.1062 24.6588 22.6786C24.6587 25.2511 22.5733 27.3365 20.0008 27.3365C17.4284 27.3365 15.3429 25.2511 15.3429 22.6786C15.3429 20.1061 17.4284 18.0207 20.0008 18.0207Z" fill="var(--fill-0, #5968fb)"/>
<path fill-rule="evenodd" clip-rule="evenodd" d="M25.9711 0C29.2956 0 31.9906 2.695 31.9906 6.01942V7.96116H33.9323C37.2568 7.96119 39.9517 10.6563 39.9517 13.9808C39.9517 17.3026 37.2609 19.9958 33.9401 20C37.261 20.0041 39.9519 22.6975 39.9519 26.0194C39.9519 29.3438 37.2569 32.0388 33.9325 32.0388H31.9908V33.9804C31.9908 37.3049 29.2956 40 25.9711 40C22.9069 40 20.3772 37.7102 20.0001 34.7484C19.6229 37.7102 17.0937 40 14.0294 40C10.7049 40 8.00979 37.3049 8.00979 33.9804V32.0388H6.06804C2.74366 32.0388 0.0486633 29.3438 0.0486247 26.0194C0.0486245 22.6976 2.73943 20.0042 6.06027 20C2.73951 19.9957 0.0488652 17.3025 0.0488143 13.9808C0.0488142 10.6563 2.74378 7.96119 6.06823 7.96116H8.00998V6.01942C8.00999 2.695 10.705 0 14.0294 0C17.0936 2.36158e-05 19.623 2.28959 20.0003 5.25125C20.3775 2.28959 22.907 2.36158e-05 25.9711 0ZM20.0005 16.9374C16.9516 16.9374 14.2273 18.5349 12.4263 21.0414C11.7237 22.0194 11.7237 23.3375 12.4263 24.3155C14.2273 26.822 16.9515 28.4197 20.0005 28.4197C23.0493 28.4197 25.7735 26.8222 27.5744 24.3156C28.2771 23.3376 28.2771 22.0192 27.5744 21.0412C25.7735 18.5348 23.0493 16.9374 20.0005 16.9374ZM20.0005 11.5803C16.6874 11.5803 13.7575 13.4666 11.9792 16.356C11.9291 16.4375 11.9033 16.5317 11.9033 16.6274C11.9033 17.1303 12.5754 17.3785 12.9482 17.0409C14.733 15.4246 17.2329 14.4199 20.0005 14.4199C22.7678 14.4199 25.2675 15.4246 27.0522 17.0407C27.425 17.3784 28.0971 17.1301 28.0972 16.6272C28.0972 16.5315 28.0715 16.4373 28.0214 16.3558C26.2431 13.4667 23.3134 11.5803 20.0005 11.5803Z" fill="var(--fill-0, #5968fb)"/>
</g>
</g>
</svg>
