<svg preserveAspectRatio="none" width="100%" height="100%" overflow="visible" style="display: block;" viewBox="0 0 40 40" fill="none" xmlns="http://www.w3.org/2000/svg">
<g id="logo">
<g id="Union">
<path d="M20.0551 15.0334C22.798 15.0334 25.0216 17.257 25.0217 20C25.0217 22.743 22.7981 24.9666 20.0551 24.9666C17.3121 24.9666 15.0885 22.743 15.0885 20C15.0885 17.257 17.3121 15.0334 20.0551 15.0334Z" fill="var(--fill-0, #5968fb)"/>
<path fill-rule="evenodd" clip-rule="evenodd" d="M28.6408 0C34.7733 0 39.7446 4.97133 39.7446 11.1038C39.7446 14.7439 37.993 17.975 35.2866 20C37.993 22.025 39.7446 25.2561 39.7446 28.8962C39.7446 35.0287 34.7733 40 28.6408 40C25.1496 40 22.0354 38.3882 19.9999 35.8688C17.9643 38.3882 14.8501 40 11.3589 40C5.22646 40 0.255127 35.0287 0.255127 28.8962C0.255127 25.2561 2.00664 22.025 4.71294 20C2.00664 17.975 0.255127 14.7439 0.255127 11.1038C0.255127 4.97133 5.22646 0 11.3589 0C14.8501 0 17.9643 1.61163 19.9999 4.13099C22.0354 1.61163 25.1497 0 28.6408 0ZM19.9999 12.8256C13.1626 12.8256 7.61985 16.0377 7.61985 20C7.61989 23.9622 13.1626 27.1744 19.9999 27.1744C26.8371 27.1744 32.3799 23.9622 32.3799 20C32.3799 16.0377 26.8372 12.8256 19.9999 12.8256Z" fill="var(--fill-0, #5968fb)"/>
</g>
</g>
</svg>
