<svg preserveAspectRatio="none" width="100%" height="100%" overflow="visible" style="display: block;" viewBox="0 0 40 40" fill="none" xmlns="http://www.w3.org/2000/svg">
<g id="logo">
<g id="Union">
<path d="M19.9999 19.608C21.6955 19.6081 23.0702 20.9827 23.0702 22.6784C23.0702 24.3741 21.6955 25.7488 19.9999 25.7488C18.3042 25.7488 16.9295 24.3741 16.9295 22.6784C16.9295 20.9827 18.3041 19.608 19.9999 19.608Z" fill="var(--fill-0, #5968fb)"/>
<path fill-rule="evenodd" clip-rule="evenodd" d="M25.9705 0C29.295 0 31.9899 2.695 31.99 6.01942V7.96116H33.9317C37.2562 7.96119 39.9511 10.6563 39.9511 13.9808C39.9511 17.3026 37.2603 19.9958 33.9395 20C37.2604 20.0041 39.9513 22.6975 39.9513 26.0194C39.9513 29.3438 37.2563 32.0388 33.9319 32.0388H31.9901V33.9804C31.9901 37.3049 29.295 40 25.9705 40C22.9063 40 20.3766 37.7102 19.9995 34.7484C19.6223 37.7102 17.093 40 14.0288 40C10.7043 40 8.00918 37.3049 8.00918 33.9804V32.0388H6.06743C2.74305 32.0388 0.0480529 29.3438 0.0480143 26.0194C0.0480142 22.6976 2.73882 20.0042 6.05966 20C2.7389 19.9957 0.0482549 17.3025 0.0482039 13.9808C0.0482038 10.6563 2.74317 7.96119 6.06762 7.96116H8.00937V6.01942C8.00938 2.695 10.7044 0 14.0288 0C17.0929 2.36158e-05 19.6224 2.28959 19.9997 5.25125C20.3769 2.28959 22.9064 2.36158e-05 25.9705 0ZM20.0002 16.9374C16.6701 16.9374 13.7272 18.8432 11.9516 21.7578C11.6071 22.3235 11.6071 23.0334 11.9516 23.5991C13.7271 26.5137 16.67 28.4197 20.0002 28.4197C23.3304 28.4197 26.2732 26.5137 28.0486 23.5991C28.3932 23.0334 28.3932 22.3235 28.0486 21.7578C26.2731 18.8432 23.3304 16.9374 20.0002 16.9374ZM20.0002 11.5803C16.6871 11.5803 13.7573 13.4666 11.979 16.356C11.9288 16.4375 11.9031 16.5317 11.9031 16.6274C11.9031 17.1303 12.5751 17.3785 12.9479 17.0409C14.7327 15.4246 17.2327 14.4199 20.0002 14.4199C22.7676 14.42 25.2673 15.4246 27.052 17.0407C27.4248 17.3783 28.0969 17.1301 28.097 16.6272C28.097 16.5315 28.0711 16.4373 28.0209 16.3558C26.2426 13.4667 23.3132 11.5803 20.0002 11.5803Z" fill="var(--fill-0, #5968fb)"/>
</g>
</g>
</svg>
