<svg preserveAspectRatio="none" width="100%" height="100%" overflow="visible" style="display: block;" viewBox="0 0 40 40" fill="none" xmlns="http://www.w3.org/2000/svg">
<g id="logo">
<g id="Union">
<path d="M20.0471 15.7747C22.3811 15.7747 24.2732 17.6668 24.2732 20.0008C24.2732 22.3348 22.3811 24.2269 20.0471 24.2269C17.713 24.2269 15.821 22.3348 15.821 20.0008C15.821 17.6668 17.713 15.7747 20.0471 15.7747Z" fill="var(--fill-0, #5968fb)"/>
<path fill-rule="evenodd" clip-rule="evenodd" d="M13.1655 2.76803C16.8553 -0.921755 22.8377 -0.921755 26.5275 2.76803C28.7176 4.95822 29.6078 7.95621 29.1978 10.8029C32.0445 10.393 35.0425 11.2831 37.2327 13.4733C40.9224 17.1631 40.9225 23.1455 37.2327 26.8352C35.1321 28.9358 32.2886 29.8398 29.548 29.5487C29.8391 32.2893 28.9351 35.1328 26.8346 37.2334C23.1448 40.9232 17.1624 40.9231 13.4726 37.2334C11.2825 35.0432 10.3923 32.0452 10.8022 29.1985C7.95555 29.6084 4.95751 28.7182 2.76734 26.5282C-0.922447 22.8384 -0.922447 16.856 2.76734 13.1662C4.86788 11.0657 7.71129 10.1615 10.4518 10.4525C10.1608 7.71199 11.065 4.86858 13.1655 2.76803ZM20.0001 13.8961C14.1822 13.8961 9.46586 16.6293 9.46586 20.0008C9.46602 23.3722 14.1823 26.1053 20.0001 26.1053C25.8179 26.1053 30.5342 23.3722 30.5344 20.0008C30.5344 16.6293 25.818 13.8961 20.0001 13.8961Z" fill="var(--fill-0, #5968fb)"/>
</g>
</g>
</svg>
