<svg preserveAspectRatio="none" width="100%" height="100%" overflow="visible" style="display: block;" viewBox="0 0 40 40" fill="none" xmlns="http://www.w3.org/2000/svg">
<g id="logo">
<g id="Union">
<path d="M20.0486 15.6314C22.4613 15.6314 24.4172 17.5873 24.4172 20C24.4172 22.4127 22.4613 24.3686 20.0486 24.3686C17.6359 24.3685 15.6801 22.4127 15.6801 20C15.6801 17.5873 17.6359 15.6315 20.0486 15.6314Z" fill="var(--fill-0, #5968fb)"/>
<path fill-rule="evenodd" clip-rule="evenodd" d="M25.9711 0C29.2956 0 31.9906 2.695 31.9906 6.01942V7.96116H33.9323C37.2568 7.96119 39.9517 10.6563 39.9517 13.9808C39.9517 17.3026 37.2609 19.9958 33.9401 20C37.261 20.0041 39.9519 22.6975 39.9519 26.0194C39.9519 29.3438 37.2569 32.0388 33.9325 32.0388H31.9908V33.9804C31.9908 37.3049 29.2956 40 25.9711 40C22.9069 40 20.3772 37.7102 20.0001 34.7484C19.6229 37.7102 17.0937 40 14.0294 40C10.7049 40 8.00979 37.3049 8.00979 33.9804V32.0388H6.06804C2.74366 32.0388 0.0486633 29.3438 0.0486247 26.0194C0.0486245 22.6976 2.73943 20.0042 6.06027 20C2.73951 19.9957 0.0488652 17.3025 0.0488143 13.9808C0.0488142 10.6563 2.74378 7.96119 6.06823 7.96116H8.00998V6.01942C8.00999 2.695 10.705 0 14.0294 0C17.0936 2.36158e-05 19.623 2.28959 20.0003 5.25125C20.3775 2.28959 22.907 2.36158e-05 25.9711 0ZM20.0001 27.6519C19.3985 27.6519 18.9109 28.1395 18.9109 28.7411V31.7521C18.9109 32.3537 19.3985 32.8413 20.0001 32.8413C20.6016 32.8413 21.0893 32.3536 21.0893 31.7521V28.7411C21.0893 28.1396 20.6016 27.6519 20.0001 27.6519ZM23.7958 14.6162C21.52 13.0654 18.5269 13.0654 16.251 14.6162L9.50004 19.2167C8.93451 19.602 8.93451 20.4359 9.50004 20.8213L16.251 25.4217C18.5269 26.9726 21.52 26.9726 23.7958 25.4217L30.547 20.8213C31.1124 20.4359 31.1124 19.602 30.547 19.2167L23.7958 14.6162ZM13.5064 9.79274C13.1198 9.33193 12.4326 9.27184 11.9718 9.65849C11.5111 10.0452 11.4509 10.7321 11.8375 11.1929L13.773 13.4995C14.1597 13.9603 14.8468 14.0204 15.3077 13.6338C15.7684 13.2471 15.8285 12.5601 15.4419 12.0993L13.5064 9.79274ZM28.0282 9.65849C27.5674 9.27182 26.8804 9.33194 26.4937 9.79274L24.5583 12.0993C24.1716 12.5601 24.2317 13.2471 24.6925 13.6338C25.1533 14.0204 25.8403 13.9603 26.2269 13.4995L28.1624 11.1929C28.5491 10.7321 28.489 10.0452 28.0282 9.65849Z" fill="var(--fill-0, #5968fb)"/>
</g>
</g>
</svg>
