<svg preserveAspectRatio="none" width="100%" height="100%" overflow="visible" style="display: block;" viewBox="0 0 40 40" fill="none" xmlns="http://www.w3.org/2000/svg">
<g id="Union">
<path d="M20 15.6315C22.4127 15.6315 24.3684 17.5873 24.3685 20C24.3685 22.4127 22.4127 24.3685 20 24.3685C17.5873 24.3684 15.6315 22.4127 15.6315 20C15.6316 17.5874 17.5874 15.6316 20 15.6315Z" fill="var(--fill-0, #5968fb)"/>
<path fill-rule="evenodd" clip-rule="evenodd" d="M25.9228 0C29.2469 0.000178299 31.9414 2.69482 31.9417 6.01888V7.96061H33.8835C37.2079 7.96064 39.9023 10.6567 39.9023 13.9811C39.9021 17.3027 37.2123 19.9957 33.8916 20C37.2123 20.0042 39.9037 22.6973 39.904 26.0189C39.9039 29.3433 37.2079 32.0394 33.8835 32.0394H31.9417V33.9811C31.9413 37.3051 29.2469 39.9998 25.9228 40C22.8586 40 20.3283 37.7096 19.9512 34.7477C19.574 37.7094 17.0452 39.9998 13.9811 40C10.6569 40 7.961 37.3053 7.96061 33.9811V32.0394H6.01888C2.69474 32.0391 3.85727e-05 29.3431 0 26.0189C0.000290105 22.6973 2.69171 20.0042 6.01237 20C2.69173 19.9957 0.000238583 17.3027 0 13.9811C-1.45306e-07 10.6569 2.69476 7.96103 6.01888 7.96061H7.96061V6.01888C7.96091 2.69471 10.6569 0 13.9811 0C17.0449 0.000196255 19.5737 2.28941 19.9512 5.25065C20.3287 2.28924 22.8589 2.36144e-05 25.9228 0ZM23.7467 14.6159C21.4711 13.0654 18.4784 13.0654 16.2028 14.6159L9.4515 19.2171C8.88606 19.6025 8.886 20.4366 9.4515 20.8219L16.2028 25.4215C18.4785 26.9723 21.471 26.9722 23.7467 25.4215L30.498 20.8219C31.0636 20.4366 31.0636 19.6025 30.498 19.2171L23.7467 14.6159Z" fill="var(--fill-0, #5968fb)"/>
</g>
</svg>
