<svg preserveAspectRatio="none" width="100%" height="100%" overflow="visible" style="display: block;" viewBox="0 0 40 40" fill="none" xmlns="http://www.w3.org/2000/svg">
<g id="logo">
<g id="Union">
<path d="M20.0486 15.6314C22.4613 15.6314 24.4172 17.5873 24.4172 20C24.4172 22.4127 22.4613 24.3686 20.0486 24.3686C17.6359 24.3685 15.6801 22.4127 15.6801 20C15.6801 17.5873 17.6359 15.6315 20.0486 15.6314Z" fill="var(--fill-0, #5968fb)"/>
<path fill-rule="evenodd" clip-rule="evenodd" d="M25.9711 0C29.2956 0 31.9906 2.695 31.9906 6.01942V7.96116H33.9323C37.2568 7.96119 39.9517 10.6563 39.9517 13.9808C39.9517 17.3026 37.2609 19.9958 33.9401 20C37.261 20.0041 39.9519 22.6975 39.9519 26.0194C39.9519 29.3438 37.2569 32.0388 33.9325 32.0388H31.9908V33.9804C31.9908 37.3049 29.2956 40 25.9711 40C22.9069 40 20.3772 37.7102 20.0001 34.7484C19.6229 37.7102 17.0937 40 14.0294 40C10.7049 40 8.00979 37.3049 8.00979 33.9804V32.0388H6.06804C2.74366 32.0388 0.0486633 29.3438 0.0486247 26.0194C0.0486245 22.6976 2.73943 20.0042 6.06027 20C2.73951 19.9957 0.0488652 17.3025 0.0488143 13.9808C0.0488142 10.6563 2.74378 7.96119 6.06823 7.96116H8.00998V6.01942C8.00999 2.695 10.705 0 14.0294 0C17.0936 2.36158e-05 19.623 2.28959 20.0003 5.25125C20.3775 2.28959 22.907 2.36158e-05 25.9711 0ZM20.0001 13.6895C13.9861 13.6895 9.11075 16.5148 9.11075 20C9.11078 23.4851 13.9861 26.3105 20.0001 26.3105C26.0141 26.3105 30.8894 23.4851 30.8894 20C30.8894 16.5148 26.0141 13.6895 20.0001 13.6895ZM19.9999 9.27943C16.0382 9.27945 12.243 11.2361 9.70408 13.0835C8.97014 13.5717 10.0504 14.5037 10.8852 14.1093C13.2413 12.9963 16.2509 11.591 19.9999 11.5909L20.2699 11.5925C23.8935 11.6309 26.815 13.0231 29.1142 14.1091C29.949 14.5035 31.0298 13.5719 30.2959 13.0837C27.8022 11.2664 24.0774 9.32443 20.1933 9.28057L19.9999 9.27943Z" fill="var(--fill-0, #5968fb)"/>
</g>
</g>
</svg>
