<svg preserveAspectRatio="none" width="100%" height="100%" overflow="visible" style="display: block;" viewBox="0 0 40 40" fill="none" xmlns="http://www.w3.org/2000/svg">
<g id="logo">
<g id="Union">
<path d="M20.0486 15.6323C22.4613 15.6323 24.4172 17.5881 24.4172 20.0008C24.4172 22.4135 22.4613 24.3694 20.0486 24.3694C17.6359 24.3693 15.6801 22.4135 15.6801 20.0008C15.6801 17.5881 17.6359 15.6323 20.0486 15.6323Z" fill="var(--fill-0, #5968fb)"/>
<path fill-rule="evenodd" clip-rule="evenodd" d="M25.9711 0.000813802C29.2956 0.000813802 31.9906 2.69581 31.9906 6.02023V7.96198H33.9323C37.2568 7.962 39.9517 10.6571 39.9517 13.9816C39.9517 17.3034 37.2609 19.9966 33.9401 20.0008C37.261 20.0049 39.9519 22.6983 39.9519 26.0202C39.9519 29.3446 37.2569 32.0396 33.9325 32.0396H31.9908V33.9812C31.9908 37.3057 29.2956 40.0008 25.9711 40.0008C22.9069 40.0008 20.3772 37.711 20.0001 34.7492C19.6229 37.711 17.0937 40.0008 14.0294 40.0008C10.7049 40.0008 8.00979 37.3057 8.00979 33.9812V32.0396H6.06804C2.74366 32.0396 0.0486633 29.3446 0.0486247 26.0202C0.0486245 22.6984 2.73943 20.005 6.06027 20.0008C2.73951 19.9965 0.0488652 17.3033 0.0488143 13.9816C0.0488142 10.6571 2.74378 7.962 6.06823 7.96198H8.00998V6.02023C8.00999 2.69581 10.705 0.000813802 14.0294 0.000813802C17.0936 0.000837418 19.623 2.2904 20.0003 5.25207C20.3775 2.2904 22.907 0.000837418 25.9711 0.000813802ZM20.0001 12.7382C17.1394 12.7382 13.2365 14.8617 10.3989 18.1838C9.50206 19.2338 9.50205 20.7678 10.3989 21.8178C13.2365 25.1401 17.1393 27.2636 20.0001 27.2636C22.8608 27.2636 26.7635 25.14 29.6011 21.8178C30.4979 20.7678 30.4979 19.2338 29.6011 18.1838C26.7635 14.8617 22.8607 12.7382 20.0001 12.7382ZM19.9999 9.28024C16.7681 9.28028 13.672 11.237 11.6009 13.0843C11.0022 13.5725 11.8835 14.1161 12.5646 13.7218C14.4865 12.6088 16.9416 11.2034 19.9999 11.2034L20.2202 11.2049C23.1762 11.2434 25.5595 12.6356 27.435 13.7216C28.1161 14.1159 28.9977 13.5727 28.3991 13.0845C26.3649 11.2672 23.3264 9.32527 20.1578 9.28138L19.9999 9.28024Z" fill="var(--fill-0, #5968fb)"/>
</g>
</g>
</svg>
