<svg preserveAspectRatio="none" width="100%" height="100%" overflow="visible" style="display: block;" viewBox="0 0 40 40" fill="none" xmlns="http://www.w3.org/2000/svg">
<g id="logo">
<g id="Union">
<path d="M20.0005 19.608C21.6962 19.6081 23.0708 20.9827 23.0708 22.6784C23.0708 24.3741 21.6961 25.7488 20.0005 25.7488C18.3048 25.7488 16.9301 24.3741 16.9301 22.6784C16.9301 20.9827 18.3048 19.608 20.0005 19.608Z" fill="var(--fill-0, #5968fb)"/>
<path fill-rule="evenodd" clip-rule="evenodd" d="M25.9711 0C29.2956 0 31.9906 2.695 31.9906 6.01942V7.96116H33.9323C37.2568 7.96119 39.9517 10.6563 39.9517 13.9808C39.9517 17.3026 37.2609 19.9958 33.9401 20C37.261 20.0041 39.9519 22.6975 39.9519 26.0194C39.9519 29.3438 37.2569 32.0388 33.9325 32.0388H31.9908V33.9804C31.9908 37.3049 29.2956 40 25.9711 40C22.9069 40 20.3772 37.7102 20.0001 34.7484C19.6229 37.7102 17.0937 40 14.0294 40C10.7049 40 8.00979 37.3049 8.00979 33.9804V32.0388H6.06804C2.74366 32.0388 0.0486633 29.3438 0.0486247 26.0194C0.0486245 22.6976 2.73943 20.0042 6.06027 20C2.73951 19.9957 0.0488652 17.3025 0.0488143 13.9808C0.0488142 10.6563 2.74378 7.96119 6.06823 7.96116H8.00998V6.01942C8.00999 2.695 10.705 0 14.0294 0C17.0936 2.36158e-05 19.623 2.28959 20.0003 5.25125C20.3775 2.28959 22.907 2.36158e-05 25.9711 0ZM20.0008 16.9374C16.3623 16.9374 13.186 19.2125 11.4896 22.5927C11.4626 22.6465 11.4626 22.7103 11.4896 22.7641C13.186 26.1444 16.3622 28.4197 20.0008 28.4197C23.6394 28.4196 26.8153 26.1444 28.5117 22.7641C28.5387 22.7103 28.5387 22.6465 28.5117 22.5927C26.8153 19.2126 23.6393 16.9374 20.0008 16.9374ZM20.0008 11.5803C16.6401 11.5803 13.6738 13.5213 11.9037 16.4812V18.1608C13.6738 15.9016 16.64 14.4199 20.0008 14.4199C23.3616 14.42 26.3275 15.9017 28.0976 18.1608V16.481C26.3275 13.5213 23.3614 11.5804 20.0008 11.5803Z" fill="var(--fill-0, #5968fb)"/>
</g>
</g>
</svg>
