<svg preserveAspectRatio="none" width="100%" height="100%" overflow="visible" style="display: block;" viewBox="0 0 40 40" fill="none" xmlns="http://www.w3.org/2000/svg">
<g id="logo">
<g id="Union">
<path d="M20.0499 15.5271C22.5203 15.5271 24.5228 17.5297 24.5228 20C24.5228 22.4703 22.5203 24.4729 20.0499 24.4729C17.5796 24.4729 15.5771 22.4703 15.5771 20C15.5771 17.5297 17.5796 15.5271 20.0499 15.5271Z" fill="var(--fill-0, #5968fb)"/>
<path fill-rule="evenodd" clip-rule="evenodd" d="M15.7629 1.08471C19.6306 -1.14827 24.5762 0.176879 26.8092 4.04456C27.229 4.77165 27.5226 5.53709 27.6976 6.31518C31.3693 4.84826 35.6567 6.26108 37.6916 9.78565C39.7265 13.3102 38.8062 17.7294 35.7 20.1757C36.2865 20.7165 36.8026 21.3538 37.2225 22.0811C39.4555 25.9488 38.1304 30.8944 34.2627 33.1274C32.2976 34.262 30.0544 34.477 28.03 33.9077C27.5108 35.9456 26.2029 37.7808 24.2378 38.9153C20.3702 41.1483 15.4245 39.8231 13.1915 35.9555C12.7716 35.2282 12.4775 34.4627 12.3025 33.6845C8.6309 35.1512 4.34377 33.7384 2.30888 30.214C0.274016 26.6895 1.19392 22.2701 4.29991 19.8237C3.71362 19.2831 3.19791 18.6459 2.77815 17.9189C0.545132 14.0512 1.87032 9.10562 5.738 6.87259C7.703 5.7381 9.94611 5.52252 11.9705 6.09171C12.4898 4.05399 13.7979 2.21919 15.7629 1.08471ZM20.0002 13.5388C13.8426 13.5388 8.85085 16.4316 8.85085 20C8.85092 23.5684 13.8427 26.4612 20.0002 26.4612C26.1578 26.4612 31.1496 23.5684 31.1496 20C31.1496 16.4316 26.1578 13.5388 20.0002 13.5388Z" fill="var(--fill-0, #5968fb)"/>
</g>
</g>
</svg>
