<svg preserveAspectRatio="none" width="100%" height="100%" overflow="visible" style="display: block;" viewBox="0 0 104 104" fill="none" xmlns="http://www.w3.org/2000/svg">
<g id="Union">
<path d="M52 40.6419C58.2729 40.6419 63.3579 45.7271 63.3581 52C63.3581 58.273 58.273 63.3581 52 63.3581C45.7271 63.3579 40.6419 58.2729 40.6419 52C40.6421 45.7272 45.7272 40.6421 52 40.6419Z" fill="#FFC413"/>
<path fill-rule="evenodd" clip-rule="evenodd" d="M67.3994 0C76.0421 0.000463576 83.0477 7.00652 83.0485 15.6491V20.6976H88.097C96.7406 20.6977 103.746 27.7073 103.746 36.3509C103.745 44.9871 96.7519 51.9888 88.1182 52C96.7519 52.0109 103.75 59.0129 103.75 67.6491C103.75 76.2925 96.7404 83.3023 88.097 83.3024H83.0485V88.3509C83.0475 96.9934 76.042 104 67.3994 104C59.4323 104 52.8536 98.0448 51.873 90.3441C50.8925 98.0445 44.3176 103.999 36.3509 104C27.7079 104 20.6986 96.9937 20.6976 88.3509V83.3024H15.6491C7.00633 83.3016 0.000100289 76.292 0 67.6491C0.000754274 59.013 6.99845 52.011 15.6322 52C6.99849 51.9888 0.000620316 44.9871 0 36.3509C-3.77796e-07 27.708 7.00639 20.6987 15.6491 20.6976H20.6976V15.6491C20.6984 7.00623 27.7079 0 36.3509 0C44.3167 0.000510264 50.8915 5.95247 51.873 13.6517C52.8545 5.95203 59.4331 6.13974e-05 67.3994 0ZM61.7415 38.0013C55.8248 33.9702 48.0439 33.9701 42.1273 38.0013L24.5739 49.9645C23.1038 50.9666 23.1036 53.1351 24.5739 54.137L42.1273 66.096C48.0442 70.1279 55.8245 70.1278 61.7415 66.096L79.2949 54.137C80.7653 53.1351 80.7653 50.9665 79.2949 49.9645L61.7415 38.0013Z" fill="#FFC413"/>
</g>
</svg>
