<svg preserveAspectRatio="none" width="100%" height="100%" overflow="visible" style="display: block;" viewBox="0 0 24 24" fill="none" xmlns="http://www.w3.org/2000/svg">
<g id="Union">
<path d="M12 9.37891C13.4476 9.37891 14.6211 10.5524 14.6211 12C14.6211 13.4476 13.4476 14.6211 12 14.6211C10.5524 14.6211 9.37891 13.4476 9.37891 12C9.37894 10.5524 10.5524 9.37894 12 9.37891Z" fill="#FFC413"/>
<path fill-rule="evenodd" clip-rule="evenodd" d="M15.5537 0C17.5482 0.000106979 19.1649 1.61689 19.165 3.61133V4.77637H20.3301C22.3247 4.77638 23.9414 6.394 23.9414 8.38867C23.9413 10.3816 22.3274 11.9974 20.335 12C22.3274 12.0025 23.9422 13.6184 23.9424 15.6113C23.9424 17.606 22.3247 19.2236 20.3301 19.2236H19.165V20.3887C19.1648 22.3831 17.5482 23.9999 15.5537 24C13.7151 24 12.197 22.6257 11.9707 20.8486C11.7444 22.6256 10.2271 23.9999 8.38867 24C6.39413 24 4.7766 22.3832 4.77637 20.3887V19.2236H3.61133C1.61684 19.2234 2.31436e-05 17.6059 0 15.6113C0.000174063 13.6184 1.61503 12.0025 3.60742 12C1.61504 11.9974 0.00014315 10.3816 0 8.38867C-8.71836e-08 6.39414 1.61686 4.77662 3.61133 4.77637H4.77637V3.61133C4.77655 1.61682 6.39412 0 8.38867 0C10.2269 0.000117753 11.7442 1.37365 11.9707 3.15039C12.1972 1.37355 13.7153 1.41686e-05 15.5537 0ZM14.248 8.76953C12.8827 7.83927 11.0871 7.83924 9.72168 8.76953L5.6709 11.5303C5.33164 11.7615 5.3316 12.2619 5.6709 12.4932L9.72168 15.2529C11.0871 16.1834 12.8826 16.1833 14.248 15.2529L18.2988 12.4932C18.6381 12.2619 18.6381 11.7615 18.2988 11.5303L14.248 8.76953Z" fill="#FFC413"/>
</g>
</svg>
