<svg preserveAspectRatio="none" width="100%" height="100%" overflow="visible" style="display: block;" viewBox="0 0 80 80" fill="none" xmlns="http://www.w3.org/2000/svg">
<g id="Union">
<path d="M40 31.263C44.8253 31.263 48.7369 35.1747 48.737 40C48.737 44.8254 44.8254 48.737 40 48.737C35.1747 48.7369 31.263 44.8253 31.263 40C31.2631 35.1747 35.1747 31.2631 40 31.263Z" fill="#FFC413"/>
<path fill-rule="evenodd" clip-rule="evenodd" d="M51.8457 0C58.4939 0.000356597 63.8829 5.38963 63.8835 12.0378V15.9212H67.7669C74.4158 15.9213 79.8047 21.3133 79.8047 27.9622C79.8042 34.6055 74.4245 39.9914 67.7832 40C74.4246 40.0084 79.8074 45.3946 79.8079 52.0378C79.8079 58.6865 74.4157 64.0787 67.7669 64.0788H63.8835V67.9622C63.8827 74.6103 58.4939 79.9996 51.8457 80C45.7171 79.9999 40.6566 75.4191 39.9023 69.4954C39.148 75.4188 34.0905 79.9996 27.9622 80C21.3138 80 15.922 74.6105 15.9212 67.9622V64.0788H12.0378C5.38948 64.0781 7.71454e-05 58.6862 0 52.0378C0.000580211 45.3946 5.38342 40.0084 12.0247 40C5.38346 39.9913 0.000477166 34.6054 0 27.9622C-2.90612e-07 21.3138 5.38953 15.9221 12.0378 15.9212H15.9212V12.0378C15.9218 5.38941 21.3137 0 27.9622 0C34.0898 0.00039251 39.1473 4.57883 39.9023 10.5013C40.6573 4.57849 45.7177 4.72287e-05 51.8457 0ZM47.4935 29.2318C42.9422 26.1309 36.9569 26.1308 32.4056 29.2318L18.903 38.4342C17.7721 39.2051 17.772 40.8732 18.903 41.6439L32.4056 50.8431C36.9571 53.9445 42.9419 53.9444 47.4935 50.8431L60.9961 41.6439C62.1272 40.8731 62.1272 39.205 60.9961 38.4342L47.4935 29.2318Z" fill="#FFC413"/>
</g>
</svg>
